<svg xmlns="http://www.w3.org/2000/svg" xmlns:xlink="http://www.w3.org/1999/xlink" width="83.918" height="83.918" viewBox="0 0 83.918 83.918">
  <defs>
    <clipPath id="clip-path">
      <rect id="Rectángulo_302693" data-name="Rectángulo 302693" width="58" height="58" transform="translate(0 0)" fill="#fff"/>
    </clipPath>
  </defs>
  <g id="Grupo_909078" data-name="Grupo 909078" transform="translate(-180 -4093.69)">
    <g id="Grupo_895914" data-name="Grupo 895914" transform="translate(180 4093.69)">
      <circle id="Elipse_7032" data-name="Elipse 7032" cx="41.959" cy="41.959" r="41.959" fill="#0b5999"/>
    </g>
    <g id="Grupo_908378" data-name="Grupo 908378" transform="translate(0 101)">
      <rect id="Rectángulo_302695" data-name="Rectángulo 302695" width="58" height="58" transform="translate(193 4006)" fill="none"/>
      <g id="Grupo_908377" data-name="Grupo 908377" transform="translate(193 4005.999)">
        <path id="Línea_439" data-name="Línea 439" d="M-8.242-11.068H-12.2A1.133,1.133,0,0,1-13.333-12.2,1.133,1.133,0,0,1-12.2-13.333h3.959A1.133,1.133,0,0,1-7.109-12.2,1.133,1.133,0,0,1-8.242-11.068Z" transform="translate(44.239 24.315)" fill="#fff"/>
        <g id="Grupo_908374" data-name="Grupo 908374" transform="translate(0 0.001)">
          <g id="Grupo_908373" data-name="Grupo 908373" clip-path="url(#clip-path)">
            <path id="Trazado_665427" data-name="Trazado 665427" d="M14.151,167.27H1.133A1.133,1.133,0,0,1,0,166.137V130.375a1.133,1.133,0,0,1,1.133-1.133H6.246v2.266H2.265V165H14.151a1.133,1.133,0,0,1,0,2.266Z" transform="translate(0 -118.262)" fill="#fff"/>
          </g>
        </g>
        <path id="Línea_440" data-name="Línea 440" d="M-8.415-11.068H-12.2A1.133,1.133,0,0,1-13.334-12.2,1.133,1.133,0,0,1-12.2-13.333h3.786A1.133,1.133,0,0,1-7.282-12.2,1.133,1.133,0,0,1-8.415-11.068Z" transform="translate(34.377 24.315)" fill="#fff"/>
        <g id="Grupo_908376" data-name="Grupo 908376" transform="translate(0 0.001)">
          <g id="Grupo_908375" data-name="Grupo 908375" clip-path="url(#clip-path)">
            <path id="Elipse_7888" data-name="Elipse 7888" d="M-4.527-13.333A8.832,8.832,0,0,1,4.28-4.5,8.832,8.832,0,0,1-4.527,4.343,8.832,8.832,0,0,1-13.333-4.5,8.832,8.832,0,0,1-4.527-13.333Zm0,15.411A6.564,6.564,0,0,0,2.014-4.5a6.564,6.564,0,0,0-6.541-6.572A6.564,6.564,0,0,0-11.068-4.5,6.564,6.564,0,0,0-4.527,2.077Z" transform="translate(18.678 16.608)" fill="#fff"/>
            <path id="Línea_441" data-name="Línea 441" d="M-8.863-11.068H-12.2A1.133,1.133,0,0,1-13.334-12.2,1.133,1.133,0,0,1-12.2-13.333h3.337A1.133,1.133,0,0,1-7.731-12.2,1.133,1.133,0,0,1-8.863-11.068Z" transform="translate(24.683 24.313)" fill="#fff"/>
            <path id="Elipse_7889" data-name="Elipse 7889" d="M-4.527-13.333A8.832,8.832,0,0,1,4.28-4.5,8.832,8.832,0,0,1-4.527,4.343,8.832,8.832,0,0,1-13.334-4.5,8.832,8.832,0,0,1-4.527-13.333Zm0,15.411A6.564,6.564,0,0,0,2.014-4.5a6.564,6.564,0,0,0-6.541-6.572A6.564,6.564,0,0,0-11.068-4.5,6.564,6.564,0,0,0-4.527,2.077Z" transform="translate(48.376 16.608)" fill="#fff"/>
            <path id="Línea_442" data-name="Línea 442" d="M-8.863-11.068H-12.2A1.133,1.133,0,0,1-13.333-12.2,1.133,1.133,0,0,1-12.2-13.333h3.337A1.133,1.133,0,0,1-7.73-12.2,1.133,1.133,0,0,1-8.863-11.068Z" transform="translate(54.381 24.313)" fill="#fff"/>
            <path id="Línea_443" data-name="Línea 443" d="M-12.2-7.717A1.133,1.133,0,0,1-13.333-8.85V-12.2A1.133,1.133,0,0,1-12.2-13.333,1.133,1.133,0,0,1-11.068-12.2V-8.85A1.133,1.133,0,0,1-12.2-7.717Z" transform="translate(56.049 22.638)" fill="#fff"/>
            <path id="Trazado_665428" data-name="Trazado 665428" d="M191.529,496.947H163.361a1.133,1.133,0,0,1-1.133-1.133v-11.4a1.133,1.133,0,0,1,1.133-1.133H173a1.133,1.133,0,1,1,0,2.266h-8.5v9.133h25.9v-9.133h-8.924a1.133,1.133,0,1,1,0-2.266h10.057a1.133,1.133,0,0,1,1.133,1.133v11.4A1.133,1.133,0,0,1,191.529,496.947Z" transform="translate(-148.445 -442.223)" fill="#fff"/>
            <path id="Trazado_665429" data-name="Trazado 665429" d="M264.239,364.309h6.519a1.133,1.133,0,0,1,.964,1.728l-2.869,4.646h3.48a1.133,1.133,0,0,1,.816,1.918l-10.332,10.741a1.133,1.133,0,0,1-1.918-1.051l1.352-5.608h-3.056a1.133,1.133,0,0,1-1.014-1.639l5.045-10.108A1.133,1.133,0,0,1,264.239,364.309Zm4.488,2.266H264.94l-3.914,7.842h2.663a1.133,1.133,0,0,1,1.1,1.4l-.71,2.945,5.59-5.812h-2.849a1.133,1.133,0,0,1-.964-1.728Z" transform="translate(-236.137 -333.357)" fill="#fff"/>
            <path id="Línea_444" data-name="Línea 444" d="M-12.2-5.884a1.133,1.133,0,0,1-1.133-1.133V-12.2A1.133,1.133,0,0,1-12.2-13.333,1.133,1.133,0,0,1-11.068-12.2v5.184A1.133,1.133,0,0,1-12.2-5.884Z" transform="translate(38.286 22.106)" fill="#fff"/>
            <path id="Línea_445" data-name="Línea 445" d="M-12.2-.931a1.133,1.133,0,0,1-1.133-1.133V-12.2A1.133,1.133,0,0,1-12.2-13.333,1.133,1.133,0,0,1-11.068-12.2V-2.064A1.133,1.133,0,0,1-12.2-.931Z" transform="translate(44.115 19.629)" fill="#fff"/>
            <path id="Trazado_665430" data-name="Trazado 665430" d="M516.924,404.295H503.905a1.133,1.133,0,1,1,0-2.266h11.885V389.407a1.133,1.133,0,1,1,2.266,0v13.754A1.133,1.133,0,0,1,516.924,404.295Z" transform="translate(-460.056 -355.287)" fill="#fff"/>
            <path id="Trazado_665431" data-name="Trazado 665431" d="M602.232,153.516a1.133,1.133,0,0,1-1.133-1.133V131.508h-3.965a1.133,1.133,0,0,1,0-2.266h5.1a1.133,1.133,0,0,1,1.133,1.133v22.008A1.133,1.133,0,0,1,602.232,153.516Z" transform="translate(-545.364 -118.263)" fill="#fff"/>
            <path id="Línea_446" data-name="Línea 446" transform="translate(56.867 29.02)" fill="#fff"/>
          </g>
        </g>
      </g>
    </g>
  </g>
</svg>
