<svg xmlns="http://www.w3.org/2000/svg" xmlns:xlink="http://www.w3.org/1999/xlink" width="190" height="79" viewBox="0 0 190 79">
  <defs>
    <clipPath id="clip-path">
      <rect id="Rectángulo_302709" data-name="Rectángulo 302709" width="150.594" height="27.457" fill="none"/>
    </clipPath>
  </defs>
  <g id="Grupo_909079" data-name="Grupo 909079" transform="translate(-180 -5082)">
    <path id="Trazado_667175" data-name="Trazado 667175" d="M12,0H178a12,12,0,0,1,12,12V67a12,12,0,0,1-12,12H12A12,12,0,0,1,0,67V12A12,12,0,0,1,12,0Z" transform="translate(180 5082)" fill="#feca2e"/>
    <g id="Grupo_908764" data-name="Grupo 908764" transform="translate(199.703 5107.771)" clip-path="url(#clip-path)">
      <path id="Trazado_666328" data-name="Trazado 666328" d="M13.7,28.229c-.168.973-.744,3.669-.985,4.9H.216L0,32.671c3.34-5.5,6.681-11.206,10.069-17.027H5.335c-2.139,0-2.5.173-3,1.062a11.445,11.445,0,0,0-.913,2.406L.7,19.085c.12-1.489.408-3.984.457-5.245h.624c.264.686.553.658,1.274.658H12.76l.193.46c-3.34,5.59-6.585,11.15-9.9,16.94.745.056,2.307.086,3.941.086,3.148,0,3.869-.145,4.542-1.032A10.618,10.618,0,0,0,13,28.028Z" transform="translate(0 -7.19)"/>
      <path id="Trazado_666329" data-name="Trazado 666329" d="M177.365,33.657c-.328,0-.607-.029-.935-.059a4.37,4.37,0,0,1-3.939-2.592c-.933-1.535-1.843-3.433-2.651-4.968-.5-.964-.833-1.145-2.121-1.145h-.884v4.73c0,2.558.278,2.71,2.3,2.95v.844h-6.742v-.844c2.1-.27,2.273-.392,2.273-2.95V17.6c0-2.56-.278-2.648-2.273-2.921V13.84h6.439a6.208,6.208,0,0,1,4.04,1.025,4.786,4.786,0,0,1,1.717,3.975,5.548,5.548,0,0,1-3.258,5.179c.456.935,1.541,2.953,2.3,4.306a27.468,27.468,0,0,0,1.994,3.1,3.573,3.573,0,0,0,1.843,1.385Zm-9.318-9.787A3.6,3.6,0,0,0,170.825,23a4.6,4.6,0,0,0,1.389-3.706c0-3.222-1.793-4.4-3.737-4.4a2,2,0,0,0-1.339.3c-.227.211-.3.513-.3,1.295V23.87Z" transform="translate(-96.975 -7.19)"/>
      <path id="Trazado_666330" data-name="Trazado 666330" d="M313.81,34.1v-.787c1.46-.2,1.6-.478,1.177-1.4-.542-1.1-1.578-3.2-3.037-5.956C310.843,28,309.806,29.94,309.03,31.6c-.542,1.18-.354,1.489,1.224,1.713V34.1h-5.487v-.787a3.257,3.257,0,0,0,2.756-1.629c.871-1.349,1.813-2.978,3.862-6.743-1.224-2.358-2.284-4.352-3.061-5.841-1.012-1.882-1.319-2.248-3.038-2.473V15.84h5.864v.787c-1.459.17-1.507.478-1.13,1.235.754,1.574,1.625,3.2,2.662,5.114.918-1.686,1.766-3.287,2.379-4.579.565-1.208.4-1.546-1.155-1.771V15.84h5.37v.787c-1.767.282-2.191.505-3.2,2.219-.777,1.322-1.248,2.136-2.873,5.057,1.272,2.388,2.473,4.719,3.58,6.77,1.13,2.134,1.6,2.443,3.3,2.64V34.1Z" transform="translate(-181.997 -8.229)"/>
      <path id="Trazado_666331" data-name="Trazado 666331" d="M207.832,20.393c-.207.855-.479,1.827-.638,2.53H201.18v-.457c.877-1.027,1.834-2.15,2.616-3.235a8.3,8.3,0,0,0,1.962-4.584c0-1.58-.7-2.493-1.866-2.493-1.1,0-1.787,1.027-2.2,1.77l-.367-.4.909-1.542a2.713,2.713,0,0,1,2.185-1.142c1.515,0,2.711,1.238,2.711,3.292,0,1.617-.494,2.759-2.009,4.6-.686.857-1.691,2.017-2.377,2.8h3.047c.862,0,1.1-.095,1.643-1.293Z" transform="translate(-120.138 -5.631)"/>
      <path id="Trazado_666332" data-name="Trazado 666332" d="M355.832,20.393c-.207.855-.479,1.827-.638,2.53H349.18v-.457c.877-1.027,1.834-2.15,2.616-3.235a8.3,8.3,0,0,0,1.962-4.584c0-1.58-.7-2.493-1.866-2.493-1.1,0-1.787,1.027-2.2,1.77l-.367-.4.909-1.542a2.712,2.712,0,0,1,2.185-1.142c1.515,0,2.711,1.238,2.711,3.292,0,1.617-.494,2.759-2.009,4.6-.686.857-1.691,2.017-2.377,2.8h3.047c.862,0,1.1-.095,1.643-1.293Z" transform="translate(-208.519 -5.631)"/>
      <path id="Trazado_666333" data-name="Trazado 666333" d="M248.768,30.611v7.636H247.09V30.611h-5.9V28.775h5.9V21.84h1.678v6.935h5.872v1.836Z" transform="translate(-144.03 -11.346)"/>
      <path id="Trazado_666334" data-name="Trazado 666334" d="M58.767,30.907H70.039v1.509H58.767Zm0,5.449H70.039v1.511H58.767Z" transform="translate(-35.094 -16.056)"/>
      <path id="Trazado_666335" data-name="Trazado 666335" d="M124.113,16.74l2.03-1.406,3.916,11.132c.806,1.805,1.611.844,2.03-.527l5.624-23.615h86.206s.806-2.326,0-2.326H137.455L131.67,23.467c-.4,1.441-.4,2.4-1.209.961l-2.868-9.578s-.757-1.954-1.563-1.474a11.067,11.067,0,0,0-2.643,2.228Z" transform="translate(-73.683 0)"/>
    </g>
  </g>
</svg>
