<svg xmlns="http://www.w3.org/2000/svg" width="17.194" height="70.842" viewBox="0 0 17.194 70.842">
  <g id="Grupo_109510" data-name="Grupo 109510" transform="translate(-714.125 -398.449)">
    <g id="Grupo_109508" data-name="Grupo 109508" opacity="0.36" style="mix-blend-mode: overlay;isolation: isolate">
      <path id="Trazado_117578" data-name="Trazado 117578" d="M717.125,402.59v-4.14l14.194,6.506v4.14Z" fill="#00feff"/>
      <path id="Trazado_117579" data-name="Trazado 117579" d="M717.125,409.539V405.4l14.194,6.506v4.14Z" fill="#00feff"/>
      <path id="Trazado_117580" data-name="Trazado 117580" d="M717.125,416.488v-4.14l14.194,6.506v4.14Z" fill="#00feff"/>
      <path id="Trazado_117581" data-name="Trazado 117581" d="M717.125,423.438V419.3l14.194,6.506v4.14Z" fill="#00feff"/>
      <path id="Trazado_117582" data-name="Trazado 117582" d="M717.125,430.387v-4.14l14.194,6.506v4.14Z" fill="#00feff"/>
      <path id="Trazado_117583" data-name="Trazado 117583" d="M717.125,437.336V433.2l14.194,6.506v4.14Z" fill="#00feff"/>
      <path id="Trazado_117584" data-name="Trazado 117584" d="M717.125,444.286v-4.14l14.194,6.506v4.14Z" fill="#00feff"/>
    </g>
    <g id="Grupo_109509" data-name="Grupo 109509">
      <path id="Trazado_117585" data-name="Trazado 117585" d="M714.125,421.09v-4.14l14.194,6.506v4.14Z" fill="#00feff"/>
      <path id="Trazado_117586" data-name="Trazado 117586" d="M714.125,428.039V423.9l14.194,6.506v4.14Z" fill="#00feff"/>
      <path id="Trazado_117587" data-name="Trazado 117587" d="M714.125,434.988v-4.14l14.194,6.506v4.14Z" fill="#00feff"/>
      <path id="Trazado_117588" data-name="Trazado 117588" d="M714.125,441.938V437.8l14.194,6.506v4.14Z" fill="#00feff"/>
      <path id="Trazado_117589" data-name="Trazado 117589" d="M714.125,448.887v-4.14l14.194,6.506v4.14Z" fill="#00feff"/>
      <path id="Trazado_117590" data-name="Trazado 117590" d="M714.125,455.836V451.7l14.194,6.506v4.14Z" fill="#00feff"/>
      <path id="Trazado_117591" data-name="Trazado 117591" d="M714.125,462.786v-4.14l14.194,6.506v4.14Z" fill="#00feff"/>
    </g>
  </g>
</svg>
