<svg xmlns="http://www.w3.org/2000/svg" width="89.938" height="40.117" viewBox="0 0 89.938 40.117">
  <g id="Grupo_109506" data-name="Grupo 109506" transform="translate(-632.333 -24.72)">
    <g id="Grupo_109502" data-name="Grupo 109502">
      <g id="Grupo_109501" data-name="Grupo 109501">
        <g id="Grupo_109500" data-name="Grupo 109500">
          <path id="Trazado_117568" data-name="Trazado 117568" d="M702.212,29.875a14.909,14.909,0,0,1,3.95.533l1.617-4.9A20.039,20.039,0,0,0,692.4,27.285l2.689,4.4A14.835,14.835,0,0,1,702.212,29.875Z" fill="#00feff" opacity="0.3"/>
          <path id="Trazado_117569" data-name="Trazado 117569" d="M687.328,44.027a14.883,14.883,0,0,1,6.481-11.556l-2.691-4.4a20.037,20.037,0,0,0-8.944,15.958Z" fill="#00feff" opacity="0.5"/>
          <path id="Trazado_117570" data-name="Trazado 117570" d="M715.691,51.142a14.9,14.9,0,0,1-28.363-5.611h-5.154a20.054,20.054,0,0,0,38.285,7.575Z" fill="#00feff"/>
          <path id="Trazado_117571" data-name="Trazado 117571" d="M707.591,30.88a14.9,14.9,0,0,1,8.672,18.872l4.775,1.965a20.078,20.078,0,0,0-11.829-25.74Z" fill="#00feff" opacity="0.2"/>
        </g>
      </g>
      <path id="Trazado_117572" data-name="Trazado 117572" d="M702.223,48.191a3.413,3.413,0,1,1,3.412-3.412A3.412,3.412,0,0,1,702.223,48.191Z" fill="#00feff"/>
    </g>
    <g id="Grupo_109505" data-name="Grupo 109505">
      <g id="Grupo_109504" data-name="Grupo 109504">
        <g id="Grupo_109503" data-name="Grupo 109503">
          <path id="Trazado_117573" data-name="Trazado 117573" d="M652.393,59.682a14.921,14.921,0,0,1-3.951-.533l-1.617,4.9A20.039,20.039,0,0,0,662.2,62.272l-2.688-4.4A14.848,14.848,0,0,1,652.393,59.682Z" fill="#00feff" opacity="0.3"/>
          <path id="Trazado_117574" data-name="Trazado 117574" d="M667.277,45.53A14.886,14.886,0,0,1,660.8,57.086l2.691,4.4a20.038,20.038,0,0,0,8.944-15.959Z" fill="#00feff" opacity="0.5"/>
          <path id="Trazado_117575" data-name="Trazado 117575" d="M638.913,38.415a14.905,14.905,0,0,1,28.364,5.611h5.154a20.054,20.054,0,0,0-38.286-7.574Z" fill="#00feff"/>
          <path id="Trazado_117576" data-name="Trazado 117576" d="M647.013,58.678a14.9,14.9,0,0,1-8.671-18.872l-4.775-1.966A20.076,20.076,0,0,0,645.4,63.581Z" fill="#00feff" opacity="0.2"/>
        </g>
      </g>
      <path id="Trazado_117577" data-name="Trazado 117577" d="M652.382,41.366a3.413,3.413,0,1,1-3.413,3.413A3.413,3.413,0,0,1,652.382,41.366Z" fill="#00feff"/>
    </g>
  </g>
</svg>
