<svg xmlns="http://www.w3.org/2000/svg" width="393.034" height="393.035" viewBox="0 0 393.034 393.035">
  <g id="Grupo_909063" data-name="Grupo 909063" transform="translate(11695.727 12240.857)">
    <g id="Grupo_109582" data-name="Grupo 109582" transform="translate(-12043.153 -12285.396)" opacity="0.7">
      <g id="Grupo_109493" data-name="Grupo 109493">
        <g id="Grupo_109492" data-name="Grupo 109492">
          <g id="Grupo_109491" data-name="Grupo 109491">
            <g id="Grupo_109422" data-name="Grupo 109422">
              <path id="Trazado_117498" data-name="Trazado 117498" d="M350.08,227.734a2.213,2.213,0,0,1,.336-4.413,2.213,2.213,0,0,1-.336,4.413Z" fill="#54ceff"/>
            </g>
            <g id="Grupo_109423" data-name="Grupo 109423">
              <path id="Trazado_117499" data-name="Trazado 117499" d="M352.042,210.146a2.172,2.172,0,0,1-1.788-2.551,2.209,2.209,0,1,1,4.354.745A2.252,2.252,0,0,1,352.042,210.146Z" fill="#54ceff"/>
            </g>
            <g id="Grupo_109424" data-name="Grupo 109424">
              <path id="Trazado_117500" data-name="Trazado 117500" d="M355.608,192.81a2.153,2.153,0,0,1-1.548-2.7,2.231,2.231,0,0,1,2.738-1.559,2.19,2.19,0,0,1,1.528,2.7A2.272,2.272,0,0,1,355.608,192.81Z" fill="#54ceff"/>
            </g>
            <g id="Grupo_109425" data-name="Grupo 109425">
              <path id="Trazado_117501" data-name="Trazado 117501" d="M360.79,175.887a2.226,2.226,0,0,1-1.346-2.853,2.25,2.25,0,0,1,2.884-1.3,2.172,2.172,0,0,1,1.261,2.822A2.195,2.195,0,0,1,360.79,175.887Z" fill="#54ceff"/>
            </g>
            <g id="Grupo_109426" data-name="Grupo 109426">
              <path id="Trazado_117502" data-name="Trazado 117502" d="M367.487,159.507a2.243,2.243,0,0,1-1.082-2.966,2.189,2.189,0,0,1,2.965-1.038,2.231,2.231,0,0,1,1.022,2.937A2.177,2.177,0,0,1,367.487,159.507Z" fill="#54ceff"/>
            </g>
            <g id="Grupo_109427" data-name="Grupo 109427">
              <path id="Trazado_117503" data-name="Trazado 117503" d="M375.645,143.8a2.227,2.227,0,0,1-.795-3.046,2.154,2.154,0,0,1,3.012-.785,2.269,2.269,0,0,1,.785,3.04A2.195,2.195,0,0,1,375.645,143.8Z" fill="#54ceff"/>
            </g>
            <g id="Grupo_109428" data-name="Grupo 109428">
              <path id="Trazado_117504" data-name="Trazado 117504" d="M385.194,128.907a2.213,2.213,0,0,1-.506-3.1,2.168,2.168,0,0,1,3.071-.508,2.256,2.256,0,0,1,.506,3.1A2.208,2.208,0,0,1,385.194,128.907Z" fill="#54ceff"/>
            </g>
            <g id="Grupo_109429" data-name="Grupo 109429">
              <path id="Trazado_117505" data-name="Trazado 117505" d="M396.051,114.934a2.213,2.213,0,0,1,2.9-3.346,2.213,2.213,0,0,1-2.9,3.346Z" fill="#54ceff"/>
            </g>
            <g id="Grupo_109430" data-name="Grupo 109430">
              <path id="Trazado_117506" data-name="Trazado 117506" d="M408.126,102a2.213,2.213,0,0,1,3.2-3.054,2.213,2.213,0,0,1-3.2,3.054Z" fill="#54ceff"/>
            </g>
            <g id="Grupo_109431" data-name="Grupo 109431">
              <path id="Trazado_117507" data-name="Trazado 117507" d="M421.318,90.2a2.174,2.174,0,0,1,.365-3.095,2.208,2.208,0,1,1,2.75,3.455A2.249,2.249,0,0,1,421.318,90.2Z" fill="#54ceff"/>
            </g>
            <g id="Grupo_109432" data-name="Grupo 109432">
              <path id="Trazado_117508" data-name="Trazado 117508" d="M435.521,79.64a2.161,2.161,0,0,1,.651-3.04,2.208,2.208,0,1,1,2.425,3.691A2.263,2.263,0,0,1,435.521,79.64Z" fill="#54ceff"/>
            </g>
            <g id="Grupo_109433" data-name="Grupo 109433">
              <path id="Trazado_117509" data-name="Trazado 117509" d="M450.642,70.439a2.162,2.162,0,0,1,.911-2.99,2.234,2.234,0,0,1,3.01.939,2.186,2.186,0,0,1-.93,2.957A2.261,2.261,0,0,1,450.642,70.439Z" fill="#54ceff"/>
            </g>
            <g id="Grupo_109434" data-name="Grupo 109434">
              <path id="Trazado_117510" data-name="Trazado 117510" d="M466.54,62.664a2.213,2.213,0,1,1,4.081-1.712,2.213,2.213,0,0,1-4.081,1.712Z" fill="#54ceff"/>
            </g>
            <g id="Grupo_109435" data-name="Grupo 109435">
              <path id="Trazado_117511" data-name="Trazado 117511" d="M483.08,56.371a2.239,2.239,0,0,1,1.429-2.814,2.178,2.178,0,0,1,2.78,1.45,2.243,2.243,0,0,1-1.445,2.76A2.18,2.18,0,0,1,483.08,56.371Z" fill="#54ceff"/>
            </g>
            <g id="Grupo_109436" data-name="Grupo 109436">
              <path id="Trazado_117512" data-name="Trazado 117512" d="M500.123,51.613a2.219,2.219,0,0,1,1.684-2.655,2.161,2.161,0,0,1,2.629,1.66,2.265,2.265,0,0,1-1.685,2.655A2.2,2.2,0,0,1,500.123,51.613Z" fill="#54ceff"/>
            </g>
            <g id="Grupo_109437" data-name="Grupo 109437">
              <path id="Trazado_117513" data-name="Trazado 117513" d="M517.528,48.421a2.213,2.213,0,0,1,4.39-.558,2.213,2.213,0,0,1-4.39.558Z" fill="#54ceff"/>
            </g>
            <g id="Grupo_109438" data-name="Grupo 109438">
              <path id="Trazado_117514" data-name="Trazado 117514" d="M535.15,46.8a2.17,2.17,0,0,1,2.139-2.263,2.208,2.208,0,1,1,.148,4.414A2.254,2.254,0,0,1,535.15,46.8Z" fill="#54ceff"/>
            </g>
            <g id="Grupo_109439" data-name="Grupo 109439">
              <path id="Trazado_117515" data-name="Trazado 117515" d="M552.849,46.8a2.18,2.18,0,0,1,2.334-2.1,2.242,2.242,0,0,1,2.083,2.372,2.18,2.18,0,0,1-2.331,2.038A2.245,2.245,0,0,1,552.849,46.8Z" fill="#54ceff"/>
            </g>
            <g id="Grupo_109440" data-name="Grupo 109440">
              <path id="Trazado_117516" data-name="Trazado 117516" d="M570.472,48.421a2.243,2.243,0,0,1,2.519-1.905,2.184,2.184,0,0,1,1.863,2.526,2.239,2.239,0,0,1-2.509,1.843A2.178,2.178,0,0,1,570.472,48.421Z" fill="#54ceff"/>
            </g>
            <g id="Grupo_109441" data-name="Grupo 109441">
              <path id="Trazado_117517" data-name="Trazado 117517" d="M587.877,51.613a2.22,2.22,0,0,1,2.678-1.648,2.159,2.159,0,0,1,1.635,2.643,2.265,2.265,0,0,1-2.678,1.649A2.2,2.2,0,0,1,587.877,51.613Z" fill="#54ceff"/>
            </g>
            <g id="Grupo_109442" data-name="Grupo 109442">
              <path id="Trazado_117518" data-name="Trazado 117518" d="M604.92,56.371a2.213,2.213,0,0,1,4.193,1.419,2.213,2.213,0,0,1-4.193-1.419Z" fill="#54ceff"/>
            </g>
            <g id="Grupo_109443" data-name="Grupo 109443">
              <path id="Trazado_117519" data-name="Trazado 117519" d="M621.46,62.664a2.213,2.213,0,0,1,4.033,1.823,2.213,2.213,0,0,1-4.033-1.823Z" fill="#54ceff"/>
            </g>
            <g id="Grupo_109444" data-name="Grupo 109444">
              <path id="Trazado_117520" data-name="Trazado 117520" d="M637.358,70.439a2.169,2.169,0,0,1,3-.821,2.208,2.208,0,1,1-2.168,3.848A2.256,2.256,0,0,1,637.358,70.439Z" fill="#54ceff"/>
            </g>
            <g id="Grupo_109445" data-name="Grupo 109445">
              <path id="Trazado_117521" data-name="Trazado 117521" d="M652.478,79.64a2.156,2.156,0,0,1,3.066-.546,2.228,2.228,0,0,1,.549,3.1,2.194,2.194,0,0,1-3.058.535A2.27,2.27,0,0,1,652.478,79.64Z" fill="#54ceff"/>
            </g>
            <g id="Grupo_109446" data-name="Grupo 109446">
              <path id="Trazado_117522" data-name="Trazado 117522" d="M666.682,90.2a2.186,2.186,0,0,1,3.125-.294,2.241,2.241,0,0,1,.259,3.145,2.18,2.18,0,0,1-3.087.248A2.237,2.237,0,0,1,666.682,90.2Z" fill="#54ceff"/>
            </g>
            <g id="Grupo_109447" data-name="Grupo 109447">
              <path id="Trazado_117523" data-name="Trazado 117523" d="M679.874,102A2.213,2.213,0,1,1,683,105.126,2.213,2.213,0,0,1,679.874,102Z" fill="#54ceff"/>
            </g>
            <g id="Grupo_109448" data-name="Grupo 109448">
              <path id="Trazado_117524" data-name="Trazado 117524" d="M691.948,114.934a2.242,2.242,0,0,1,3.146.259,2.186,2.186,0,0,1-.294,3.125,2.238,2.238,0,0,1-3.1-.3A2.181,2.181,0,0,1,691.948,114.934Z" fill="#54ceff"/>
            </g>
            <g id="Grupo_109449" data-name="Grupo 109449">
              <path id="Trazado_117525" data-name="Trazado 117525" d="M702.806,128.907a2.228,2.228,0,0,1,3.1.549,2.155,2.155,0,0,1-.546,3.065,2.268,2.268,0,0,1-3.089-.556A2.194,2.194,0,0,1,702.806,128.907Z" fill="#54ceff"/>
            </g>
            <g id="Grupo_109450" data-name="Grupo 109450">
              <path id="Trazado_117526" data-name="Trazado 117526" d="M712.354,143.8a2.212,2.212,0,0,1,3.027.834,2.167,2.167,0,0,1-.82,3,2.256,2.256,0,0,1-3.027-.835A2.207,2.207,0,0,1,712.354,143.8Z" fill="#54ceff"/>
            </g>
            <g id="Grupo_109451" data-name="Grupo 109451">
              <path id="Trazado_117527" data-name="Trazado 117527" d="M720.513,159.507a2.213,2.213,0,0,1,1.823,4.033,2.213,2.213,0,0,1-1.823-4.033Z" fill="#54ceff"/>
            </g>
            <g id="Grupo_109452" data-name="Grupo 109452">
              <path id="Trazado_117528" data-name="Trazado 117528" d="M727.21,175.887a2.213,2.213,0,0,1,1.419,4.193,2.213,2.213,0,0,1-1.419-4.193Z" fill="#54ceff"/>
            </g>
            <g id="Grupo_109453" data-name="Grupo 109453">
              <path id="Trazado_117529" data-name="Trazado 117529" d="M732.392,192.81a2.159,2.159,0,0,1,2.643,1.635,2.208,2.208,0,1,1-4.292,1.043A2.265,2.265,0,0,1,732.392,192.81Z" fill="#54ceff"/>
            </g>
            <g id="Grupo_109454" data-name="Grupo 109454">
              <path id="Trazado_117530" data-name="Trazado 117530" d="M735.958,210.146a2.184,2.184,0,0,1,2.526,1.863,2.244,2.244,0,0,1-1.905,2.519,2.178,2.178,0,0,1-2.464-1.873A2.239,2.239,0,0,1,735.958,210.146Z" fill="#54ceff"/>
            </g>
            <g id="Grupo_109455" data-name="Grupo 109455">
              <path id="Trazado_117531" data-name="Trazado 117531" d="M737.92,227.734a2.242,2.242,0,0,1,2.372,2.083,2.178,2.178,0,0,1-2.095,2.333,2.243,2.243,0,0,1-2.315-2.085A2.18,2.18,0,0,1,737.92,227.734Z" fill="#54ceff"/>
            </g>
            <g id="Grupo_109456" data-name="Grupo 109456">
              <path id="Trazado_117532" data-name="Trazado 117532" d="M738.309,245.425a2.212,2.212,0,0,1,2.151,2.286,2.17,2.17,0,0,1-2.263,2.139,2.254,2.254,0,0,1-2.151-2.287A2.208,2.208,0,0,1,738.309,245.425Z" fill="#54ceff"/>
            </g>
            <g id="Grupo_109457" data-name="Grupo 109457">
              <path id="Trazado_117533" data-name="Trazado 117533" d="M737.137,263.082a2.213,2.213,0,0,1-.558,4.39,2.213,2.213,0,0,1,.558-4.39Z" fill="#54ceff"/>
            </g>
            <g id="Grupo_109458" data-name="Grupo 109458">
              <path id="Trazado_117534" data-name="Trazado 117534" d="M734.382,280.564a2.161,2.161,0,0,1,1.66,2.628,2.208,2.208,0,1,1-4.315-.943A2.265,2.265,0,0,1,734.382,280.564Z" fill="#54ceff"/>
            </g>
            <g id="Grupo_109459" data-name="Grupo 109459">
              <path id="Trazado_117535" data-name="Trazado 117535" d="M729.993,297.711a2.178,2.178,0,0,1,1.45,2.78,2.239,2.239,0,0,1-2.814,1.429,2.18,2.18,0,0,1-1.4-2.764A2.244,2.244,0,0,1,729.993,297.711Z" fill="#54ceff"/>
            </g>
            <g id="Grupo_109460" data-name="Grupo 109460">
              <path id="Trazado_117536" data-name="Trazado 117536" d="M724.048,314.379a2.213,2.213,0,1,1-1.712,4.081,2.213,2.213,0,0,1,1.712-4.081Z" fill="#54ceff"/>
            </g>
            <g id="Grupo_109461" data-name="Grupo 109461">
              <path id="Trazado_117537" data-name="Trazado 117537" d="M716.612,330.437a2.234,2.234,0,0,1,.939,3.01,2.162,2.162,0,0,1-2.99.911,2.261,2.261,0,0,1-.906-2.991A2.186,2.186,0,0,1,716.612,330.437Z" fill="#54ceff"/>
            </g>
            <g id="Grupo_109462" data-name="Grupo 109462">
              <path id="Trazado_117538" data-name="Trazado 117538" d="M707.749,345.752a2.22,2.22,0,0,1,.651,3.076,2.16,2.16,0,0,1-3.04.65,2.262,2.262,0,0,1-.651-3.075A2.2,2.2,0,0,1,707.749,345.752Z" fill="#54ceff"/>
            </g>
            <g id="Grupo_109463" data-name="Grupo 109463">
              <path id="Trazado_117539" data-name="Trazado 117539" d="M697.535,360.2a2.207,2.207,0,0,1,.361,3.115,2.175,2.175,0,0,1-3.1.365,2.249,2.249,0,0,1-.36-3.115A2.215,2.215,0,0,1,697.535,360.2Z" fill="#54ceff"/>
            </g>
            <g id="Grupo_109464" data-name="Grupo 109464">
              <path id="Trazado_117540" data-name="Trazado 117540" d="M686.057,373.671a2.213,2.213,0,0,1-3.054,3.2,2.213,2.213,0,0,1,3.054-3.2Z" fill="#54ceff"/>
            </g>
            <g id="Grupo_109465" data-name="Grupo 109465">
              <path id="Trazado_117541" data-name="Trazado 117541" d="M673.412,386.05a2.214,2.214,0,0,1-3.346,2.9,2.214,2.214,0,0,1,3.346-2.9Z" fill="#54ceff"/>
            </g>
            <g id="Grupo_109466" data-name="Grupo 109466">
              <path id="Trazado_117542" data-name="Trazado 117542" d="M659.7,397.24a2.169,2.169,0,0,1-.508,3.072,2.208,2.208,0,1,1-2.591-3.577A2.257,2.257,0,0,1,659.7,397.24Z" fill="#54ceff"/>
            </g>
            <g id="Grupo_109467" data-name="Grupo 109467">
              <path id="Trazado_117543" data-name="Trazado 117543" d="M645.026,407.138a2.154,2.154,0,0,1-.785,3.012,2.227,2.227,0,0,1-3.046-.8,2.194,2.194,0,0,1,.791-3A2.27,2.27,0,0,1,645.026,407.138Z" fill="#54ceff"/>
            </g>
            <g id="Grupo_109468" data-name="Grupo 109468">
              <path id="Trazado_117544" data-name="Trazado 117544" d="M629.5,415.63a2.189,2.189,0,0,1-1.038,2.965,2.243,2.243,0,0,1-2.966-1.082,2.177,2.177,0,0,1,1.067-2.9A2.23,2.23,0,0,1,629.5,415.63Z" fill="#54ceff"/>
            </g>
            <g id="Grupo_109469" data-name="Grupo 109469">
              <path id="Trazado_117545" data-name="Trazado 117545" d="M613.262,422.672a2.25,2.25,0,0,1-1.3,2.884,2.226,2.226,0,0,1-2.853-1.346,2.2,2.2,0,0,1,1.326-2.8A2.172,2.172,0,0,1,613.262,422.672Z" fill="#54ceff"/>
            </g>
            <g id="Grupo_109470" data-name="Grupo 109470">
              <path id="Trazado_117546" data-name="Trazado 117546" d="M596.453,428.2a2.231,2.231,0,0,1-1.559,2.738,2.153,2.153,0,0,1-2.7-1.548,2.271,2.271,0,0,1,1.564-2.718A2.19,2.19,0,0,1,596.453,428.2Z" fill="#54ceff"/>
            </g>
            <g id="Grupo_109471" data-name="Grupo 109471">
              <path id="Trazado_117547" data-name="Trazado 117547" d="M579.211,432.18a2.21,2.21,0,0,1-1.806,2.566,2.171,2.171,0,0,1-2.551-1.788,2.252,2.252,0,0,1,1.806-2.566A2.213,2.213,0,0,1,579.211,432.18Z" fill="#54ceff"/>
            </g>
            <g id="Grupo_109472" data-name="Grupo 109472">
              <path id="Trazado_117548" data-name="Trazado 117548" d="M561.679,434.584a2.213,2.213,0,0,1-4.413.336,2.213,2.213,0,0,1,4.413-.336Z" fill="#54ceff"/>
            </g>
            <g id="Grupo_109473" data-name="Grupo 109473">
              <path id="Trazado_117549" data-name="Trazado 117549" d="M544,435.421a2.154,2.154,0,0,1-2.237,2.152,2.228,2.228,0,0,1-2.188-2.264,2.195,2.195,0,0,1,2.237-2.153A2.272,2.272,0,0,1,544,435.421Z" fill="#54ceff"/>
            </g>
            <g id="Grupo_109474" data-name="Grupo 109474">
              <path id="Trazado_117550" data-name="Trazado 117550" d="M526.321,434.584a2.213,2.213,0,1,1-4.4-.447,2.214,2.214,0,0,1,4.4.447Z" fill="#54ceff"/>
            </g>
            <g id="Grupo_109475" data-name="Grupo 109475">
              <path id="Trazado_117551" data-name="Trazado 117551" d="M508.789,432.18a2.231,2.231,0,0,1-2.6,1.778,2.152,2.152,0,0,1-1.752-2.576,2.271,2.271,0,0,1,2.6-1.759A2.19,2.19,0,0,1,508.789,432.18Z" fill="#54ceff"/>
            </g>
            <g id="Grupo_109476" data-name="Grupo 109476">
              <path id="Trazado_117552" data-name="Trazado 117552" d="M491.547,428.2a2.21,2.21,0,0,1-2.748,1.516,2.173,2.173,0,0,1-1.51-2.725,2.253,2.253,0,0,1,2.748-1.515A2.212,2.212,0,0,1,491.547,428.2Z" fill="#54ceff"/>
            </g>
            <g id="Grupo_109477" data-name="Grupo 109477">
              <path id="Trazado_117553" data-name="Trazado 117553" d="M474.738,422.672a2.213,2.213,0,0,1-4.117-1.624,2.213,2.213,0,0,1,4.117,1.624Z" fill="#54ceff"/>
            </g>
            <g id="Grupo_109478" data-name="Grupo 109478">
              <path id="Trazado_117554" data-name="Trazado 117554" d="M458.5,415.63a2.175,2.175,0,0,1-2.965.962,2.208,2.208,0,1,1,1.99-3.942A2.249,2.249,0,0,1,458.5,415.63Z" fill="#54ceff"/>
            </g>
            <g id="Grupo_109479" data-name="Grupo 109479">
              <path id="Trazado_117555" data-name="Trazado 117555" d="M442.974,407.138a2.161,2.161,0,0,1-3.034.678,2.208,2.208,0,1,1,2.341-3.745A2.264,2.264,0,0,1,442.974,407.138Z" fill="#54ceff"/>
            </g>
            <g id="Grupo_109480" data-name="Grupo 109480">
              <path id="Trazado_117556" data-name="Trazado 117556" d="M428.3,397.24a2.162,2.162,0,0,1-3.1.421,2.233,2.233,0,0,1-.4-3.126,2.187,2.187,0,0,1,3.076-.391A2.261,2.261,0,0,1,428.3,397.24Z" fill="#54ceff"/>
            </g>
            <g id="Grupo_109481" data-name="Grupo 109481">
              <path id="Trazado_117557" data-name="Trazado 117557" d="M414.588,386.05a2.217,2.217,0,0,1-3.146.165,2.246,2.246,0,0,1-.113-3.157,2.174,2.174,0,0,1,3.091-.1A2.2,2.2,0,0,1,414.588,386.05Z" fill="#54ceff"/>
            </g>
            <g id="Grupo_109482" data-name="Grupo 109482">
              <path id="Trazado_117558" data-name="Trazado 117558" d="M401.942,373.671a2.246,2.246,0,0,1-3.157-.113,2.208,2.208,0,1,1,3.261-2.978A2.174,2.174,0,0,1,401.942,373.671Z" fill="#54ceff"/>
            </g>
            <g id="Grupo_109483" data-name="Grupo 109483">
              <path id="Trazado_117559" data-name="Trazado 117559" d="M390.465,360.2a2.233,2.233,0,0,1-3.126-.4,2.163,2.163,0,0,1,.42-3.1,2.262,2.262,0,0,1,3.1.426A2.188,2.188,0,0,1,390.465,360.2Z" fill="#54ceff"/>
            </g>
            <g id="Grupo_109484" data-name="Grupo 109484">
              <path id="Trazado_117560" data-name="Trazado 117560" d="M380.251,345.752a2.219,2.219,0,0,1-3.067-.692,2.161,2.161,0,0,1,.678-3.034,2.263,2.263,0,0,1,3.067.693A2.2,2.2,0,0,1,380.251,345.752Z" fill="#54ceff"/>
            </g>
            <g id="Grupo_109485" data-name="Grupo 109485">
              <path id="Trazado_117561" data-name="Trazado 117561" d="M371.388,330.437a2.2,2.2,0,0,1-2.98-.975,2.175,2.175,0,0,1,.962-2.965,2.248,2.248,0,0,1,2.98.975A2.216,2.216,0,0,1,371.388,330.437Z" fill="#54ceff"/>
            </g>
            <g id="Grupo_109486" data-name="Grupo 109486">
              <path id="Trazado_117562" data-name="Trazado 117562" d="M363.952,314.379a2.213,2.213,0,0,1-1.624-4.117,2.213,2.213,0,0,1,1.624,4.117Z" fill="#54ceff"/>
            </g>
            <g id="Grupo_109487" data-name="Grupo 109487">
              <path id="Trazado_117563" data-name="Trazado 117563" d="M358.007,297.711a2.173,2.173,0,0,1-2.725-1.51,2.209,2.209,0,1,1,4.24-1.238A2.253,2.253,0,0,1,358.007,297.711Z" fill="#54ceff"/>
            </g>
            <g id="Grupo_109488" data-name="Grupo 109488">
              <path id="Trazado_117564" data-name="Trazado 117564" d="M353.617,280.564a2.152,2.152,0,0,1-2.575-1.752,2.231,2.231,0,0,1,1.778-2.6,2.19,2.19,0,0,1,2.557,1.756A2.271,2.271,0,0,1,353.617,280.564Z" fill="#54ceff"/>
            </g>
            <g id="Grupo_109489" data-name="Grupo 109489">
              <path id="Trazado_117565" data-name="Trazado 117565" d="M350.863,263.082a2.213,2.213,0,1,1-.447-4.4,2.214,2.214,0,0,1,.447,4.4Z" fill="#54ceff"/>
            </g>
            <g id="Grupo_109490" data-name="Grupo 109490">
              <path id="Trazado_117566" data-name="Trazado 117566" d="M349.691,245.425a2.228,2.228,0,0,1-2.264-2.188A2.154,2.154,0,0,1,349.579,241a2.271,2.271,0,0,1,2.265,2.188A2.195,2.195,0,0,1,349.691,245.425Z" fill="#54ceff"/>
            </g>
          </g>
        </g>
      </g>
    </g>
  </g>
</svg>
