<svg xmlns="http://www.w3.org/2000/svg" width="71.68" height="71.681" viewBox="0 0 71.68 71.681">
  <g id="Grupo_909064" data-name="Grupo 909064" transform="translate(-911.833 -216.354)">
    <g id="Grupo_109521" data-name="Grupo 109521" transform="translate(602.18 86.5)">
      <g id="Grupo_109517" data-name="Grupo 109517">
        <path id="Trazado_117595" data-name="Trazado 117595" d="M345.493,129.854a35.84,35.84,0,1,0,35.84,35.84A35.84,35.84,0,0,0,345.493,129.854Zm0,67.573a31.732,31.732,0,1,1,31.732-31.733A31.732,31.732,0,0,1,345.493,197.427Z" fill="#00feff"/>
      </g>
      <g id="Grupo_109520" data-name="Grupo 109520">
        <g id="Grupo_109519" data-name="Grupo 109519">
          <path id="Trazado_117596" data-name="Trazado 117596" d="M339.439,153.746a5.9,5.9,0,1,1,5.9,5.9A5.9,5.9,0,0,1,339.439,153.746Z" fill="#00feff"/>
          <g id="Grupo_109518" data-name="Grupo 109518">
            <path id="Trazado_117597" data-name="Trazado 117597" d="M355.221,173.215a9.883,9.883,0,0,0-19.765,0v10.8h19.765Z" fill="#00feff"/>
          </g>
        </g>
      </g>
    </g>
  </g>
</svg>
