<svg xmlns="http://www.w3.org/2000/svg" xmlns:xlink="http://www.w3.org/1999/xlink" width="540" height="411" viewBox="0 0 540 411">
  <defs>
    <clipPath id="clip-path">
      <rect id="Rectángulo_302830" data-name="Rectángulo 302830" width="317.971" height="378.51" fill="none"/>
    </clipPath>
    <clipPath id="clip-path-2">
      <rect id="Rectángulo_302838" data-name="Rectángulo 302838" width="143.592" height="208.011" fill="none"/>
    </clipPath>
    <clipPath id="clip-path-3">
      <rect id="Rectángulo_302837" data-name="Rectángulo 302837" width="143.593" height="208.012" fill="none"/>
    </clipPath>
    <clipPath id="clip-path-4">
      <rect id="Rectángulo_302831" data-name="Rectángulo 302831" width="12.67" height="17.805" fill="none"/>
    </clipPath>
    <clipPath id="clip-path-5">
      <rect id="Rectángulo_302832" data-name="Rectángulo 302832" width="12.325" height="7.004" fill="none"/>
    </clipPath>
    <clipPath id="clip-path-6">
      <rect id="Rectángulo_302833" data-name="Rectángulo 302833" width="72.843" height="63.967" fill="none"/>
    </clipPath>
    <clipPath id="clip-path-7">
      <rect id="Rectángulo_302834" data-name="Rectángulo 302834" width="17.937" height="20.406" fill="none"/>
    </clipPath>
    <clipPath id="clip-path-8">
      <rect id="Rectángulo_302835" data-name="Rectángulo 302835" width="18.441" height="58.53" fill="none"/>
    </clipPath>
    <clipPath id="clip-path-9">
      <rect id="Rectángulo_302836" data-name="Rectángulo 302836" width="63.685" height="49" fill="none"/>
    </clipPath>
  </defs>
  <g id="Grupo_909020" data-name="Grupo 909020" transform="translate(-874.333 -126)">
    <g id="Grupo_908997" data-name="Grupo 908997" transform="translate(1035.879 137)">
      <g id="Grupo_908996" data-name="Grupo 908996" clip-path="url(#clip-path)">
        <path id="Trazado_666895" data-name="Trazado 666895" d="M117.815,166.913a6.01,6.01,0,0,1-2.788-.693L77.715,145.246a11.446,11.446,0,0,1-5.827-9.888L71.6,89.987l3.228-.021.288,45.371a8.217,8.217,0,0,0,4.181,7.1l37.269,20.951a2.724,2.724,0,0,0,2.687-.109,2.762,2.762,0,0,0,1.341-2.381V97.754h3.228v63.14a6.025,6.025,0,0,1-6.006,6.018" transform="translate(54.84 85.077)" fill="#b2d3ea"/>
        <path id="Trazado_666897" data-name="Trazado 666897" d="M101.123,139.986a4.856,4.856,0,0,1-2.438-.662l-11.75-7.156a7.345,7.345,0,0,1-3.541-6.216l-.387-32.385,3.228-.037.387,32.383a4.137,4.137,0,0,0,1.994,3.5l11.715,7.135a1.587,1.587,0,0,0,1.615-.019,1.615,1.615,0,0,0,.825-1.426V87.743H106V135.1a4.894,4.894,0,0,1-4.876,4.884" transform="translate(50.469 82.975)" fill="#396caa"/>
        <path id="Trazado_666898" data-name="Trazado 666898" d="M98.689,192.688a6.456,6.456,0,0,1-6.456-6.456V6.454a6.456,6.456,0,0,1,12.911,0V186.232a6.456,6.456,0,0,1-6.456,6.456" transform="translate(33.373)" fill="#396caa"/>
        <path id="Trazado_666899" data-name="Trazado 666899" d="M83.815,133.79a8.746,8.746,0,0,1-4.382-1.187l-20.84-12.032c-6.224-3.594-11.289-12.365-11.289-19.552V53.281h3.228V101.02c0,6.055,4.43,13.729,9.676,16.758l20.838,12.03a5.541,5.541,0,0,0,8.31-4.792l.033-30.055,3.226,0-.031,30.055a8.8,8.8,0,0,1-8.769,8.771" transform="translate(133.316 50.385)" fill="#0b5999"/>
        <path id="Trazado_666900" data-name="Trazado 666900" d="M75.866,121.795A5.839,5.839,0,0,1,72.942,121L58.61,112.539a12.418,12.418,0,0,1-5.685-9.859l0-47.741h3.228l0,47.741a9.324,9.324,0,0,0,4.086,7.072l14.332,8.462a2.621,2.621,0,0,0,3.915-2.315L78.07,88.8l3.228-.051.412,27.1a5.872,5.872,0,0,1-5.845,5.946" transform="translate(133.286 51.954)" fill="#0b5999"/>
        <rect id="Rectángulo_302828" data-name="Rectángulo 302828" width="3.228" height="87.185" transform="translate(155.184 82.84)" fill="#5793ce"/>
        <rect id="Rectángulo_302829" data-name="Rectángulo 302829" width="3.228" height="82.128" transform="translate(167.346 96.001)" fill="#396caa"/>
        <path id="Trazado_666901" data-name="Trazado 666901" d="M71.446,173.188a6.928,6.928,0,0,1-3.578-1.006l-8.847-5.333a7.267,7.267,0,0,1-3.5-6.189V100.185h3.228V160.66a4.018,4.018,0,0,0,1.932,3.422l8.851,5.333a3.706,3.706,0,0,0,5.621-3.125l.249-19.326,3.226.041-.247,19.328a6.968,6.968,0,0,1-6.938,6.855" transform="translate(131.307 94.74)" fill="#b2d3ea"/>
        <path id="Trazado_666902" data-name="Trazado 666902" d="M103.635,55.317,68.287,34.774l.146,51.293,35.349,20.542Z" transform="translate(81.327 32.885)" fill="#5793ce"/>
        <path id="Trazado_666903" data-name="Trazado 666903" d="M107.026,53.293,71.678,32.75l-6.821,3.938L100.2,57.231Z" transform="translate(84.757 30.971)" fill="#616060"/>
        <path id="Trazado_666904" data-name="Trazado 666904" d="M64.782,47.246l.146,51.293,6.82-3.938L71.6,43.308Z" transform="translate(120.181 40.955)" fill="#173d7a"/>
        <path id="Trazado_666905" data-name="Trazado 666905" d="M69.825,33.667c-.045.021,22.7-13.2,22.7-13.2,4.531-2.634,10.806-2.261,17.733,1.737,13.779,7.956,24.9,27.214,24.854,43.032-.023,7.864-2.8,13.4-7.271,16L105.094,94.455c.284-.163.541-.376.811-.564-4.58,3.2-11.188,3.076-18.556-1.177-13.766-7.948-24.883-27.206-24.838-43.04.021-7.884,2.815-13.417,7.314-16.007" transform="translate(61.233 17.767)" fill="#173d7a"/>
        <path id="Trazado_666906" data-name="Trazado 666906" d="M99.2,29c-13.766-7.948-24.957-1.57-25,14.248s11.075,35.092,24.84,43.038,24.969,1.578,25.013-14.256C124.1,56.216,112.984,36.958,99.2,29" transform="translate(49.541 24.192)" fill="#b2d3ea"/>
        <path id="Trazado_666907" data-name="Trazado 666907" d="M76.41,40.146c-.021,8.65,3.829,18.719,9.66,26.9L111.418,81.7c3.938-1.57,6.218-6.111,6.24-12.781.021-7.1-2.582-15.149-6.736-22.313,0-.021-30.683-17.731-30.683-17.731-2.452,2.195-3.808,6.09-3.829,11.275" transform="translate(51.645 27.302)" fill="#fff"/>
        <path id="Trazado_666908" data-name="Trazado 666908" d="M82.336,41.516l25.585,14.771c1.307.755,2.37.142,2.37-1.368V52.163a5.232,5.232,0,0,0-2.37-4.1L82.336,33.288c-1.307-.755-2.37-.144-2.37,1.368v2.757a5.232,5.232,0,0,0,2.37,4.1" transform="translate(52.093 31.173)" fill="#b2d3ea"/>
        <path id="Trazado_666909" data-name="Trazado 666909" d="M83.279,42.407,102.146,53.3V50.745L83.279,39.853Z" transform="translate(53.793 37.687)" fill="#b2d3ea"/>
        <path id="Trazado_666910" data-name="Trazado 666910" d="M84.6,45.079,98.319,53V51.14L84.6,43.221Z" transform="translate(55.044 40.872)" fill="#b2d3ea"/>
        <path id="Trazado_666911" data-name="Trazado 666911" d="M92.735,91.8l-8.958-5.2.117,40.892,8.958,5.207Z" transform="translate(62.119 81.885)" fill="#b2d3ea"/>
        <path id="Trazado_666912" data-name="Trazado 666912" d="M88.954,96.143,85.089,93.9l.1,14.192,3.866,2.247Z" transform="translate(63.361 88.793)" fill="#3c3c3b"/>
        <path id="Trazado_666913" data-name="Trazado 666913" d="M96.591,89.476l-8.958-5.2-7.812,4.51,8.956,5.207Z" transform="translate(66.076 79.692)" fill="#d4ecff"/>
        <path id="Trazado_666914" data-name="Trazado 666914" d="M79.761,91.458l.117,40.894,7.814-4.512-.117-40.894Z" transform="translate(75.092 82.221)" fill="#757575"/>
        <path id="Trazado_666915" data-name="Trazado 666915" d="M85.184,90.448a3.977,3.977,0,0,0,1.8,3.117c.994.574,1.8.109,1.8-1.039a3.977,3.977,0,0,0-1.8-3.117c-.994-.574-1.8-.109-1.8,1.039" transform="translate(63.449 84.318)" fill="#fff"/>
        <path id="Trazado_666916" data-name="Trazado 666916" d="M85.184,106.668a3.977,3.977,0,0,0,1.8,3.117c.994.574,1.8.109,1.8-1.039a3.977,3.977,0,0,0-1.8-3.117c-.994-.574-1.8-.109-1.8,1.039" transform="translate(63.449 99.657)" fill="#fff"/>
        <path id="Trazado_666917" data-name="Trazado 666917" d="M85.266,96.726c.072-.041.142-.076.216-.119l2.85,1.656c-.074.043-.146.078-.216.119a1.279,1.279,0,0,0-.163.111L85.1,96.837a1.278,1.278,0,0,1,.163-.111" transform="translate(64.057 91.357)" fill="#e05a00"/>
        <path id="Trazado_666918" data-name="Trazado 666918" d="M86.233,95.946a1.5,1.5,0,0,1,.43-.395.58.58,0,0,1,.578-.056L90.09,97.15a.577.577,0,0,0-.576.056,1.5,1.5,0,0,0-.43.395c-.377.506-.488,1.134-.247,1.43l1.963,2.343a2.522,2.522,0,0,0,0,2.467.935.935,0,0,0,.257.218l-2.85-1.656a.934.934,0,0,1-.257-.218,2.523,2.523,0,0,1,0-2.467l-1.963-2.343c-.243-.3-.132-.924.245-1.43" transform="translate(59.862 90.254)" fill="#e05a00"/>
        <path id="Trazado_666919" data-name="Trazado 666919" d="M85.907,96.4a1.5,1.5,0,0,0-.43.395c-.377.506-.488,1.134-.245,1.43l1.963,2.343a2.528,2.528,0,0,0,0,2.467c.381.455,1.01.447,1.664.072.078-.047.064-4.547.064-4.547-.074.043-.144.078-.216.119a1.264,1.264,0,0,0-.161.111l-1.955-2.358a.514.514,0,0,0-.681-.031" transform="translate(63.469 91.058)" fill="#ff8521"/>
        <path id="Trazado_666920" data-name="Trazado 666920" d="M87.264,94.82l-8.958-5.2.117,40.892,8.958,5.2Z" transform="translate(78.234 84.745)" fill="#b2d3ea"/>
        <path id="Trazado_666921" data-name="Trazado 666921" d="M83.483,99.168,79.619,96.92l.1,14.192,3.866,2.247Z" transform="translate(79.476 91.653)" fill="#3c3c3b"/>
        <path id="Trazado_666922" data-name="Trazado 666922" d="M91.12,92.5l-8.958-5.2-7.812,4.51,8.956,5.207Z" transform="translate(82.192 82.553)" fill="#d4ecff"/>
        <path id="Trazado_666923" data-name="Trazado 666923" d="M74.29,94.484l.117,40.892,7.814-4.51L82.1,89.972Z" transform="translate(91.207 85.082)" fill="#757575"/>
        <path id="Trazado_666924" data-name="Trazado 666924" d="M79.713,93.473a3.977,3.977,0,0,0,1.8,3.117c.994.574,1.8.109,1.8-1.039a3.977,3.977,0,0,0-1.8-3.117c-.994-.574-1.8-.109-1.8,1.039" transform="translate(79.564 87.179)" fill="#fff"/>
        <path id="Trazado_666925" data-name="Trazado 666925" d="M79.713,109.693a3.977,3.977,0,0,0,1.8,3.117c.994.574,1.8.109,1.8-1.039a3.977,3.977,0,0,0-1.8-3.117c-.994-.574-1.8-.109-1.8,1.039" transform="translate(79.564 102.517)" fill="#fff"/>
        <path id="Trazado_666926" data-name="Trazado 666926" d="M79.827,108.325l2.333-4.487a3,3,0,0,1,.276-2.605,4.246,4.246,0,0,1,1.418-1.6l2.848,1.656a4.241,4.241,0,0,0-1.416,1.6,3,3,0,0,0-.278,2.607l-2.331,4.485c-.278.529-.251,1.062.037,1.23l-2.85-1.656c-.288-.167-.315-.7-.037-1.23" transform="translate(76.332 94.218)" fill="#e05a00"/>
        <path id="Trazado_666927" data-name="Trazado 666927" d="M83.845,100.484a4.246,4.246,0,0,0-1.418,1.6,3,3,0,0,0-.276,2.605l-2.333,4.487c-.29.555-.245,1.113.082,1.251a.611.611,0,0,0,.535-.076,1.654,1.654,0,0,0,.609-.675l2.333-4.485a2.527,2.527,0,0,0,.483-.2Z" transform="translate(79.189 95.023)" fill="#ff8521"/>
        <path id="Trazado_666928" data-name="Trazado 666928" d="M81.9,98.374l-8.958-5.2.117,40.892,8.958,5.2Z" transform="translate(94.04 88.107)" fill="#b2d3ea"/>
        <path id="Trazado_666929" data-name="Trazado 666929" d="M78.117,102.722l-3.864-2.247.1,14.192,3.866,2.247Z" transform="translate(95.283 95.014)" fill="#3c3c3b"/>
        <path id="Trazado_666930" data-name="Trazado 666930" d="M85.754,96.056l-8.958-5.2-7.812,4.51,8.956,5.207Z" transform="translate(97.998 85.914)" fill="#d4ecff"/>
        <path id="Trazado_666931" data-name="Trazado 666931" d="M68.924,98.038l.117,40.892,7.814-4.51-.117-40.894Z" transform="translate(107.014 88.443)" fill="#757575"/>
        <path id="Trazado_666932" data-name="Trazado 666932" d="M74.347,97.027a3.977,3.977,0,0,0,1.8,3.117c.994.574,1.8.109,1.8-1.039a3.977,3.977,0,0,0-1.8-3.117c-.994-.574-1.8-.109-1.8,1.039" transform="translate(95.371 90.54)" fill="#fff"/>
        <path id="Trazado_666933" data-name="Trazado 666933" d="M74.347,113.247a3.977,3.977,0,0,0,1.8,3.117c.994.576,1.8.109,1.8-1.039a3.97,3.97,0,0,0-1.8-3.115c-.994-.576-1.8-.109-1.8,1.037" transform="translate(95.371 105.879)" fill="#fff"/>
        <path id="Trazado_666934" data-name="Trazado 666934" d="M74.427,103.3c.072-.041.142-.076.216-.119l2.85,1.656c-.074.043-.146.078-.216.119a1.279,1.279,0,0,0-.163.111l-2.848-1.656a1.263,1.263,0,0,1,.161-.111" transform="translate(95.981 97.578)" fill="#e05a00"/>
        <path id="Trazado_666935" data-name="Trazado 666935" d="M75.4,102.525a1.5,1.5,0,0,1,.43-.395.58.58,0,0,1,.578-.056l2.848,1.656a.577.577,0,0,0-.576.056,1.5,1.5,0,0,0-.43.395c-.377.506-.488,1.134-.247,1.43l1.963,2.343a2.522,2.522,0,0,0,0,2.467.935.935,0,0,0,.257.218l-2.85-1.656a.934.934,0,0,1-.257-.218,2.523,2.523,0,0,1,0-2.467l-1.963-2.343c-.243-.3-.132-.924.245-1.43" transform="translate(91.784 96.475)" fill="#e05a00"/>
        <path id="Trazado_666936" data-name="Trazado 666936" d="M75.07,102.982a1.5,1.5,0,0,0-.43.395,1.3,1.3,0,0,0-.245,1.43l1.963,2.343a2.528,2.528,0,0,0,0,2.467c.381.455,1.01.447,1.664.072.078-.047.064-4.547.064-4.547-.074.043-.144.078-.216.119a1.265,1.265,0,0,0-.161.111l-1.955-2.358a.512.512,0,0,0-.681-.031" transform="translate(95.391 97.28)" fill="#ff8521"/>
        <path id="Trazado_666937" data-name="Trazado 666937" d="M76.427,101.4l-8.958-5.2.117,40.892,8.958,5.2Z" transform="translate(110.155 90.967)" fill="#b2d3ea"/>
        <path id="Trazado_666938" data-name="Trazado 666938" d="M72.646,105.747,68.782,103.5l.1,14.192,3.866,2.247Z" transform="translate(111.398 97.875)" fill="#3c3c3b"/>
        <path id="Trazado_666939" data-name="Trazado 666939" d="M80.285,99.081l-8.958-5.2-7.814,4.51,8.958,5.207Z" transform="translate(114.111 88.775)" fill="#d4ecff"/>
        <path id="Trazado_666940" data-name="Trazado 666940" d="M63.453,101.063l.117,40.892,7.814-4.51-.117-40.894Z" transform="translate(123.129 91.304)" fill="#173d7a"/>
        <path id="Trazado_666941" data-name="Trazado 666941" d="M68.876,100.053a3.977,3.977,0,0,0,1.8,3.117c.994.574,1.8.109,1.8-1.039a3.977,3.977,0,0,0-1.8-3.117c-.994-.574-1.8-.109-1.8,1.039" transform="translate(111.486 93.4)" fill="#fff"/>
        <path id="Trazado_666942" data-name="Trazado 666942" d="M68.876,116.273a3.977,3.977,0,0,0,1.8,3.117c.994.574,1.8.109,1.8-1.039a3.977,3.977,0,0,0-1.8-3.117c-.994-.574-1.8-.109-1.8,1.039" transform="translate(111.486 108.74)" fill="#fff"/>
        <path id="Trazado_666943" data-name="Trazado 666943" d="M68.991,114.905l2.331-4.487a3,3,0,0,1,.278-2.605,4.246,4.246,0,0,1,1.418-1.6l2.846,1.656a4.254,4.254,0,0,0-1.415,1.6,3,3,0,0,0-.278,2.607l-2.333,4.485c-.276.529-.249,1.062.039,1.23l-2.852-1.656c-.286-.167-.313-.7-.035-1.23" transform="translate(108.253 100.44)" fill="#e05a00"/>
        <path id="Trazado_666944" data-name="Trazado 666944" d="M73.008,107.063a4.246,4.246,0,0,0-1.418,1.6,3,3,0,0,0-.276,2.605l-2.333,4.487c-.29.555-.245,1.113.082,1.251a.611.611,0,0,0,.535-.076,1.666,1.666,0,0,0,.609-.675l2.333-4.485a2.416,2.416,0,0,0,.483-.2Z" transform="translate(111.111 101.245)" fill="#ff8521"/>
        <path id="Trazado_666945" data-name="Trazado 666945" d="M74.086,60.094l-30.7-17.84.212,74.558,30.7,17.84Z" transform="translate(159.251 39.958)" fill="#dadada"/>
        <path id="Trazado_666946" data-name="Trazado 666946" d="M80.35,56.337,49.653,38.5,36.991,45.809l30.7,17.838Z" transform="translate(165.649 36.405)" fill="#5793ce"/>
        <path id="Trazado_666947" data-name="Trazado 666947" d="M36.883,54.976l.212,74.558,12.66-7.31-.21-74.558Z" transform="translate(196.455 45.076)" fill="#396caa"/>
        <path id="Trazado_666948" data-name="Trazado 666948" d="M75.241,86.821l-30.7-17.84.014,4.432,30.7,17.838Z" transform="translate(156.047 65.232)" fill="#ededed"/>
        <path id="Trazado_666949" data-name="Trazado 666949" d="M76.249,86.21l-30.7-17.84-2.058,1.189,30.7,17.84Z" transform="translate(157.098 64.655)" fill="#b2d3ea"/>
        <path id="Trazado_666950" data-name="Trazado 666950" d="M43.488,78.728l.014,4.43,2.057-1.187-.012-4.432Z" transform="translate(187.801 73.325)" fill="#173d7a"/>
        <path id="Trazado_666951" data-name="Trazado 666951" d="M53.552,68.158,45.361,63.4l.019,18.647,8.191,4.761Z" transform="translate(176.143 59.952)" fill="#173d7a"/>
        <path id="Trazado_666952" data-name="Trazado 666952" d="M55.825,66.106l-8.191-4.761.019,7.111,8.191,4.761Z" transform="translate(169.447 58.011)" fill="#ff8521"/>
        <path id="Trazado_666953" data-name="Trazado 666953" d="M57.986,64.794,49.8,60.033l-4.424,2.555,8.193,4.759Z" transform="translate(171.709 56.77)" fill="#ff8521"/>
        <path id="Trazado_666954" data-name="Trazado 666954" d="M45.36,65.033l.019,7.111L49.8,69.592l-.021-7.111Z" transform="translate(179.912 59.085)" fill="#e05a00"/>
        <path id="Trazado_666955" data-name="Trazado 666955" d="M61.293,63.588,53.1,58.827l.019,18.647,8.191,4.761Z" transform="translate(153.339 55.63)" fill="#173d7a"/>
        <path id="Trazado_666956" data-name="Trazado 666956" d="M63.567,70.916l-8.191-4.761.019,7.111,8.191,4.761Z" transform="translate(146.643 62.559)" fill="#ff8521"/>
        <path id="Trazado_666957" data-name="Trazado 666957" d="M65.728,69.6l-8.191-4.761L53.112,67.4l8.193,4.759Z" transform="translate(148.905 61.318)" fill="#ff8521"/>
        <path id="Trazado_666958" data-name="Trazado 666958" d="M53.1,69.842l.019,7.111L57.545,74.4l-.021-7.111Z" transform="translate(157.108 63.633)" fill="#e05a00"/>
        <path id="Trazado_666959" data-name="Trazado 666959" d="M75.241,70.654l-30.7-17.84.014,4.432,30.7,17.838Z" transform="translate(156.047 49.944)" fill="#ededed"/>
        <path id="Trazado_666960" data-name="Trazado 666960" d="M76.249,70.043,45.552,52.2l-2.058,1.189,30.7,17.84Z" transform="translate(157.098 49.366)" fill="#b2d3ea"/>
        <path id="Trazado_666961" data-name="Trazado 666961" d="M43.488,62.561l.014,4.43L45.558,65.8l-.012-4.432Z" transform="translate(187.801 58.037)" fill="#173d7a"/>
        <path id="Trazado_666962" data-name="Trazado 666962" d="M46.176,53.9a5.965,5.965,0,0,0,2.7,4.677c1.492.862,2.7.163,2.7-1.558a5.962,5.962,0,0,0-2.7-4.677c-1.492-.862-2.7-.163-2.7,1.558" transform="translate(176.551 49.149)" fill="#fff"/>
        <path id="Trazado_666963" data-name="Trazado 666963" d="M54.08,49.249a5.965,5.965,0,0,0,2.7,4.677c1.492.862,2.7.163,2.7-1.558a5.962,5.962,0,0,0-2.7-4.677c-1.492-.862-2.7-.163-2.7,1.558" transform="translate(153.269 44.75)" fill="#fff"/>
        <path id="Trazado_666964" data-name="Trazado 666964" d="M46.176,83.4a5.965,5.965,0,0,0,2.7,4.677c1.492.862,2.7.163,2.7-1.558a5.965,5.965,0,0,0-2.7-4.677c-1.492-.862-2.7-.163-2.7,1.558" transform="translate(176.551 77.041)" fill="#fff"/>
        <path id="Trazado_666965" data-name="Trazado 666965" d="M54.08,78.744a5.965,5.965,0,0,0,2.7,4.677c1.492.862,2.7.163,2.7-1.558a5.962,5.962,0,0,0-2.7-4.677c-1.492-.862-2.7-.163-2.7,1.558" transform="translate(153.269 72.642)" fill="#fff"/>
        <path id="Trazado_666966" data-name="Trazado 666966" d="M72.413,114.557,49.68,101.346l.156,55.216,22.733,13.211Z" transform="translate(148.741 95.839)" fill="#fff"/>
        <path id="Trazado_666967" data-name="Trazado 666967" d="M66.015,113.4,51.9,105.2l.128,45.244,14.112,8.2Z" transform="translate(150.843 99.48)" fill="#bcbcbc"/>
        <path id="Trazado_666968" data-name="Trazado 666968" d="M77.052,111.775,54.319,98.564l-9.378,5.413,22.735,13.213Z" transform="translate(153.479 93.207)" fill="#5793ce"/>
        <path id="Trazado_666969" data-name="Trazado 666969" d="M44.86,110.768l.156,55.216,9.378-5.413-.158-55.218Z" transform="translate(176.294 99.628)" fill="#396caa"/>
        <path id="Trazado_666970" data-name="Trazado 666970" d="M68.5,116.006l-16.458-9.565.006,2.376L68.5,118.381Z" transform="translate(148.212 100.656)" fill="#ededed"/>
        <path id="Trazado_666971" data-name="Trazado 666971" d="M69.038,115.678,52.58,106.113l-1.1.636,16.458,9.565Z" transform="translate(148.776 100.347)" fill="#fff"/>
        <path id="Trazado_666972" data-name="Trazado 666972" d="M51.473,111.666l.006,2.376,1.105-.636-.008-2.376Z" transform="translate(165.239 104.996)" fill="#757575"/>
        <path id="Trazado_666973" data-name="Trazado 666973" d="M68.5,118.955,52.041,109.39l.006,2.376L68.5,121.33Z" transform="translate(148.212 103.445)" fill="#ededed"/>
        <path id="Trazado_666974" data-name="Trazado 666974" d="M69.038,118.627,52.58,109.062l-1.1.636,16.458,9.565Z" transform="translate(148.776 103.136)" fill="#fff"/>
        <path id="Trazado_666975" data-name="Trazado 666975" d="M51.473,114.615l.006,2.376,1.105-.636-.008-2.376Z" transform="translate(165.239 107.785)" fill="#757575"/>
        <path id="Trazado_666976" data-name="Trazado 666976" d="M68.5,121.9l-16.458-9.565.006,2.376L68.5,124.279Z" transform="translate(148.212 106.234)" fill="#ededed"/>
        <path id="Trazado_666977" data-name="Trazado 666977" d="M69.038,121.576,52.58,112.011l-1.1.636,16.458,9.565Z" transform="translate(148.776 105.924)" fill="#fff"/>
        <path id="Trazado_666978" data-name="Trazado 666978" d="M51.473,117.564l.006,2.376,1.105-.636-.008-2.376Z" transform="translate(165.239 110.574)" fill="#757575"/>
        <path id="Trazado_666979" data-name="Trazado 666979" d="M68.5,124.853l-16.458-9.565.006,2.376L68.5,127.228Z" transform="translate(148.212 109.023)" fill="#ededed"/>
        <path id="Trazado_666980" data-name="Trazado 666980" d="M69.038,124.525,52.58,114.961l-1.1.636,16.458,9.565Z" transform="translate(148.776 108.713)" fill="#fff"/>
        <path id="Trazado_666981" data-name="Trazado 666981" d="M51.473,120.513l.006,2.376,1.105-.636-.008-2.376Z" transform="translate(165.239 113.362)" fill="#757575"/>
        <path id="Trazado_666982" data-name="Trazado 666982" d="M68.5,127.8l-16.458-9.565.006,2.376L68.5,130.177Z" transform="translate(148.212 111.811)" fill="#ededed"/>
        <path id="Trazado_666983" data-name="Trazado 666983" d="M69.038,127.474,52.58,117.91l-1.1.636,16.458,9.565Z" transform="translate(148.776 111.502)" fill="#fff"/>
        <path id="Trazado_666984" data-name="Trazado 666984" d="M51.473,123.462l.006,2.376,1.105-.636-.008-2.376Z" transform="translate(165.239 116.151)" fill="#757575"/>
        <path id="Trazado_666985" data-name="Trazado 666985" d="M68.5,130.751l-16.458-9.565.006,2.376L68.5,133.127Z" transform="translate(148.212 114.6)" fill="#ededed"/>
        <path id="Trazado_666986" data-name="Trazado 666986" d="M69.038,130.424,52.58,120.859l-1.1.636,16.458,9.565Z" transform="translate(148.776 114.291)" fill="#fff"/>
        <path id="Trazado_666987" data-name="Trazado 666987" d="M51.473,126.411l.006,2.376,1.105-.636-.008-2.376Z" transform="translate(165.239 118.94)" fill="#757575"/>
        <path id="Trazado_666988" data-name="Trazado 666988" d="M68.5,133.7l-16.458-9.565.006,2.376L68.5,136.076Z" transform="translate(148.212 117.389)" fill="#ededed"/>
        <path id="Trazado_666989" data-name="Trazado 666989" d="M69.038,133.373,52.58,123.808l-1.1.636,16.458,9.565Z" transform="translate(148.776 117.079)" fill="#fff"/>
        <path id="Trazado_666990" data-name="Trazado 666990" d="M51.473,129.36l.006,2.376,1.105-.636-.008-2.376Z" transform="translate(165.239 121.729)" fill="#757575"/>
        <path id="Trazado_666991" data-name="Trazado 666991" d="M68.5,136.649l-16.458-9.565.006,2.376L68.5,139.025Z" transform="translate(148.212 120.178)" fill="#ededed"/>
        <path id="Trazado_666992" data-name="Trazado 666992" d="M69.038,136.322,52.58,126.757l-1.1.636,16.458,9.565Z" transform="translate(148.776 119.868)" fill="#fff"/>
        <path id="Trazado_666993" data-name="Trazado 666993" d="M51.473,132.309l.006,2.376,1.105-.636-.008-2.376Z" transform="translate(165.239 124.517)" fill="#757575"/>
        <path id="Trazado_666994" data-name="Trazado 666994" d="M51.272,72.722a6.454,6.454,0,0,1-6.456-6.456V26.624a6.456,6.456,0,1,1,12.911,0V66.266a6.454,6.454,0,0,1-6.456,6.456" transform="translate(173.047 19.072)" fill="#b2d3ea"/>
        <path id="Trazado_666995" data-name="Trazado 666995" d="M62.8,153.387,6.643,185.808a2.961,2.961,0,0,0-1.426,3.9,2.961,2.961,0,0,0,4.117.761l56.154-32.42c1.63-1.385-1.072-5.354-2.691-4.662" transform="translate(242.422 144.975)" fill="#fff"/>
        <path id="Trazado_666996" data-name="Trazado 666996" d="M49.818,177.753a4.291,4.291,0,0,1-.942,2.946,2.753,2.753,0,0,1-.438.389c-.053.035-.317.181-.317.181l-8.294,4.788a3.975,3.975,0,0,0,1.255-3.238,11.758,11.758,0,0,0-5.317-9.211,3.834,3.834,0,0,0-3.6-.449c-.021-.012,8.349-4.843,8.349-4.843l.477-.27a1.869,1.869,0,0,1,.4-.142,4.191,4.191,0,0,1,3.1.634,11.759,11.759,0,0,1,5.319,9.215" transform="translate(205.563 158.694)" fill="#b2d3ea"/>
        <path id="Trazado_666997" data-name="Trazado 666997" d="M74.47,170.65,41.122,189.9a11.72,11.72,0,0,0-4.29,16.009l.119.2a11.717,11.717,0,0,0,16.009,4.29l33.349-19.252a11.721,11.721,0,0,0,4.29-16.011l-.119-.2a11.72,11.72,0,0,0-16.009-4.29" transform="translate(157.197 159.89)" fill="#173d7a"/>
        <path id="Trazado_666998" data-name="Trazado 666998" d="M41.529,170.036c-3.512-2.027-6.36-.383-6.36,3.671a14.059,14.059,0,0,0,6.36,11.016c3.514,2.029,6.36.385,6.36-3.671a14.059,14.059,0,0,0-6.36-11.016" transform="translate(201.654 159.974)" fill="#b2d3ea"/>
        <path id="Trazado_666999" data-name="Trazado 666999" d="M71.513,175.582l-33.43,19.3a4.358,4.358,0,0,0-1.969,3.413v.235c0,1.257.881,1.767,1.971,1.138l33.428-19.3a4.36,4.36,0,0,0,1.971-3.415v-.233c0-1.257-.883-1.767-1.971-1.138" transform="translate(174.221 165.785)" fill="#5793ce"/>
        <path id="Trazado_667000" data-name="Trazado 667000" d="M73.652,170.158l-33.428,19.3a1.2,1.2,0,0,0,0,2.275l.2.119a4.357,4.357,0,0,0,3.942,0l33.428-19.3a1.2,1.2,0,0,0,0-2.274l-.2-.119a4.352,4.352,0,0,0-3.94,0" transform="translate(162.687 160.465)" fill="#5793ce"/>
        <path id="Trazado_667001" data-name="Trazado 667001" d="M72.635,172.281,37.97,192.043a1.77,1.77,0,0,0-.44,2.56l.113.175a2.051,2.051,0,0,0,2.625.854l34.666-19.764a1.768,1.768,0,0,0,.44-2.559l-.113-.175a2.05,2.05,0,0,0-2.625-.854" transform="translate(169.908 162.728)" fill="#5793ce"/>
        <path id="Trazado_667002" data-name="Trazado 667002" d="M0,159.806l3.255,1.88,8.629-3.154,5.306-5.491-3.255-1.88-8.471,3.662Z" transform="translate(300.782 142.947)" fill="#dadada"/>
        <path id="Trazado_667003" data-name="Trazado 667003" d="M.942,158.359c-2.309,2.053-.047,3.185,3.255,1.88l8.629-3.154,5.487-4.043-3.255-1.88-8.652,2.214Z" transform="translate(299.658 142.947)" fill="#b2d3ea"/>
        <path id="Trazado_667004" data-name="Trazado 667004" d="M94.786,94.016,76.04,104.91l-.642,8.835-.206,73.2,63.687,36.771,7.958,3.837,18.746-10.894.232-81.636Z" transform="translate(5.86 88.907)" fill="#b2b2b2"/>
        <path id="Trazado_667005" data-name="Trazado 667005" d="M152.824,140.927l-.208,73.2L88.928,177.359l.206-73.2Z" transform="translate(-7.876 98.496)" fill="#fff"/>
        <path id="Trazado_667006" data-name="Trazado 667006" d="M75.191,104.91,93.938,94.017l71.028,41.009-18.746,10.894Z" transform="translate(6.709 88.907)" fill="#d4ecff"/>
        <path id="Trazado_667007" data-name="Trazado 667007" d="M75.423,125.987l18.746-10.894-.232,81.636L75.191,207.623Z" transform="translate(77.506 108.839)" fill="#5793ce"/>
        <path id="Trazado_667008" data-name="Trazado 667008" d="M84.826,108.449l.642-8.833L156.5,140.623l-7.981,4.6Z" transform="translate(-3.567 94.202)" fill="#b2d3ea"/>
        <path id="Trazado_667009" data-name="Trazado 667009" d="M85.034,125.289l7.981-4.6-.232,81.636-7.958-3.837Z" transform="translate(59.913 114.133)" fill="#173d7a"/>
        <path id="Trazado_667010" data-name="Trazado 667010" d="M135.125,154.949c0,12.779-8.971,17.958-20.038,11.569S95.05,144.59,95.05,131.813s8.971-17.958,20.038-11.569,20.036,21.926,20.036,34.7" transform="translate(-2.089 111.121)" fill="#fff"/>
        <path id="Trazado_667011" data-name="Trazado 667011" d="M138.009,155.892c0-13.376-9.425-29.7-21.005-36.388a20,20,0,0,0-9.917-2.994c-7.917,0-13.034,6.374-13.034,16.244,0,13.376,9.427,29.7,21.011,36.386a19.987,19.987,0,0,0,9.919,3c7.915,0,13.026-6.376,13.026-16.244m-22.945-33.028c10.512,6.072,19.064,20.887,19.064,33.028,0,7.625-3.5,12.363-9.145,12.363A16.441,16.441,0,0,1,117,165.78c-10.516-6.07-19.067-20.885-19.067-33.026,0-7.627,3.5-12.365,9.15-12.365a16.441,16.441,0,0,1,7.977,2.475" transform="translate(-3.033 110.178)" fill="#b2d3ea"/>
        <path id="Trazado_667012" data-name="Trazado 667012" d="M114.733,132.624c0,2.237-1.57,3.144-3.508,2.025a7.753,7.753,0,0,1-3.508-6.076c0-2.238,1.57-3.144,3.508-2.025a7.753,7.753,0,0,1,3.508,6.076" transform="translate(-6.343 119.218)" fill="#5793ce"/>
        <path id="Trazado_667013" data-name="Trazado 667013" d="M106.39,137.44c0,2.238-1.57,3.144-3.508,2.025a7.753,7.753,0,0,1-3.508-6.076c0-2.237,1.57-3.144,3.508-2.025a7.753,7.753,0,0,1,3.508,6.076" transform="translate(18.233 123.772)" fill="#5793ce"/>
        <path id="Trazado_667014" data-name="Trazado 667014" d="M118.1,157.881l16.857-9.732a1.741,1.741,0,0,0,.726-1.605,5.475,5.475,0,0,0-2.479-4.292,1.74,1.74,0,0,0-1.751-.173L114.6,151.81Z" transform="translate(-40.688 134.201)" fill="#173d7a"/>
        <path id="Trazado_667015" data-name="Trazado 667015" d="M123.265,148.685c0-1.58,1.109-2.222,2.481-1.43a5.478,5.478,0,0,1,2.475,4.29c0,1.582-1.109,2.222-2.475,1.432a5.472,5.472,0,0,1-2.481-4.292" transform="translate(-50.081 138.932)" fill="#878787"/>
        <path id="Trazado_667016" data-name="Trazado 667016" d="M127.436,151.869l16.857-9.732a1.741,1.741,0,0,0,.726-1.605,5.479,5.479,0,0,0-2.477-4.292,1.743,1.743,0,0,0-1.753-.173L123.932,145.8Z" transform="translate(-68.177 128.516)" fill="#173d7a"/>
        <path id="Trazado_667017" data-name="Trazado 667017" d="M132.6,142.673c0-1.58,1.109-2.222,2.479-1.43a5.475,5.475,0,0,1,2.477,4.29c0,1.582-1.109,2.222-2.477,1.432a5.475,5.475,0,0,1-2.479-4.292" transform="translate(-77.567 133.246)" fill="#878787"/>
        <path id="Trazado_667018" data-name="Trazado 667018" d="M125.067,164.578l8.045,4.644c6.119,3.533,16.042,3.533,22.161,0l13.54-7.816-30.206-17.441-13.54,7.818c-6.119,3.533-6.119,9.261,0,12.795" transform="translate(-85.251 136.142)" fill="#396caa"/>
        <path id="Trazado_667019" data-name="Trazado 667019" d="M120.478,156.837l48.336,3.487V148.6l-48.336-3.487Z" transform="translate(-85.252 137.224)" fill="#396caa"/>
        <path id="Trazado_667020" data-name="Trazado 667020" d="M125.067,158.55l8.045,4.644c6.119,3.535,16.042,3.535,22.161,0l13.54-7.816-30.206-17.441-13.54,7.818c-6.119,3.533-6.119,9.261,0,12.795" transform="translate(-85.251 130.442)" fill="#b2d3ea"/>
        <path id="Trazado_667021" data-name="Trazado 667021" d="M126.37,142.453l17.688,10.213a2.988,2.988,0,0,0,2.706,0c.776-.448.776-1.148.027-1.578L129.1,140.875a2.988,2.988,0,0,0-2.706,0c-.774.446-.774,1.146-.027,1.578" transform="translate(-74.168 132.913)" fill="#5793ce"/>
        <path id="Trazado_667022" data-name="Trazado 667022" d="M128.729,143.815l17.688,10.213a2.988,2.988,0,0,0,2.706,0c.776-.448.776-1.148.029-1.578l-17.69-10.213a2.988,2.988,0,0,0-2.706,0c-.774.447-.774,1.146-.027,1.578" transform="translate(-81.117 134.201)" fill="#5793ce"/>
        <path id="Trazado_667023" data-name="Trazado 667023" d="M131.088,145.177l17.688,10.213a2.988,2.988,0,0,0,2.706,0c.776-.447.776-1.148.027-1.578L133.822,143.6a2.988,2.988,0,0,0-2.706,0c-.774.447-.774,1.146-.027,1.578" transform="translate(-88.066 135.489)" fill="#5793ce"/>
        <path id="Trazado_667024" data-name="Trazado 667024" d="M138.946,152.75a8.108,8.108,0,0,0,3.67,6.356c2.027,1.169,3.669.222,3.669-2.119a8.108,8.108,0,0,0-3.669-6.356c-2.027-1.171-3.67-.222-3.67,2.119" transform="translate(-98.655 141.97)" fill="#575756"/>
        <path id="Trazado_667025" data-name="Trazado 667025" d="M139.323,153.011a8.111,8.111,0,0,0,3.669,6.356c2.027,1.169,3.67.222,3.67-2.119a8.108,8.108,0,0,0-3.67-6.356c-2.025-1.171-3.669-.222-3.669,2.119" transform="translate(-99.766 142.217)" fill="#ededed"/>
        <path id="Trazado_667026" data-name="Trazado 667026" d="M243.464,235.262a3.813,3.813,0,0,1-1.3-.226l-49.42-17.595a23.633,23.633,0,0,0-18.367,1.1l-26.43,13.151a31.2,31.2,0,0,1-26.646.576L93.287,219.807A31.384,31.384,0,0,1,74.908,194.7l-.035-.352a31.437,31.437,0,0,1,16.816-31.3l21.727-11.137a3.88,3.88,0,1,1,3.541,6.905L95.232,169.95a23.636,23.636,0,0,0-12.645,23.542l.035.354a23.6,23.6,0,0,0,13.816,18.873l28.014,12.462a23.471,23.471,0,0,0,20.038-.436L170.916,211.6a31.426,31.426,0,0,1,24.426-1.465l49.424,17.595a3.881,3.881,0,0,1-1.3,7.536" transform="translate(-74.68 143.248)" fill="#396caa"/>
        <path id="Trazado_667027" data-name="Trazado 667027" d="M32.273,143.319a10.838,10.838,0,0,1,8.5-.909q-.009-2.808-.016-5.613l0-.743a10.838,10.838,0,0,0-8.5.911l.018,6.354" transform="translate(214.439 128.191)" fill="#dadada"/>
        <path id="Trazado_667028" data-name="Trazado 667028" d="M36.643,143.021c.193-.136.395-.263.6-.383l-.018-6.356.018,6.347-.018-6.347c-.208.121-.411.249-.6.383q.009,3.172.019,6.343-.012-3.172-.019-6.343Z" transform="translate(209.465 128.875)" fill="#dadada"/>
        <path id="Trazado_667029" data-name="Trazado 667029" d="M36.954,145.927a4.02,4.02,0,0,1,2.023-3.094l-.018-6.354a4.012,4.012,0,0,0-2.023,3.094c.006,1.907.012,4.448.018,6.355" transform="translate(207.129 129.062)" fill="#dadada"/>
        <path id="Trazado_667030" data-name="Trazado 667030" d="M37.2,138.068l.018,6.355a2.766,2.766,0,0,0,1.518,2.333l-.018-6.356a2.757,2.757,0,0,1-1.518-2.331" transform="translate(206.869 130.565)" fill="#575756"/>
        <path id="Trazado_667031" data-name="Trazado 667031" d="M26.945,148.182l.018,6.354,23.009-16.075-.018-6.354Z" transform="translate(215.572 124.927)" fill="#9d9d9c"/>
        <path id="Trazado_667032" data-name="Trazado 667032" d="M45.176,139.155l.018,6.354,1.6,1.38-.018-6.355Z" transform="translate(183.281 131.592)" fill="#dadada"/>
        <path id="Trazado_667033" data-name="Trazado 667033" d="M38.789,146.737a18.576,18.576,0,0,1,12.822.732q-.009-2.808-.016-5.613l0-.741a18.576,18.576,0,0,0-12.822-.732c0,1.907.012,4.448.018,6.355" transform="translate(190.925 131.995)" fill="#dadada"/>
        <path id="Trazado_667034" data-name="Trazado 667034" d="M28.553,147.954l-.36.251a18.576,18.576,0,0,1,12.822.732l23.009-16.075-3.247-1.553L41.93,137.356l-14.976,9.219Zm25.14-7.88-9.613,6.718c-2.185-1.327-2-3.666.508-5.424.193-.136.395-.265.6-.385a10.838,10.838,0,0,1,8.5-.909" transform="translate(201.503 124.173)" fill="#dadada"/>
        <path id="Trazado_667035" data-name="Trazado 667035" d="M31.685,135.842l1.029-1.109.018,6.354L31.7,142.2l-9.1,9.915-.018-6.354Z" transform="translate(241.288 127.411)" fill="#b2b2b2"/>
        <path id="Trazado_667036" data-name="Trazado 667036" d="M42.18,144.2l-.018-6.354c0,1.105-.852,2.288-2.467,3.222-.165.093-.337.187-.516.274-2.985,1.485-7.035,1.632-9.339.385l.018,6.356c2.306,1.247,6.355,1.1,9.339-.385.181-.09.352-.181.516-.276,1.615-.934,2.471-2.115,2.467-3.222" transform="translate(217.73 130.357)" fill="#575756"/>
        <path id="Trazado_667037" data-name="Trazado 667037" d="M47.961,150.768a4.5,4.5,0,0,1,1.07-2.831l-.018-6.355a4.49,4.49,0,0,0-1.07,2.831c0,1.907.012,4.448.018,6.355" transform="translate(175.659 133.889)" fill="#b2b2b2"/>
        <path id="Trazado_667038" data-name="Trazado 667038" d="M37.29,145.13l.018,6.354,1.1-.543-.018-6.356Z" transform="translate(207.011 136.728)" fill="#b2b2b2"/>
        <path id="Trazado_667039" data-name="Trazado 667039" d="M37.854,143.84l.018,6.354,2.954,2-.019-6.356Z" transform="translate(203.494 136.023)" fill="#b2b2b2"/>
        <path id="Trazado_667040" data-name="Trazado 667040" d="M34.119,137.348c.193-.136.395-.265.605-.385a10.841,10.841,0,0,1,8.5-.909,11.9,11.9,0,0,1-.01,5.613c-.467,1.127-3.882,3.308-5.578,4.043-1.414.611-3.275-1.165-4.024-2.936-2.187-1.329-2-3.668.506-5.426" transform="translate(211.969 128.191)" fill="#575756"/>
        <path id="Trazado_667041" data-name="Trazado 667041" d="M27.793,149.232l.018,6.355,15.659-8.833-.018-6.354Z" transform="translate(220.426 132.769)" fill="#9d9d9c"/>
        <path id="Trazado_667042" data-name="Trazado 667042" d="M22.6,149.176c1.718,1.16,2.107,2.794,1.037,4.173l2.952,1.994,1.1-.543.434-.216,2.385.9,15.659-8.833,9.1-9.915,1.027-1.109-2.738-1.846-12.277,6.105c1.65,1.438,1,3.543-1.56,5.024-.163.093-.337.185-.516.274-2.985,1.483-7.034,1.632-9.339.385l-3.664,1.815Z" transform="translate(217.713 126.514)" fill="#dadada"/>
        <path id="Trazado_667043" data-name="Trazado 667043" d="M41.08,142.146c-.152.088-.3.179-.438.276-2.391,1.679-2.008,4.162.891,5.547a10.7,10.7,0,0,0,9.121-.243c.156-.09.305-.185.447-.286a4.419,4.419,0,0,0,.983-.909c1.07-1.378.681-3.014-1.037-4.171a6.471,6.471,0,0,0-.817-.465,10.726,10.726,0,0,0-9.15.251" transform="translate(189.264 133.33)" fill="#b2b2b2"/>
        <path id="Trazado_667044" data-name="Trazado 667044" d="M37.717,146.671a8.756,8.756,0,0,0,.889.685,11.947,11.947,0,0,0,2.6,1.3,19.077,19.077,0,0,0,11.188.356,14.365,14.365,0,0,0,2.5-.948c.224-.113.438-.228.644-.346a8.461,8.461,0,0,0,2.111-1.669l.434-.216,2.385.9.018,6.356-2.385-.9-.434.214a8.438,8.438,0,0,1-2.111,1.671c-.2.119-.42.233-.644.344a14.368,14.368,0,0,1-2.5.949,19.092,19.092,0,0,1-11.188-.356,11.947,11.947,0,0,1-2.6-1.3,8.993,8.993,0,0,1-.889-.687,4.9,4.9,0,0,1-1.874-3.633l-.019-6.356a4.907,4.907,0,0,0,1.876,3.634" transform="translate(187.76 135.264)" fill="#706f6f"/>
        <path id="Trazado_667045" data-name="Trazado 667045" d="M40.7,141.546a8.2,8.2,0,0,0-2.333,1.93c-1.638,2.055-1.413,4.508.805,6.465a8.983,8.983,0,0,0,.889.685,11.947,11.947,0,0,0,2.6,1.3,19.083,19.083,0,0,0,11.189.356,14.253,14.253,0,0,0,2.494-.949c.224-.111.44-.226.644-.344a8.478,8.478,0,0,0,2.111-1.669l-1.1.543-2.952-1.994a4.5,4.5,0,0,1-.981.909c-.144.1-.294.195-.449.284a10.693,10.693,0,0,1-9.119.245c-2.9-1.387-3.282-3.87-.891-5.547.138-.1.284-.191.436-.278a10.731,10.731,0,0,1,9.152-.251,6.581,6.581,0,0,1,.815.465l3.6-1.788a11.053,11.053,0,0,0-1.389-.792,18.576,18.576,0,0,0-12.822-.732,13.86,13.86,0,0,0-2.047.817c-.224.113-.44.228-.646.346" transform="translate(186.302 131.995)" fill="#dadada"/>
        <path id="Trazado_667046" data-name="Trazado 667046" d="M53.018,142.327c.434,1.78-.663,3.035-3.033,4.4-.706.407-1.523.825-2.446,1.269l2.683,4.535,8.357-3.858c-2.218-1.959-2.446-4.411-.805-6.465l-1.918-1.294Z" transform="translate(166.898 133.26)" fill="#b2b2b2"/>
        <path id="Trazado_667047" data-name="Trazado 667047" d="M50.213,149.093l8.357-3.858.018,6.355-8.357,3.858-2.683-4.533-.018-6.356Z" transform="translate(166.907 136.702)" fill="#706f6f"/>
        <path id="Trazado_667048" data-name="Trazado 667048" d="M38.824,148.34l.018,6.355,2.4-1.671-.018-6.356Z" transform="translate(201.191 138.696)" fill="#9d9d9c"/>
        <path id="Trazado_667049" data-name="Trazado 667049" d="M45.353,145.926l-6.52,4.907,7.892,1.473a28.023,28.023,0,0,1,2.448-1.621,11.663,11.663,0,0,1,7.234-1.644l2.4-1.673-2.265-1.086a19.1,19.1,0,0,1-11.189-.356" transform="translate(183.608 137.996)" fill="#b2b2b2"/>
        <path id="Trazado_667050" data-name="Trazado 667050" d="M45.034,148.448l.018,6.355,7.892,1.473-.019-6.356Z" transform="translate(177.407 140.381)" fill="#706f6f"/>
        <path id="Trazado_667051" data-name="Trazado 667051" d="M40.058,150.813l.018,6.354a29.032,29.032,0,0,1,2.448-1.619,11.656,11.656,0,0,1,7.236-1.646l-.018-6.355a11.656,11.656,0,0,0-7.236,1.646,27.965,27.965,0,0,0-2.448,1.619" transform="translate(190.273 139.488)" fill="#878787"/>
        <path id="Trazado_667052" data-name="Trazado 667052" d="M40.588,186.212a1.605,1.605,0,0,1,.459-1.191l1.428-1.582a84.905,84.905,0,0,1,22.809-18.532c15.112-8.724,34.183-15,55.27-17.964a7.823,7.823,0,0,0,2.778-.9c1.346-.778,2.023-1.911,1.611-3.222-.058-.173.041-.344.292-.508a1.305,1.305,0,0,1,.455-.142l1.788-.218a1.541,1.541,0,0,1,.663.062.689.689,0,0,1,.475.368l.1.265a2.5,2.5,0,0,0,1.56,1.335,6.02,6.02,0,0,0,2.738.286l.755-.091a2.1,2.1,0,0,1,1.012.1.889.889,0,0,1,.582.488l.889,2.467,1.387,3.874.025,8.534c.2-.59.4-1.179.572-1.774.113-.558.175-1.076.288-1.609a5.39,5.39,0,0,1,2.527-3.214l6.714.741,4.263.473a1.53,1.53,0,0,1,.862.327.512.512,0,0,1,.185.58l-.14.449a1.444,1.444,0,0,0,.547,1.574,4.331,4.331,0,0,0,2.327.879l.455.058a.967.967,0,0,1,.634.265.348.348,0,0,1,.126.385.349.349,0,0,0,.018-.105l.029,10.168a.339.339,0,0,1-.018.105l-.344,1.033c-.033.105-.115.2-.319.311a1.4,1.4,0,0,1-.784.132l-.278-.023a8.942,8.942,0,0,0-5.172.963,3.576,3.576,0,0,0-1.611,1.681c-4.93,12.725-16.042,24.251-31.734,33.31A137.145,137.145,0,0,1,86.9,218.882l-2.7.85c-1.94.615-4.319.247-5.3-.823l-1.284-1.356L76,215.817a1.456,1.456,0,0,1-.438-1l-.029-10.168a2,2,0,0,1,1.181-1.621,4.94,4.94,0,0,1,.951-.411l7.753-2.448a1.807,1.807,0,0,1,.844-.053,1.2,1.2,0,0,1,.642.305.827.827,0,0,0,.475.218,1.322,1.322,0,0,0,.586-.041,118.274,118.274,0,0,0,20.507-9.234c14-8.08,23.928-18.349,28.469-29.778a14.945,14.945,0,0,1-4.767,1.195c-.924.086-1.808.126-3.018.23-21.268,2.267-40.563,8.234-55.535,16.877A81.915,81.915,0,0,0,57.4,191.965l.006,2.041a.43.43,0,0,1-.128.3L53.19,198.84a3.136,3.136,0,0,1-.753.593,6,6,0,0,1-4.452.44l-3.022-.913-2.378-.714c-1.271-.376-1.985-1.138-1.987-1.942l-.029-10.168c0,.027.016.051.018.076" transform="translate(81.965 134.224)" fill="#173d7a"/>
        <path id="Trazado_667053" data-name="Trazado 667053" d="M106.105,147.644a5.4,5.4,0,0,0-2.529,3.212c-.111.535-.173,1.053-.286,1.611-3.722,12.923-14.264,24.554-29.765,33.5a118.272,118.272,0,0,1-20.507,9.236,1.351,1.351,0,0,1-.586.041.821.821,0,0,1-.475-.218,1.2,1.2,0,0,0-.644-.305,1.775,1.775,0,0,0-.842.053l-7.753,2.448a4.774,4.774,0,0,0-.951.411c-1.2.693-1.555,1.753-.743,2.619l1.617,1.736,1.282,1.356c.986,1.07,3.366,1.438,5.306.823l2.7-.852a137.089,137.089,0,0,0,29.907-12.532c15.692-9.059,26.8-20.587,31.734-33.31a3.588,3.588,0,0,1,1.611-1.683,8.958,8.958,0,0,1,5.172-.961l.278.021a1.4,1.4,0,0,0,.784-.13c.2-.113.286-.206.319-.311l.344-1.035a.353.353,0,0,0-.126-.385.967.967,0,0,0-.634-.265l-.457-.056a4.346,4.346,0,0,1-2.325-.879,1.447,1.447,0,0,1-.549-1.576l.142-.448a.517.517,0,0,0-.185-.58,1.551,1.551,0,0,0-.862-.329l-4.263-.471Z" transform="translate(116.91 139.62)" fill="#396caa"/>
        <path id="Trazado_667054" data-name="Trazado 667054" d="M75.272,164.907A84.905,84.905,0,0,0,52.463,183.44l-1.428,1.582c-1.02,1.127-.352,2.506,1.51,3.057l2.378.714,3.022.913a5.987,5.987,0,0,0,4.452-.442,3.13,3.13,0,0,0,.753-.591l4.084-4.535a.41.41,0,0,0,.084-.483.944.944,0,0,0-.545-.374.6.6,0,0,1-.385-.27.267.267,0,0,1,.072-.339,80.872,80.872,0,0,1,17.12-12.948c14.972-8.643,34.267-14.61,55.533-16.877,1.212-.1,2.1-.144,3.018-.23a14.577,14.577,0,0,0,5.5-1.512l-1.387-3.874-.889-2.467a.894.894,0,0,0-.582-.488,2.1,2.1,0,0,0-1.012-.1l-.755.091a6.02,6.02,0,0,1-2.738-.286,2.5,2.5,0,0,1-1.56-1.335l-.1-.265a.693.693,0,0,0-.475-.368,1.544,1.544,0,0,0-.663-.062l-1.788.218a1.279,1.279,0,0,0-.455.142c-.251.163-.35.335-.292.508.412,1.311-.265,2.444-1.611,3.222a7.823,7.823,0,0,1-2.778.9c-21.089,2.969-40.158,9.24-55.27,17.964" transform="translate(71.977 134.224)" fill="#396caa"/>
        <path id="Trazado_667055" data-name="Trazado 667055" d="M30.655,136.922c1.471,1.28,1.105,3.09-.8,4.516a8.088,8.088,0,0,0,.8-4.516" transform="translate(228.331 129.481)" fill="#575756"/>
      </g>
    </g>
    <g id="Grupo_909019" data-name="Grupo 909019" transform="translate(990.918 205.35)">
      <g id="Grupo_909018" data-name="Grupo 909018" clip-path="url(#clip-path-2)">
        <g id="Grupo_909017" data-name="Grupo 909017" transform="translate(0 -0.001)">
          <g id="Grupo_909016" data-name="Grupo 909016" clip-path="url(#clip-path-3)">
            <path id="Trazado_667056" data-name="Trazado 667056" d="M1.83,39.16l-.712,6.545.53,4.044,1.816,5.608c.563,1.575,2.031,1.579,2.253.259l.9,2.665c.864,2.127,2.95.875,2.379-1.268L7.919,51.6l2.213,6.934c1,2.1,3,1.271,2.7-1.364l-1.4-7.509,1.972,6.06c.678,1.42,2.9,1.041,2.769-1.36L14.85,44.686a5.967,5.967,0,0,1,.978-3.384c.838-1.086,5,2.309,5,2.309,1.453,1.256,2.754,2.376,3.777,3.265,1.512.534,2.253.267,2.242-.8L24.286,42.1l-2.995-3.858-1.316-1.69c-2.3-2.183-4.5-3.981-6.386-4.629l-.063-.7-.141-1.386-3.6-.141-5.367-.211-.515,4.029-.663,1.8Z" transform="translate(3.026 79.78)" fill="#fcaf75"/>
            <g id="Grupo_909000" data-name="Grupo 909000" transform="translate(7.688 117.591)" opacity="0.3" style="mix-blend-mode: multiply;isolation: isolate">
              <g id="Grupo_908999" data-name="Grupo 908999">
                <g id="Grupo_908998" data-name="Grupo 908998" clip-path="url(#clip-path-4)">
                  <path id="Trazado_667057" data-name="Trazado 667057" d="M13.849,34.729l-6.753-3L2.074,37.379,3.127,49.532c.471-3.091,1.053-6.794,3.213-7.12l3.614.174L7.444,40.092l.993-2.776,6.308.215Z" transform="translate(-2.076 -31.727)" fill="#fcaf75"/>
                </g>
              </g>
            </g>
            <g id="Grupo_909003" data-name="Grupo 909003" transform="translate(11.984 111.007)" opacity="0.3" style="mix-blend-mode: multiply;isolation: isolate">
              <g id="Grupo_909002" data-name="Grupo 909002">
                <g id="Grupo_909001" data-name="Grupo 909001" clip-path="url(#clip-path-5)">
                  <path id="Trazado_667058" data-name="Trazado 667058" d="M15.557,36.955l-12.323-3.9c2.12-.652,3.792-1.6,4.559-3.106l.078.708c1.872.626,4.073,2.435,6.39,4.611Z" transform="translate(-3.232 -29.952)" fill="#fcaf75"/>
                </g>
              </g>
            </g>
            <path id="Trazado_667059" data-name="Trazado 667059" d="M33.063,10.5l-6.972,24.78-5.767,20.6c-3.888,11.849-7.516,21.274-7.642,27.842a4.617,4.617,0,0,1-.471,1.746c-.767,1.5-2.442,2.45-4.562,3.1a23.006,23.006,0,0,1-5.715.971C1.322,76.477,1.289,64,4.194,54.491L11,30.156C14.3,16.12,19.727,6.057,33.063,10.5" transform="translate(4.334 25.54)" fill="#b2d3ea"/>
            <path id="Trazado_667060" data-name="Trazado 667060" d="M74.367,54.09c-18.32,9.47-38.612,12.868-59.534,15.033-11.189,0-11.953-23.946-6.2-25.9l18.5-5.7,50.7,13.206a15.858,15.858,0,0,1-3.462,3.365" transform="translate(13.82 101.539)" fill="#b2d3ea"/>
            <path id="Trazado_667061" data-name="Trazado 667061" d="M27.222,40.388l-12.568.678-7.991-.508C-.182,41.407-.894,58.123.734,73.33L13.3,81.224c4.281-.23,5.356-.534,8.576-2.969,1.353-2.379,1.2-5.018-3.143-8.662l.849-8.743,8.595-1.616c5.837-2.205,5.5-15.789-.953-18.847" transform="translate(0 109.303)" fill="#173d7a"/>
            <path id="Trazado_667062" data-name="Trazado 667062" d="M97.169,98.821c-18.3,9.477-38.586,12.876-59.545,15.033-7.583,0-10.37-11.045-9.588-18.758.415-3.617,1.594-6.516,3.421-7.127L50.2,82.2S19.956,69.626,12.284,61.914C3.307,52.826,6.424,40.017,7.71,34.9a4.893,4.893,0,0,1,.13-.656c.111-.393.83-1.831,1.5-3.2a28.085,28.085,0,0,0,1.219-2.572c0-.608,4.618.852,10.871,3.117,1.612.589,3.336,1.2,5.1,1.875,7.427,2.765,15.837,6.078,21.526,8.343.915.371,1.742.719,2.505,1.023,2.613,1.045,4.225,1.7,4.225,1.7.089.044.133.085.219.13.741.437,1.483.893,2.2,1.353,3.269,1.979,6.471,3.984,9.562,6.012C72.441,55.7,77.8,59.453,82.789,63.263A142.991,142.991,0,0,1,99.915,78.473c5.011,9.147,3.617,15.752-2.746,20.348" transform="translate(16.585 76.67)" fill="#b2d3ea"/>
            <path id="Trazado_667063" data-name="Trazado 667063" d="M34.217,45.105l-12.564.678-7.994-.508C6.816,46.124,6.1,62.84,7.728,78.047l12.564,7.894c4.281-.23,5.356-.534,8.576-2.969,1.357-2.379,1.2-5.018-3.143-8.662l.849-8.743,8.595-1.616c5.837-2.205,5.5-15.789-.953-18.847" transform="translate(18.931 122.069)" fill="#173d7a"/>
            <g id="Grupo_909006" data-name="Grupo 909006" transform="translate(22.717 110.897)" opacity="0.5" style="mix-blend-mode: multiply;isolation: isolate">
              <g id="Grupo_909005" data-name="Grupo 909005">
                <g id="Grupo_909004" data-name="Grupo 909004" clip-path="url(#clip-path-6)">
                  <path id="Trazado_667064" data-name="Trazado 667064" d="M12.3,57.592c7.665,7.731,37.882,20.288,37.882,20.288L31.442,83.644c-1.835.63-3.006,3.521-3.388,7.157l13.713,3.087c5.007-10.111,20.451-13.843,37.2-15.415-25.837-4.559-41.385-13.81-37.319-30.562C25.5,61.84,8.115,45.069,7.852,29.921,6.71,34.58,2.93,48.112,12.3,57.592" transform="translate(-6.129 -29.92)" fill="#21758a"/>
                </g>
              </g>
            </g>
            <path id="Trazado_667065" data-name="Trazado 667065" d="M33.1,37.147l2.972,7.405.2.486.923-.3c.682-.348,11.293-6.334,11.5-6.56,2.294-2.439,3.54-5.834,4.885-9.34l.434-3.6-.145-.6-1.4-5.8-2.928-1.019c-1.894.082-1.76,1.142-.927,1.79l1.153,1.286-5.011,3.662-3.58.986,2.294-3.362a17.092,17.092,0,0,0,2.891-1.709c1.071-.73,1.6-2.283.267-2.387l-6.5,2.676L35.581,27.3Z" transform="translate(89.581 48.203)" fill="#fcaf75"/>
            <g id="Grupo_909009" data-name="Grupo 909009" transform="translate(125.655 72.831)" opacity="0.3" style="mix-blend-mode: multiply;isolation: isolate">
              <g id="Grupo_909008" data-name="Grupo 909008">
                <g id="Grupo_909007" data-name="Grupo 909007" clip-path="url(#clip-path-7)">
                  <path id="Trazado_667066" data-name="Trazado 667066" d="M51.841,20.258,51.7,19.65,45.926,28.9c-4.236,3.992-8.269,5.719-12.023,4.555v6.123l.2.482.927-.3c.678-.352,11.293-6.338,11.5-6.564Z" transform="translate(-33.904 -19.651)" fill="#fcaf75"/>
                </g>
              </g>
            </g>
            <g id="Grupo_909012" data-name="Grupo 909012" transform="translate(11.984 55.582)" opacity="0.5" style="mix-blend-mode: multiply;isolation: isolate">
              <g id="Grupo_909011" data-name="Grupo 909011">
                <g id="Grupo_909010" data-name="Grupo 909010" clip-path="url(#clip-path-8)">
                  <path id="Trazado_667067" data-name="Trazado 667067" d="M15.909,40.836C12.021,52.685,8.392,62.111,8.266,68.678A4.579,4.579,0,0,1,7.8,70.42c-.771,1.5-2.442,2.454-4.562,3.106.33-1.557.574-3.106.819-4.651,3.74-23.6.471-44.62,10.607-53.879l7.016,5.237Z" transform="translate(-3.235 -14.997)" fill="#21758a"/>
                </g>
              </g>
            </g>
            <path id="Trazado_667068" data-name="Trazado 667068" d="M69.707,39.145a182.234,182.234,0,0,0-4.64,24.273c-.13,1.023-.278,2.068-.415,3.073-.3,2.09-.567,4.158-.867,6.186-.152,1.112-.308,2.224-.482,3.313A138.794,138.794,0,0,1,57.636,97.1c-2.717,1.134-7.516.219-10.152,1-16.145,4.9-28.453.044-37.715-15.97C8,75.507,5.218,53.24,6.159,29.927c1.368-10.674.978-17.95,10.367-20.477,20.129,3.158,38.368,15.1,53.159,29.673Z" transform="translate(16.156 25.576)" fill="#b2d3ea"/>
            <path id="Trazado_667069" data-name="Trazado 667069" d="M36.147,14.233,34.613,28.807c-9.429-.067-24.18-6.6-22.323-11.616l4.959-9.514Z" transform="translate(32.827 20.777)" fill="#fcaf75"/>
            <path id="Trazado_667070" data-name="Trazado 667070" d="M40.87,34.928c-3.743,4.259-9.384,3.684-15.133,2.164-8.395-3.881-14.44-9.625-13.613-20.551C11.453,8.606,15.052.3,28.58.727c8.606.274,15.941,3.4,16.456,12.6,0,0,.456,17.364-4.166,21.6" transform="translate(32.604 1.924)" fill="#fcaf75"/>
            <path id="Trazado_667071" data-name="Trazado 667071" d="M45.312,12.98c-.667,3.173-2.7,5.6-5.485,7.672,0,0,.649,7.138.263,7.268s-4.114,3.343-4.114,3.343l-1.927,5.4c-6.43,4.64-15.993,1.108-18.9-3.087-1.723-2.168-3.625-9.221-3.15-17.594,1.019-7,6.123-15.5,16.9-15.959C39.571-.429,46.213,5.779,45.312,12.98" transform="translate(32.276 0)" fill="#173d7a"/>
            <path id="Trazado_667072" data-name="Trazado 667072" d="M22.467,10.939c1.03-1.153-.552-3.825-1.712-4.2-1.612-.523-2.494,1.812-2.665,3.087a5.925,5.925,0,0,0,.949,4.455c1.1,1.623,2.82.026,3.362-1.282.389-.938-.589-1.327.067-2.057" transform="translate(48.739 18.027)" fill="#fcaf75"/>
            <path id="Trazado_667073" data-name="Trazado 667073" d="M73.75,46.262c-.2.219-.389.437-.589.652-.082.111-.2.219-.282.326-8.78,10.048-12.4,13.139-23.116,17.345a25.181,25.181,0,0,1-2.639-.652,44.554,44.554,0,0,1-5.007-1.723,46.583,46.583,0,0,1-9.192-4.944c-.719-.482-1.416-1-2.12-1.527a49.159,49.159,0,0,1-4.418-3.855,53.237,53.237,0,0,1-4.4-4.774,52.775,52.775,0,0,1-1.464-5.73C18.282,29.943,21.091,21.619,30,17.134a12.785,12.785,0,0,1,2.287,1.2c6.3,4.118,12.509,14.6,18.672,24.684C57.3,40.009,60.548,40.4,69.985,37c4.4,3.332,5.23,6.382,3.766,9.258" transform="translate(53.554 46.371)" fill="#b2d3ea"/>
            <g id="Grupo_909015" data-name="Grupo 909015" transform="translate(63.643 79.69)" opacity="0.5" style="mix-blend-mode: multiply;isolation: isolate">
              <g id="Grupo_909014" data-name="Grupo 909014">
                <g id="Grupo_909013" data-name="Grupo 909013" clip-path="url(#clip-path-9)">
                  <path id="Trazado_667074" data-name="Trazado 667074" d="M80.856,34.443c-.2.219-.415.437-.612.652-.085.111-.193.219-.282.326-7.954,8.543-11.745,12.727-23.116,17.345-.893-.2-1.764-.415-2.635-.652A52.143,52.143,0,0,1,49.2,50.392a46.792,46.792,0,0,1-9.192-4.944c-.719-.5-1.416-1-2.113-1.549a45.262,45.262,0,0,1-4.425-3.832c-.152,1.108-.3,2.22-.478,3.31A139.7,139.7,0,0,1,27.326,64.49c3.265,1.979,6.467,3.984,9.562,6.012-5.752-2.135-15.448-3.7-19.718-5.011a9.978,9.978,0,0,0,3.51-4.184c3.94-7.561,5.574-22.375,6.927-31.744.371-2.55.741-5.23,1.09-8.061a57.335,57.335,0,0,0,6.056,9.3,37.331,37.331,0,0,0,3.313,3.6C43.056,39.15,49.09,42.286,58.2,47.015c3.532,1.809,11.527-8.891,22.638-12.572Z" transform="translate(-17.173 -21.5)" fill="#21758a"/>
                </g>
              </g>
            </g>
          </g>
        </g>
      </g>
    </g>
    <rect id="Rectángulo_302839" data-name="Rectángulo 302839" width="540" height="411" transform="translate(874.333 126)" fill="none"/>
  </g>
</svg>
