<svg xmlns="http://www.w3.org/2000/svg" xmlns:xlink="http://www.w3.org/1999/xlink" width="185.285" height="219" viewBox="0 0 185.285 219">
  <defs>
    <clipPath id="clip-path">
      <rect id="Rectángulo_302825" data-name="Rectángulo 302825" width="185.285" height="219" fill="none"/>
    </clipPath>
    <clipPath id="clip-path-6">
      <rect id="Rectángulo_302785" data-name="Rectángulo 302785" width="27.173" height="33.688" fill="none"/>
    </clipPath>
    <clipPath id="clip-path-7">
      <rect id="Rectángulo_302786" data-name="Rectángulo 302786" width="20.259" height="13.361" fill="none"/>
    </clipPath>
    <clipPath id="clip-path-8">
      <rect id="Rectángulo_302787" data-name="Rectángulo 302787" width="19.789" height="12.433" fill="none"/>
    </clipPath>
    <clipPath id="clip-path-9">
      <rect id="Rectángulo_302788" data-name="Rectángulo 302788" width="20.26" height="13.361" fill="none"/>
    </clipPath>
    <clipPath id="clip-path-10">
      <rect id="Rectángulo_302789" data-name="Rectángulo 302789" width="19.788" height="12.432" fill="none"/>
    </clipPath>
    <clipPath id="clip-path-11">
      <rect id="Rectángulo_302790" data-name="Rectángulo 302790" width="8.822" height="5.814" fill="none"/>
    </clipPath>
    <clipPath id="clip-path-12">
      <rect id="Rectángulo_302791" data-name="Rectángulo 302791" width="8.351" height="4.885" fill="none"/>
    </clipPath>
    <clipPath id="clip-path-14">
      <rect id="Rectángulo_302793" data-name="Rectángulo 302793" width="8.351" height="4.886" fill="none"/>
    </clipPath>
    <clipPath id="clip-path-20">
      <rect id="Rectángulo_302800" data-name="Rectángulo 302800" width="1.675" height="2.918" fill="none"/>
    </clipPath>
    <clipPath id="clip-path-21">
      <rect id="Rectángulo_302802" data-name="Rectángulo 302802" width="0.682" height="1.414" fill="none"/>
    </clipPath>
    <clipPath id="clip-path-22">
      <rect id="Rectángulo_302803" data-name="Rectángulo 302803" width="5.595" height="4.067" fill="none"/>
    </clipPath>
    <clipPath id="clip-path-23">
      <rect id="Rectángulo_302804" data-name="Rectángulo 302804" width="5.709" height="3.889" fill="none"/>
    </clipPath>
    <clipPath id="clip-path-24">
      <rect id="Rectángulo_302805" data-name="Rectángulo 302805" width="5.504" height="4.131" fill="none"/>
    </clipPath>
    <clipPath id="clip-path-27">
      <rect id="Rectángulo_302817" data-name="Rectángulo 302817" width="15.591" height="24.24" fill="none"/>
    </clipPath>
    <clipPath id="clip-path-28">
      <rect id="Rectángulo_302818" data-name="Rectángulo 302818" width="13.957" height="10.012" fill="#0b5999"/>
    </clipPath>
    <clipPath id="clip-path-29">
      <rect id="Rectángulo_302823" data-name="Rectángulo 302823" width="19.998" height="54.271" fill="#f3c128"/>
    </clipPath>
  </defs>
  <g id="Grupo_908995" data-name="Grupo 908995" transform="translate(18 8)">
    <g id="Grupo_908994" data-name="Grupo 908994" transform="translate(-18 -8)" clip-path="url(#clip-path)">
      <g id="Grupo_908870" data-name="Grupo 908870">
        <g id="Grupo_908869" data-name="Grupo 908869" clip-path="url(#clip-path)">
          <path id="Trazado_666706" data-name="Trazado 666706" d="M28.792,256.62a71.46,71.46,0,0,0-.912-15.685c-1.446-7.678-4.953-13.584-9.276-15.89s-9.454.836-5.742,6.088,11.417,14.622,11.373,28.311Z" transform="translate(-6.924 -121.198)" fill="#e0e0e0"/>
          <path id="Trazado_666707" data-name="Trazado 666707" d="M32.483,259.026a.184.184,0,0,0,.052,0,.275.275,0,0,0,.247-.3c-.4-16.768-5.293-25.163-10.942-29.433a.236.236,0,0,0-.352.082.316.316,0,0,0,.072.4c5.573,4.212,10.316,12.436,10.715,28.965a.281.281,0,0,0,.208.278" transform="translate(-12.817 -123.886)" fill="#fff"/>
          <path id="Trazado_666708" data-name="Trazado 666708" d="M.008,258.257a3.731,3.731,0,0,0,1.365,2.238,4.234,4.234,0,0,1,1.478,2.158c.344,1.84-1.565,3.538-1.152,5.359a2.82,2.82,0,0,0,1.345,1.714,15.932,15.932,0,0,0,1.582.772,6.12,6.12,0,0,0,.794.219,3.508,3.508,0,0,1,2.165,1.107c.88,1.092.769,2.769,1.082,4.21.375,1.726,1.273,2.738,3.33,3.559l7.04-4.559c1.756-2.043,2.374-5.536.758-7.911-.97-1.425-2.786-1.605-3.7-3.031-.821-1.279-.345-3.125-.85-4.6a3.639,3.639,0,0,0-3.107-2.237c-1.3-.258-2.6.345-3.839-.17A35.426,35.426,0,0,0,4.64,255.37a3.84,3.84,0,0,0-3.686.707,2.723,2.723,0,0,0-.946,2.18" transform="translate(0 -137.902)" fill="#ebebeb"/>
          <path id="Trazado_666709" data-name="Trazado 666709" d="M17.005,267.735a.207.207,0,0,0-.055-.086A19.986,19.986,0,0,0,6.7,259.3a.187.187,0,0,0-.219.159.212.212,0,0,0,.139.25,19.489,19.489,0,0,1,9.721,7.693,9.063,9.063,0,0,0-8.075.8.229.229,0,0,0-.055.29.181.181,0,0,0,.148.1.168.168,0,0,0,.106-.034,8.738,8.738,0,0,1,8.248-.568A19.389,19.389,0,0,1,19.467,278.8a.2.2,0,0,0,.163.215h.015a.2.2,0,0,0,.189-.2,19.808,19.808,0,0,0-2.829-11.075" transform="translate(-3.871 -140.121)" fill="#fff"/>
          <path id="Trazado_666710" data-name="Trazado 666710" d="M413.437,266.406a57.088,57.088,0,0,1,2.681-19.978c2.227-7.128,7.948-14.317,11.812-14.012,3.6.284,4.4,5.335,1.159,9.829s-10.292,13.1-10.729,19.293l-1.379,7.043Z" transform="translate(-247.078 -125.591)" fill="#e0e0e0"/>
          <path id="Trazado_666711" data-name="Trazado 666711" d="M417,268.074a.257.257,0,0,0,.179-.245c.563-13.9,7.356-25.481,13.026-29.042a.284.284,0,0,0,.091-.358.215.215,0,0,0-.314-.1c-5.762,3.618-12.694,15.39-13.265,29.48a.253.253,0,0,0,.22.276.193.193,0,0,0,.063-.006" transform="translate(-249.049 -128.771)" fill="#fff"/>
          <path id="Trazado_666712" data-name="Trazado 666712" d="M422.058,287.406c.221-2.1,1.9-5.8,4.986-9.164,3.412-3.725,8.072-6,8.861-8.56.948-3.072-1.43-4.713-5.362-3.753-4.726,1.155-9.966,7.333-10.846,19.952Z" transform="translate(-250.828 -143.559)" fill="#ebebeb"/>
          <path id="Trazado_666713" data-name="Trazado 666713" d="M422.514,287.826a.252.252,0,0,0,.173-.208c1.807-11.028,8.261-15.962,11.421-17.031a.271.271,0,0,0,.156-.328.225.225,0,0,0-.287-.178c-3.494,1.181-9.9,6.184-11.744,17.44a.264.264,0,0,0,.185.308.2.2,0,0,0,.1,0" transform="translate(-252.34 -145.944)" fill="#fff"/>
        </g>
      </g>
      <g id="Grupo_908872" data-name="Grupo 908872">
        <g id="Grupo_908871" data-name="Grupo 908871" clip-path="url(#clip-path)">
          <path id="Trazado_666714" data-name="Trazado 666714" d="M34.476,323.761c-34.2-22.555-34.2-59.125,0-81.681s89.652-22.556,123.854,0,34.2,59.125,0,81.681-89.653,22.555-123.854,0" transform="translate(-5.274 -121.677)" fill="#fafafa"/>
        </g>
      </g>
      <g id="Grupo_908874" data-name="Grupo 908874">
        <g id="Grupo_908873" data-name="Grupo 908873" clip-path="url(#clip-path)">
          <path id="Trazado_666715" data-name="Trazado 666715" d="M218.948,393.506l9.365-6.176a.368.368,0,0,0,0-.663l-2.295-1.513a.986.986,0,0,0-1,0l-9.365,6.176a.368.368,0,0,0,0,.663l1.148.757-11.753,7.75c-.277.183-.161.245-.031.331s.225.163.5-.021l11.752-7.75.676.446a.988.988,0,0,0,1,0" transform="translate(-122.441 -208.061)" fill="#e0e0e0"/>
          <path id="Trazado_666716" data-name="Trazado 666716" d="M226.588,362.454a3.8,3.8,0,0,1-2.1-.582c-.066-.044-.127-.089-.187-.137l-.346-.278,2.946-.493.267-.637-.795-.532-2.809.468.093-.3a2,2,0,0,1,.863-1.059,3.822,3.822,0,0,1,2.062-.56,4.326,4.326,0,0,1,.944.1l9.608-6.336a1.478,1.478,0,0,1-.079-.883,1.926,1.926,0,0,1,.892-1.178,4.075,4.075,0,0,1,4.162.022c.067.045.128.089.187.137l.346.278-2.946.493-.267.637.8.533,2.809-.469-.093.3a2,2,0,0,1-.863,1.059,3.824,3.824,0,0,1-2.063.56,4.33,4.33,0,0,1-.944-.1l-9.608,6.336a1.475,1.475,0,0,1,.079.883,1.925,1.925,0,0,1-.892,1.178,3.827,3.827,0,0,1-2.065.561" transform="translate(-133.612 -188.861)" fill="#e0e0e0"/>
          <path id="Trazado_666717" data-name="Trazado 666717" d="M106.553,347.564c11.987,7.906,11.987,20.723,0,28.629s-31.423,7.906-43.41,0-11.987-20.723,0-28.629,31.423-7.906,43.41,0" transform="translate(-32.364 -184.617)" fill="#e0e0e0"/>
          <path id="Trazado_666718" data-name="Trazado 666718" d="M255.293,356.619l40.735-26.864,22.757,15.007L278.05,371.626Z" transform="translate(-152.573 -178.198)" fill="#e0e0e0"/>
          <path id="Trazado_666719" data-name="Trazado 666719" d="M204.934,319.949l-15.888-10.478a.765.765,0,0,1,0-1.379l25.694-16.945a2.055,2.055,0,0,1,2.091,0l15.888,10.478a.765.765,0,0,1,0,1.379l-25.694,16.945a2.057,2.057,0,0,1-2.091,0" transform="translate(-112.723 -157.18)" fill="#e0e0e0"/>
        </g>
      </g>
      <path id="Trazado_666720" data-name="Trazado 666720" d="M207.5,319.93V304.841l-16.343-10.78,1.634,16.168Z" transform="translate(-114.242 -158.909)" fill="#263238"/>
      <path id="Trazado_666721" data-name="Trazado 666721" d="M231.773,312.326l24.516-16.168,1.635-16.168-26.151,17.247Z" transform="translate(-138.517 -151.305)" fill="#37474f"/>
      <g id="Grupo_908918" data-name="Grupo 908918">
        <g id="Grupo_908917" data-name="Grupo 908917" clip-path="url(#clip-path)">
          <path id="Trazado_666722" data-name="Trazado 666722" d="M188.613,265.956a.846.846,0,0,1,.433-.689l25.694-16.945a2.057,2.057,0,0,1,2.091,0L232.718,258.8a.845.845,0,0,1,.433.689c0,.25,0,4.063,0,4.312a.843.843,0,0,1-.433.693l-25.694,16.946a2.057,2.057,0,0,1-2.091,0L189.046,270.96a.846.846,0,0,1-.433-.689Z" transform="translate(-112.723 -134.037)" fill="#efbc25"/>
          <g id="Grupo_908880" data-name="Grupo 908880" transform="translate(93.256 113.998)" opacity="0.1">
            <g id="Grupo_908879" data-name="Grupo 908879">
              <g id="Grupo_908878" data-name="Grupo 908878" clip-path="url(#clip-path-6)">
                <path id="Trazado_666724" data-name="Trazado 666724" d="M231.774,254.1l8.761-5.778a2.057,2.057,0,0,1,2.091,0L258.514,258.8a.845.845,0,0,1,.433.689c0,.25,0,4.063,0,4.312a.844.844,0,0,1-.433.693l-25.694,16.945a1.927,1.927,0,0,1-1.045.285Z" transform="translate(-231.774 -248.035)"/>
              </g>
            </g>
          </g>
          <path id="Trazado_666725" data-name="Trazado 666725" d="M204.934,277.123l-15.888-10.478a.765.765,0,0,1,0-1.379l25.694-16.945a2.055,2.055,0,0,1,2.091,0L232.719,258.8a.765.765,0,0,1,0,1.379l-25.694,16.945a2.055,2.055,0,0,1-2.091,0" transform="translate(-112.723 -134.037)" fill="#feca2e"/>
          <g id="Grupo_908883" data-name="Grupo 908883" transform="translate(95.385 125.777)" opacity="0.2">
            <g id="Grupo_908882" data-name="Grupo 908882">
              <g id="Grupo_908881" data-name="Grupo 908881" clip-path="url(#clip-path-7)">
                <path id="Trazado_666726" data-name="Trazado 666726" d="M257,273.876a.619.619,0,0,1-.054,1.113l-17.871,11.786a1.663,1.663,0,0,1-1.688.035.619.619,0,0,1,.054-1.114l17.87-11.785a1.663,1.663,0,0,1,1.689-.036" transform="translate(-237.063 -273.663)"/>
              </g>
            </g>
          </g>
          <g id="Grupo_908886" data-name="Grupo 908886" transform="translate(95.62 126.705)" opacity="0.2">
            <g id="Grupo_908885" data-name="Grupo 908885">
              <g id="Grupo_908884" data-name="Grupo 908884" clip-path="url(#clip-path-8)">
                <path id="Trazado_666727" data-name="Trazado 666727" d="M239.425,287.867a1.662,1.662,0,0,1-1.688.035.9.9,0,0,1-.088-.072,1.053,1.053,0,0,1,.142-.114l17.87-11.785a1.664,1.664,0,0,1,1.689-.036.858.858,0,0,1,.088.072,1.038,1.038,0,0,1-.142.113Z" transform="translate(-237.649 -275.683)"/>
              </g>
            </g>
          </g>
          <g id="Grupo_908889" data-name="Grupo 908889" transform="translate(82.311 117.153)" opacity="0.2">
            <g id="Grupo_908888" data-name="Grupo 908888">
              <g id="Grupo_908887" data-name="Grupo 908887" clip-path="url(#clip-path-9)">
                <path id="Trazado_666728" data-name="Trazado 666728" d="M224.506,255.113a.619.619,0,0,1-.054,1.113l-17.871,11.786a1.663,1.663,0,0,1-1.688.035.619.619,0,0,1,.054-1.114l17.87-11.785a1.663,1.663,0,0,1,1.689-.036" transform="translate(-204.57 -254.9)"/>
              </g>
            </g>
          </g>
          <g id="Grupo_908892" data-name="Grupo 908892" transform="translate(82.546 118.082)" opacity="0.2">
            <g id="Grupo_908891" data-name="Grupo 908891">
              <g id="Grupo_908890" data-name="Grupo 908890" clip-path="url(#clip-path-10)">
                <path id="Trazado_666729" data-name="Trazado 666729" d="M206.931,269.1a1.662,1.662,0,0,1-1.688.035.9.9,0,0,1-.088-.072,1.047,1.047,0,0,1,.142-.114l17.87-11.785a1.663,1.663,0,0,1,1.689-.035.839.839,0,0,1,.088.072,1.05,1.05,0,0,1-.142.113Z" transform="translate(-205.155 -256.92)"/>
              </g>
            </g>
          </g>
          <g id="Grupo_908895" data-name="Grupo 908895" transform="translate(85.576 131.168)" opacity="0.2">
            <g id="Grupo_908894" data-name="Grupo 908894">
              <g id="Grupo_908893" data-name="Grupo 908893" clip-path="url(#clip-path-11)">
                <path id="Trazado_666730" data-name="Trazado 666730" d="M213.009,285.605a.619.619,0,0,0,.054,1.113l6.433,4.238a1.662,1.662,0,0,0,1.688.036.62.62,0,0,0-.054-1.114l-6.432-4.238a1.662,1.662,0,0,0-1.689-.036" transform="translate(-212.685 -285.392)"/>
              </g>
            </g>
          </g>
          <g id="Grupo_908898" data-name="Grupo 908898" transform="translate(85.811 132.096)" opacity="0.2">
            <g id="Grupo_908897" data-name="Grupo 908897">
              <g id="Grupo_908896" data-name="Grupo 908896" clip-path="url(#clip-path-12)">
                <path id="Trazado_666731" data-name="Trazado 666731" d="M219.845,292.049a1.662,1.662,0,0,0,1.688.035.84.84,0,0,0,.088-.072,1.052,1.052,0,0,0-.142-.114l-6.433-4.238a1.662,1.662,0,0,0-1.688-.035.841.841,0,0,0-.088.072,1.071,1.071,0,0,0,.142.113Z" transform="translate(-213.27 -287.413)"/>
              </g>
            </g>
          </g>
          <g id="Grupo_908901" data-name="Grupo 908901" transform="translate(82.31 133.321)" opacity="0.2">
            <g id="Grupo_908900" data-name="Grupo 908900">
              <g id="Grupo_908899" data-name="Grupo 908899" clip-path="url(#clip-path-11)">
                <path id="Trazado_666732" data-name="Trazado 666732" d="M204.893,290.291a.619.619,0,0,0,.054,1.113l6.433,4.239a1.663,1.663,0,0,0,1.688.035.619.619,0,0,0-.054-1.114l-6.432-4.238a1.662,1.662,0,0,0-1.689-.036" transform="translate(-204.569 -290.078)"/>
              </g>
            </g>
          </g>
          <g id="Grupo_908904" data-name="Grupo 908904" transform="translate(82.546 134.25)" opacity="0.2">
            <g id="Grupo_908903" data-name="Grupo 908903">
              <g id="Grupo_908902" data-name="Grupo 908902" clip-path="url(#clip-path-14)">
                <path id="Trazado_666733" data-name="Trazado 666733" d="M211.729,296.735a1.662,1.662,0,0,0,1.688.035.962.962,0,0,0,.088-.072,1.073,1.073,0,0,0-.142-.114l-6.433-4.238a1.662,1.662,0,0,0-1.688-.035.844.844,0,0,0-.088.072,1.066,1.066,0,0,0,.142.113Z" transform="translate(-205.154 -292.098)"/>
              </g>
            </g>
          </g>
          <g id="Grupo_908907" data-name="Grupo 908907" transform="translate(105.188 118.234)" opacity="0.2">
            <g id="Grupo_908906" data-name="Grupo 908906">
              <g id="Grupo_908905" data-name="Grupo 908905" clip-path="url(#clip-path-11)">
                <path id="Trazado_666734" data-name="Trazado 666734" d="M261.752,257.464a.619.619,0,0,0,.053,1.113l6.433,4.239a1.664,1.664,0,0,0,1.688.035.62.62,0,0,0-.054-1.114L263.44,257.5a1.663,1.663,0,0,0-1.689-.036" transform="translate(-261.428 -257.251)"/>
              </g>
            </g>
          </g>
          <g id="Grupo_908910" data-name="Grupo 908910" transform="translate(105.423 119.162)" opacity="0.2">
            <g id="Grupo_908909" data-name="Grupo 908909">
              <g id="Grupo_908908" data-name="Grupo 908908" clip-path="url(#clip-path-12)">
                <path id="Trazado_666735" data-name="Trazado 666735" d="M268.588,263.907a1.662,1.662,0,0,0,1.688.035.9.9,0,0,0,.088-.072,1.057,1.057,0,0,0-.142-.114l-6.433-4.238a1.662,1.662,0,0,0-1.688-.035.846.846,0,0,0-.088.072,1.067,1.067,0,0,0,.142.113Z" transform="translate(-262.013 -259.271)"/>
              </g>
            </g>
          </g>
          <g id="Grupo_908913" data-name="Grupo 908913" transform="translate(101.923 120.387)" opacity="0.2">
            <g id="Grupo_908912" data-name="Grupo 908912">
              <g id="Grupo_908911" data-name="Grupo 908911" clip-path="url(#clip-path-11)">
                <path id="Trazado_666736" data-name="Trazado 666736" d="M253.636,262.149a.619.619,0,0,0,.054,1.113l6.433,4.239a1.663,1.663,0,0,0,1.688.035.619.619,0,0,0-.054-1.114l-6.432-4.238a1.663,1.663,0,0,0-1.689-.036" transform="translate(-253.312 -261.936)"/>
              </g>
            </g>
          </g>
          <g id="Grupo_908916" data-name="Grupo 908916" transform="translate(102.158 121.316)" opacity="0.2">
            <g id="Grupo_908915" data-name="Grupo 908915">
              <g id="Grupo_908914" data-name="Grupo 908914" clip-path="url(#clip-path-14)">
                <path id="Trazado_666737" data-name="Trazado 666737" d="M260.472,268.593a1.663,1.663,0,0,0,1.688.035.879.879,0,0,0,.088-.072,1.078,1.078,0,0,0-.142-.114l-6.433-4.238a1.662,1.662,0,0,0-1.688-.035.849.849,0,0,0-.088.072,1.068,1.068,0,0,0,.142.113Z" transform="translate(-253.897 -263.956)"/>
              </g>
            </g>
          </g>
          <path id="Trazado_666738" data-name="Trazado 666738" d="M227.716,268.68v4.169l1.634,1.08,1.634-1.08v-3.162a2.283,2.283,0,0,1,.869-1.724l4.032-2.661.764-.5c.479-.317.869-.06.869.575l0,3.162,1.634-1.08v-4.169a2.423,2.423,0,0,0-.012-.248,1.318,1.318,0,0,0-.024-.188,1.594,1.594,0,0,0-.048-.212c-.016-.055-.036-.11-.056-.16a1.246,1.246,0,0,0-.076-.152,1.012,1.012,0,0,0-.089-.133.784.784,0,0,0-.1-.11s0,0,0,0a.664.664,0,0,0-.113-.083.208.208,0,0,0-.052-.032c-.346-.225-1.3-.855-1.573-1.039a1.083,1.083,0,0,0-1.227.138l-6.321,4.168a4.546,4.546,0,0,0-1.742,3.447" transform="translate(-136.092 -140.931)" fill="#455a64"/>
          <path id="Trazado_666739" data-name="Trazado 666739" d="M248.016,269.856v0l0,2.151,1.634,1.08,0-3.162c0-.634-.39-.892-.869-.574Z" transform="translate(-148.224 -145.485)" fill="#263238"/>
          <path id="Trazado_666740" data-name="Trazado 666740" d="M231.776,271.021v4.173l1.634-1.08v-3.162a2.282,2.282,0,0,1,.869-1.723l4.032-2.657v0l.764-.5c.479-.317.869-.059.869.574l0,3.163,1.634-1.075v-4.173a2.432,2.432,0,0,0-.012-.248,1.307,1.307,0,0,0-.024-.188,1.589,1.589,0,0,0-.048-.212c-.016-.055-.036-.11-.056-.16a1.179,1.179,0,0,0-.076-.152,1.017,1.017,0,0,0-.089-.134.813.813,0,0,0-.1-.11s0-.005,0-.005a.689.689,0,0,0-.113-.082.226.226,0,0,0-.052-.033,1.126,1.126,0,0,0-1.167.175l-6.321,4.168a4.567,4.567,0,0,0-1.742,3.447" transform="translate(-138.519 -142.197)" fill="#37474f"/>
          <path id="Trazado_666741" data-name="Trazado 666741" d="M248.759,319.39l-.6-.4-1.634,1.078.6.4Z" transform="translate(-147.331 -172.381)" fill="#455a64"/>
          <path id="Trazado_666742" data-name="Trazado 666742" d="M247.125,321.735l-.6,9.022v-9.42Z" transform="translate(-147.33 -173.648)" fill="#263238"/>
          <path id="Trazado_666743" data-name="Trazado 666743" d="M251.186,319.858l-.6,9.022.2-.107Z" transform="translate(-149.758 -172.85)" fill="#37474f"/>
          <path id="Trazado_666744" data-name="Trazado 666744" d="M218.086,323.213l.6-.4,1.634,1.078-.6.4Z" transform="translate(-130.337 -174.448)" fill="#455a64"/>
          <path id="Trazado_666745" data-name="Trazado 666745" d="M218.086,323.682l.6,9.022-.2-.107Z" transform="translate(-130.337 -174.916)"/>
          <path id="Trazado_666746" data-name="Trazado 666746" d="M201.837,313.833l.605-.4,1.634,1.077-.6.4Z" transform="translate(-120.626 -169.379)" fill="#455a64"/>
          <path id="Trazado_666747" data-name="Trazado 666747" d="M222.751,334.58l-.6-9.022.6-.4Z" transform="translate(-132.764 -175.715)" fill="#37474f"/>
          <path id="Trazado_666748" data-name="Trazado 666748" d="M206.5,315.779v9.42l-.6-9.022Z" transform="translate(-123.053 -170.645)" fill="#37474f"/>
          <path id="Trazado_666749" data-name="Trazado 666749" d="M201.837,314.3l.6,9.022-.2-.107Z" transform="translate(-120.626 -169.846)"/>
          <path id="Trazado_666750" data-name="Trazado 666750" d="M277.192,302.974l-.605-.4-1.634,1.077.6.4Z" transform="translate(-164.323 -163.511)" fill="#455a64"/>
          <path id="Trazado_666751" data-name="Trazado 666751" d="M275.558,305.319l-.6,9.022v-9.42Z" transform="translate(-164.323 -164.777)" fill="#263238"/>
          <path id="Trazado_666752" data-name="Trazado 666752" d="M279.62,303.442l-.6,9.022.2-.107Z" transform="translate(-166.751 -163.979)" fill="#37474f"/>
          <path id="Trazado_666753" data-name="Trazado 666753" d="M244.332,311.453l.005-2.156,3.269-2.156.546.359-.006,2.156-3.268,2.156Z" transform="translate(-146.023 -165.978)" fill="#37474f"/>
          <path id="Trazado_666754" data-name="Trazado 666754" d="M248.961,307.924l-.005,2.156-3.269,2.156.005-2.156Z" transform="translate(-146.833 -166.401)" fill="#455a64"/>
          <path id="Trazado_666755" data-name="Trazado 666755" d="M244.883,312.192l-.546-.359,0,2.156.545.359Z" transform="translate(-146.023 -168.513)" fill="#263238"/>
          <path id="Trazado_666756" data-name="Trazado 666756" d="M272.989,294.926l.005-2.155,3.269-2.156.546.36-.006,2.156-3.268,2.155Z" transform="translate(-163.149 -157.046)" fill="#37474f"/>
          <path id="Trazado_666757" data-name="Trazado 666757" d="M277.619,291.4l-.005,2.156-3.269,2.156.005-2.156Z" transform="translate(-163.96 -157.469)" fill="#455a64"/>
          <path id="Trazado_666758" data-name="Trazado 666758" d="M273.54,295.664l-.545-.359-.005,2.156.545.359Z" transform="translate(-163.15 -159.581)" fill="#263238"/>
        </g>
      </g>
      <g id="Grupo_908941" data-name="Grupo 908941">
        <g id="Grupo_908940" data-name="Grupo 908940" clip-path="url(#clip-path)">
          <path id="Trazado_666759" data-name="Trazado 666759" d="M225.11,358.909c-.221.143-.635.138-.767.311v.621l2.527-.421.956.64-.363.867-2.551-.194v.621c.054.043.11.085.171.125a3.83,3.83,0,0,0,3.895.019,1.579,1.579,0,0,0,.82-1.291v-.62l-.15.028c-.006-.011-.01-.023-.017-.034l9.562-6.306a3.845,3.845,0,0,0,2.878-.411,1.767,1.767,0,0,0,.767-.932v-.622l-2.527,1.043-.955-.64.363-.867,2.551-.427V349.8s-2.982-.227-4.066.476a1.894,1.894,0,0,0-.676.713l-.144-.06v.615a1.277,1.277,0,0,0,.166.649l-9.562,6.306a3.847,3.847,0,0,0-2.878.411" transform="translate(-134.076 -189.01)" fill="#37474f"/>
          <path id="Trazado_666760" data-name="Trazado 666760" d="M247.043,356.674v-.621l-9.562,6.306v.621Z" transform="translate(-141.928 -192.409)" fill="#37474f"/>
          <path id="Trazado_666761" data-name="Trazado 666761" d="M237.55,350.827l-9.562,6.306a3.846,3.846,0,0,0-2.878.411,1.763,1.763,0,0,0-.767.932l2.527-.422.956.64-.363.867-2.551.427c.054.043.111.085.171.125a3.829,3.829,0,0,0,3.895.02,1.411,1.411,0,0,0,.653-1.917l9.562-6.306a3.845,3.845,0,0,0,2.878-.411,1.763,1.763,0,0,0,.767-.932l-2.527.422-.956-.64.363-.867,2.551-.427c-.054-.044-.11-.085-.171-.125a3.83,3.83,0,0,0-3.895-.02,1.412,1.412,0,0,0-.653,1.917" transform="translate(-134.076 -188.267)" fill="#455a64"/>
          <path id="Trazado_666762" data-name="Trazado 666762" d="M261.854,351.27l-.2-.136.363-.867,2.551-.427v.621l-2.551.427Z" transform="translate(-156.373 -189.052)" fill="#263238"/>
          <path id="Trazado_666763" data-name="Trazado 666763" d="M227.622,370.547l.2-.485-.955-.64-2.527.421v.621l2.527-.421Z" transform="translate(-134.076 -199.634)" fill="#263238"/>
          <path id="Trazado_666764" data-name="Trazado 666764" d="M240.791,384.247l2,3.953,6.742-4.446a1.157,1.157,0,0,0,.451-1.065,3.7,3.7,0,0,0-1.414-2.8.889.889,0,0,0-1-.113Z" transform="translate(-143.906 -205.172)" fill="#0b5999"/>
          <path id="Trazado_666765" data-name="Trazado 666765" d="M238.639,390.321v0c-.029.6-.776.732-.776.732l1.414,2.8s.472-.664.943-.4v0c.7.344,1.236-.083,1.236-1.033a3.7,3.7,0,0,0-1.414-2.8c-.721-.475-1.314-.155-1.4.706" transform="translate(-142.156 -210.427)" fill="#1568ab"/>
          <g id="Grupo_908924" data-name="Grupo 908924" transform="translate(95.706 180.505)" opacity="0.05">
            <g id="Grupo_908923" data-name="Grupo 908923">
              <g id="Grupo_908922" data-name="Grupo 908922" clip-path="url(#clip-path-20)">
                <path id="Trazado_666767" data-name="Trazado 666767" d="M238.2,392.738a1.334,1.334,0,0,1-.339.12l1.414,2.8a1.58,1.58,0,0,1,.26-.272,3.743,3.743,0,0,0-1.336-2.646" transform="translate(-237.862 -392.738)"/>
              </g>
            </g>
          </g>
          <path id="Trazado_666768" data-name="Trazado 666768" d="M234.206,392.938l.118.234a1.916,1.916,0,0,0-.061.5,3.7,3.7,0,0,0,1.414,2.8,1.389,1.389,0,0,0,.41.19l.118.234.471-.311a1.2,1.2,0,0,0,.414-1.046,3.7,3.7,0,0,0-1.414-2.8.89.89,0,0,0-1-.113Z" transform="translate(-139.971 -212.116)" fill="#0b5999"/>
          <path id="Trazado_666769" data-name="Trazado 666769" d="M236,396.214a3.7,3.7,0,0,0-1.414-2.8c-.781-.515-1.414-.1-1.414.933a3.7,3.7,0,0,0,1.414,2.8c.781.515,1.414.1,1.414-.932" transform="translate(-139.355 -212.481)" fill="#1568ab"/>
          <g id="Grupo_908930" data-name="Grupo 908930" transform="translate(94.684 183.099)" opacity="0.15">
            <g id="Grupo_908929" data-name="Grupo 908929">
              <g id="Grupo_908928" data-name="Grupo 908928" clip-path="url(#clip-path-21)">
                <path id="Trazado_666771" data-name="Trazado 666771" d="M235.321,399.439a2.781,2.781,0,0,0,.351.358l.331-1.078-.4-.336Z" transform="translate(-235.321 -398.383)"/>
              </g>
            </g>
          </g>
          <g id="Grupo_908933" data-name="Grupo 908933" transform="translate(99.382 176.186)" opacity="0.2">
            <g id="Grupo_908932" data-name="Grupo 908932">
              <g id="Grupo_908931" data-name="Grupo 908931" clip-path="url(#clip-path-22)">
                <path id="Trazado_666772" data-name="Trazado 666772" d="M252.54,383.564h0a.481.481,0,0,1-.143.608l-4.815,3.176a.365.365,0,0,1-.533-.163.481.481,0,0,1,.143-.608l4.816-3.176a.365.365,0,0,1,.532.163" transform="translate(-246.998 -383.341)"/>
              </g>
            </g>
          </g>
          <g id="Grupo_908936" data-name="Grupo 908936" transform="translate(98.456 175.092)" opacity="0.2">
            <g id="Grupo_908935" data-name="Grupo 908935">
              <g id="Grupo_908934" data-name="Grupo 908934" clip-path="url(#clip-path-23)">
                <path id="Trazado_666773" data-name="Trazado 666773" d="M250.3,381.095h0a.279.279,0,0,1-.017.456l-4.906,3.236a.481.481,0,0,1-.568-.071.28.28,0,0,1,.017-.456l4.906-3.236a.48.48,0,0,1,.567.071" transform="translate(-244.697 -380.961)"/>
              </g>
            </g>
          </g>
          <g id="Grupo_908939" data-name="Grupo 908939" transform="translate(99.89 177.604)" opacity="0.2">
            <g id="Grupo_908938" data-name="Grupo 908938">
              <g id="Grupo_908937" data-name="Grupo 908937" clip-path="url(#clip-path-24)">
                <path id="Trazado_666774" data-name="Trazado 666774" d="M253.758,386.683h0c-.035-.223-.193-.318-.355-.211l-4.906,3.236a.649.649,0,0,0-.23.6c.035.223.194.318.355.211l4.906-3.236a.647.647,0,0,0,.23-.6" transform="translate(-248.26 -386.428)"/>
              </g>
            </g>
          </g>
          <path id="Trazado_666775" data-name="Trazado 666775" d="M205.874,404.456v1.077l2.357-.876a4.092,4.092,0,0,1,.943-1.3l8.955-5.906.276-.894-.276-.182-8.955,5.906a.845.845,0,0,1-.943-.057Z" transform="translate(-123.039 -214.198)" fill="#455a64"/>
          <path id="Trazado_666776" data-name="Trazado 666776" d="M206.56,404.853v1.077l2.357-.876a4.1,4.1,0,0,1,.943-1.3l8.955-5.906v-1.077l-8.955,5.906a.846.846,0,0,1-.943-.057Z" transform="translate(-123.449 -214.413)" fill="#37474f"/>
          <path id="Trazado_666777" data-name="Trazado 666777" d="M206.15,415.217l-.276-.182v-1.077l.276.182Z" transform="translate(-123.038 -223.701)" fill="#263238"/>
          <path id="Trazado_666778" data-name="Trazado 666778" d="M205.874,411.332l.276.182,2.357-2.233-.276-.182Z" transform="translate(-123.038 -221.075)" fill="#455a64"/>
        </g>
      </g>
      <g id="Grupo_908970" data-name="Grupo 908970">
        <g id="Grupo_908969" data-name="Grupo 908969" clip-path="url(#clip-path)">
          <path id="Trazado_666779" data-name="Trazado 666779" d="M258.042,112.039H237.3a.348.348,0,0,1,0-.689h20.737a.348.348,0,0,1,0,.689" transform="translate(-141.643 -60.173)" fill="#37474f"/>
          <path id="Trazado_666780" data-name="Trazado 666780" d="M163.164,115.223c-1.995-4.341-5.208-13.727-5.208-13.727l.069-12.6a20,20,0,0,0,1.967.67c3.107,1.312,3.962,1.935,5.3,5.067,1.059,2.486,4.622,13.824,5.888,17.658l7.586-6.159c1.911-1.837,2.357-4.462,3.525-6.093s2.488-2.08,3.811-3.465,1.818-2.41,2.325-1.306-.934,3.143-1.181,3.636c-.175.349-.615.608-.713,1-.167.667.706.564,1.083.471,1.85-.458,3.53-2.242,4.673-3.875.446-.636,2.076-3.121,2.491-1.116.338,1.632-.836,2.677-.921,4.18a6.728,6.728,0,0,1-.562,2.388,18.554,18.554,0,0,0-.346,2.185c-.609,2.213-2.151,2.975-3.941,3.665-1.742.671-3.726,1.189-5.209,2.494-1.8,1.587-6.163,6.947-8.814,10.168-3.369,4.095-5.588,5.07-7.558,2.644s-3.521-6.278-4.261-7.887" transform="translate(-94.401 -48.04)" fill="#ffa8a7"/>
          <path id="Trazado_666781" data-name="Trazado 666781" d="M224.9,102.112c-.415-2-2.045.48-2.491,1.116-1.144,1.633-2.823,3.417-4.674,3.875-.377.093-1.249.2-1.082-.471.1-.393.538-.651.713-1,.247-.493,1.688-2.532,1.181-3.636s-1-.079-2.325,1.306-2.643,1.834-3.811,3.465-1.614,4.255-3.525,6.093l-.521.423a8.093,8.093,0,0,0,3.49,5.881,28.244,28.244,0,0,1,2.066-2.14c1.483-1.3,3.466-1.823,5.209-2.495,1.79-.69,3.332-1.451,3.941-3.665a18.467,18.467,0,0,1,.346-2.185,6.73,6.73,0,0,0,.562-2.388c.086-1.5,1.259-2.548.921-4.18" transform="translate(-124.53 -54.766)" fill="#455a64"/>
          <path id="Trazado_666782" data-name="Trazado 666782" d="M207.654,124.826a7.747,7.747,0,0,0,1.243,4.067,6.42,6.42,0,0,0,2.145,1.708l.319-.286s.309.039-.515.979-1.013,1.293-1.471,1.216a5.394,5.394,0,0,1-2.634-2.478,8.394,8.394,0,0,1-1.095-3.663c.022-.445.586-.792,1.095-1.212s1.044-1.128,1.329-.848Z" transform="translate(-122.902 -67.141)" fill="#12263f"/>
          <path id="Trazado_666784" data-name="Trazado 666784" d="M156.437,89.346a10.458,10.458,0,0,1,4.587,2.355c1.492,1.47,2.169,3.761,3.182,6.9s3.627,10.752,3.627,10.752a13.393,13.393,0,0,0-7.242,6.487l-6.905-16.412Z" transform="translate(-91.849 -48.282)" fill="#e0e0e0"/>
          <path id="Trazado_666785" data-name="Trazado 666785" d="M186.215,138.77a7.629,7.629,0,0,0-3.094,3.55,5.733,5.733,0,0,1,2.8-4.427Z" transform="translate(-109.441 -74.517)" fill="#f28f8f"/>
          <path id="Trazado_666786" data-name="Trazado 666786" d="M97.666,89.167A12.481,12.481,0,0,0,94.7,94.1c-.3,1.26-.57,2.313.364,9.306.892,6.678,1.524,6.676,1.975,11.767l-.652,12.746c3.5,4.679,19.828,7.062,27.995.759,0,0,.353-19.348-.224-27.321-.392-5.415-2.392-10.975-3.142-13.515-2.22-.44-4.355-.735-4.355-.735l-8.167-.542Z" transform="translate(-56.43 -46.78)" fill="#fafafa"/>
          <path id="Trazado_666787" data-name="Trazado 666787" d="M130.01,36.951c1.074-2.813.023-6.543-1.261-8.294-1.855-2.533-4.741-3.625-9.092-3.317-3.309.234-6.563,1.8-7.182,5.683-2.66.906-2.356,5.895-1.7,8.1,1.343,4.466,3.982,8.352,4.027,10.636Z" transform="translate(-65.934 -13.666)" fill="#37474f"/>
          <path id="Trazado_666788" data-name="Trazado 666788" d="M129.961,54.086c-.523,2.156-1.616,3.736-3.361,4.047a12.814,12.814,0,0,1-2.757.017l.069,2.745c3.6,5.234-4.853,6.3-9.037.559l-.248-9.27s-1.069,1.386-2.83.076a4.775,4.775,0,0,1-1.195-5.372,1.779,1.779,0,0,1,3.158-.6c.535.638,1.164,1.841,1.611,1.673a1.772,1.772,0,0,0,1.083-1.263,12.715,12.715,0,0,0,.571-4.077,4.932,4.932,0,0,0,1.366-1.2,5.422,5.422,0,0,0,1.186-3.119c3.772-1.349,8.111-.714,9.679.672.9,1.815.935,6.036,1.085,8.467a22.733,22.733,0,0,1-.381,6.644" transform="translate(-65.887 -20.296)" fill="#ffa8a7"/>
          <path id="Trazado_666789" data-name="Trazado 666789" d="M131.683,75.149c-1.931-.124-5.813-1.154-6.847-2.385a9.825,9.825,0,0,1-1.473-3.749,13.939,13.939,0,0,0,.954,4.584c.8,1.4,2.819,2.015,4.046,2.363a26.677,26.677,0,0,0,3.356.582Z" transform="translate(-73.726 -37.296)" fill="#f28f8f"/>
          <path id="Trazado_666790" data-name="Trazado 666790" d="M138.69,54.907a.792.792,0,1,1-.783-.926.861.861,0,0,1,.783.926" transform="translate(-81.954 -29.171)" fill="#263238"/>
          <path id="Trazado_666791" data-name="Trazado 666791" d="M135.714,49.189l-1.58,1.219a1.249,1.249,0,0,1,.269-1.552.866.866,0,0,1,1.312.333" transform="translate(-80.07 -26.304)" fill="#263238"/>
          <path id="Trazado_666792" data-name="Trazado 666792" d="M154.785,49.164l-1.733-.947a.881.881,0,0,1,1.252-.542,1.228,1.228,0,0,1,.482,1.489" transform="translate(-91.47 -25.707)" fill="#263238"/>
          <path id="Trazado_666793" data-name="Trazado 666793" d="M153.591,54.213a.792.792,0,1,1-.783-.926.86.86,0,0,1,.783.926" transform="translate(-90.859 -28.796)" fill="#263238"/>
          <path id="Trazado_666794" data-name="Trazado 666794" d="M145.464,51.822l.565,6.41,3.011-1.038Z" transform="translate(-86.935 -28.005)" fill="#f28f8f"/>
          <path id="Trazado_666795" data-name="Trazado 666795" d="M140.949,69.016l3.23.816a1.649,1.649,0,0,1-1.938,1.5,2,2,0,0,1-1.292-2.315" transform="translate(-84.217 -37.296)" fill="#b16668"/>
          <path id="Trazado_666796" data-name="Trazado 666796" d="M142.277,72.118a1.393,1.393,0,0,0,.2.026,1.613,1.613,0,0,0-1.5-1.673,1.879,1.879,0,0,0,1.3,1.646" transform="translate(-84.254 -38.083)" fill="#f28f8f"/>
          <path id="Trazado_666797" data-name="Trazado 666797" d="M109.837,34.756a13.108,13.108,0,0,0,.7,3.28,11.514,11.514,0,0,1,.71-.907,17.413,17.413,0,0,1,5-3.933h.008c4.3-2.3,9.569-3.07,13.786-1.735a12.438,12.438,0,0,0-.784-2.758c-1.774-4.357-5.8-7.164-10.222-6.681-5.627.615-9.738,6.317-9.2,12.734" transform="translate(-65.615 -11.872)" fill="#0b5999"/>
          <path id="Trazado_666798" data-name="Trazado 666798" d="M118.932,22.8c.512-.283,3.086-1.162,3.292-1.234,1.334-.463,3.476-.433,5.678,1.635a12.365,12.365,0,0,1,3.445,6.356l-2.735.98-.874.1c-.322-2.295-2.975-7.247-6.7-7.432a3.064,3.064,0,0,0-.527.008,4.317,4.317,0,0,0-1.441.336,14.4,14.4,0,0,0-1.445,1.323,2.667,2.667,0,0,1,1.3-2.068" transform="translate(-70.299 -11.523)" fill="#2480cc"/>
          <path id="Trazado_666800" data-name="Trazado 666800" d="M127.735,31.792c-.381-2.671-3.948-9-8.665-7.094a14.5,14.5,0,0,0-1.451,1.323,2.687,2.687,0,0,1,1.308-2.065c1.229-.671,3.689-1,6.237,1.388a12.339,12.339,0,0,1,3.441,6.354Z" transform="translate(-70.294 -12.68)" fill="#0c4f85"/>
          <path id="Trazado_666802" data-name="Trazado 666802" d="M125.672,37.429a12.277,12.277,0,0,1,4.549-4.615c2.1-1.278,6.394-1.342,8.322-1.306,3.375.063,4.181.883,4.222,1.451.01.134.057.758.073.9a.611.611,0,0,1-.07.365c-.506.875-3.232,2.388-3.232,2.388-4.217-1.336-9.484-.562-13.786,1.735Z" transform="translate(-75.107 -17.023)" fill="#2372b2"/>
          <path id="Trazado_666804" data-name="Trazado 666804" d="M125.863,39.425c4.3-2.3,9.569-3.07,13.786-1.735,0,0,2.726-1.513,3.232-2.388.27-.484.027-1.72-4.148-1.8-1.927-.036-6.225.028-8.322,1.306a12.281,12.281,0,0,0-4.549,4.615" transform="translate(-75.221 -18.102)" fill="#0c4f85"/>
          <path id="Trazado_666806" data-name="Trazado 666806" d="M144.525,321.067c.131-2.439,1.276-27.025,1.276-27.025l-10.45,8.427c1.826,14.054,2.226,18.29,2.3,20.635a2.241,2.241,0,0,0-.048.6c.056,2.785,2.975,4.24,5.264,6.059a42,42,0,0,0,6.179,4.229c1.655.868,4.988.9,5.382-.258A64.962,64.962,0,0,1,146.2,326.5c-1.064-1.225-1.829-2.506-1.671-5.433" transform="translate(-80.891 -158.899)" fill="#ffa8a7"/>
          <path id="Trazado_666807" data-name="Trazado 666807" d="M160.715,379.775a2.552,2.552,0,0,1-.372,2.41A8.891,8.891,0,0,1,153.469,384a11.534,11.534,0,0,1-6.7-2.77c-1.392-1.224-3.342-2.95-4.9-3.3a9,9,0,0,1-3.489-1.48c-.468-.476-.44-2.625-.44-2.625Z" transform="translate(-82.439 -202.016)" fill="#263238"/>
          <path id="Trazado_666808" data-name="Trazado 666808" d="M149.719,356.686c-.225-.237-.443-.48-.654-.725a9.476,9.476,0,0,1-1.639-3.084,9.741,9.741,0,0,1-.515-1.7c-.106-.675-.177-1.359-.277-2.035-.038-.254-.016-.807-.274-.917s-.705.09-.925.2c-.7.341-1.424.6-2.139.893-.387.157-1.227.407-1.349.914-.128.534.082,1.144-.014,1.694-.038.215-.118.444-.342.432-.383-.019-.5-.664-.608-.982-.223-.679-.407-1-1.041-1.194-.333-.1-.983-.155-1.205-.493l-.085-.933a1.234,1.234,0,0,0-.85.751,4.706,4.706,0,0,0,0,2.273,11.776,11.776,0,0,1,.153,2.1,14.225,14.225,0,0,1-.254,1.792,18.774,18.774,0,0,0-.254,3.129,8.484,8.484,0,0,0,.1,1.451,1.63,1.63,0,0,0,.538.993,4.673,4.673,0,0,0,1.471,1c.736.335,1.5.593,2.243.888a18.963,18.963,0,0,1,4.914,3.253,13.488,13.488,0,0,0,7.278,2.806c3.41,0,5.793-1.287,6.453-2.629a4.692,4.692,0,0,0-.258-2.492c-1.194-2.1-3.85-2.783-5.977-3.944a23,23,0,0,1-2.681-1.8,14.357,14.357,0,0,1-1.812-1.642" transform="translate(-82.147 -188.161)" fill="#37474f"/>
          <path id="Trazado_666809" data-name="Trazado 666809" d="M173.062,375.562a9.187,9.187,0,0,0-6.247,7.179,12.351,12.351,0,0,0,4.728,1.242c3.41,0,5.793-1.287,6.453-2.628a4.691,4.691,0,0,0-.258-2.492c-.959-1.691-2.862-2.461-4.676-3.3" transform="translate(-99.695 -202.952)" fill="#455a64"/>
          <path id="Trazado_666810" data-name="Trazado 666810" d="M141.8,373.033c.058.023.119.053.178.078-.167-3.7-1.491-6.111-4.4-6.6a19.135,19.135,0,0,0-.124,2.187,8.488,8.488,0,0,0,.1,1.451,1.628,1.628,0,0,0,.538.993,4.672,4.672,0,0,0,1.47,1c.736.334,1.5.593,2.244.888" transform="translate(-82.147 -198.06)" fill="#455a64"/>
          <path id="Trazado_666811" data-name="Trazado 666811" d="M97.983,306.634l-10.9-2.692c-.287,7.709-.113,18.138-.344,25.374-.043,1.362-.661,10.565-.318,13.393.515,4.249,5.5,3.972,5.913,1.472s.773-13.187.855-14.294c.232-4.635,2.547-12.426,4.171-20.677.08-.406.549-2.18.625-2.575" transform="translate(-51.585 -164.249)" fill="#ffa8a7"/>
          <path id="Trazado_666812" data-name="Trazado 666812" d="M90.582,393.048a11.547,11.547,0,0,1-1.17,5.616,3.61,3.61,0,0,1-4.115,1.656c-1.679-.354-3.854-1.4-4.416-3.509a13.669,13.669,0,0,1-.239-5.883Z" transform="translate(-48.073 -211.256)" fill="#263238"/>
          <path id="Trazado_666813" data-name="Trazado 666813" d="M83.528,349.832c-.683.083-.818,6.807-1.08,10.144-.28,3.578-1.276,5.1-1.537,8.03-.3,3.353-.064,4.836,1.176,6.8s5.426,3.771,7.334.8c1.555-2.424,1.518-5.038,1.234-8.361-.294-3.436-.3-8.941-.27-11.56.033-2.5.7-5.145.092-5.4-.132.672-.21,1.246-.278,1.6-.151.794-.313,1.747-.523,1.57,0,0,.058-.7.066-1.027.007-.283.071-.531-.12-.739a3.313,3.313,0,0,0-1.289-.379,19.415,19.415,0,0,0-2.05-.231,10.054,10.054,0,0,0-1.028,0,2.7,2.7,0,0,0-.863.161.614.614,0,0,0-.357.354,1.1,1.1,0,0,0-.021.382,2.761,2.761,0,0,1-.058.688c-.021.1-.084.223-.183.2-.08-.016-.162-.081-.189-.308a12.1,12.1,0,0,1-.067-1.362c0-.217.023-.513.017-.731s-.012-.427-.006-.641" transform="translate(-48.286 -189.047)" fill="#37474f"/>
          <path id="Trazado_666814" data-name="Trazado 666814" d="M80.8,392.226a8.242,8.242,0,0,0,1.111,5.029c1.241,1.968,5.757,3.764,7.665.79a9.547,9.547,0,0,0,1.219-4.929c-1.3-2.174-8.158-2.867-9.995-.891" transform="translate(-48.286 -211.327)" fill="#455a64"/>
          <path id="Trazado_666815" data-name="Trazado 666815" d="M120.182,130.686s-8.279,2.129-20.687,1.155c0,9.366.867,20.11-3.059,20.049l-4.691-.127c-.258,14.027-2.337,43.275-2.337,43.275-.185,1.723-2.369,9.05-2.449,15.28-.126,9.778-.309,17.182-.309,17.182s4.782,2.162,8.294.666c0,0,4.569-20.782,5.849-27.267,1.525-7.725,4.678-22,4.678-22l.379,20.328a63.9,63.9,0,0,0-.144,12.344c.422,4.119,1.87,15.586,1.87,15.586a17.279,17.279,0,0,0,8.215-.278s2.3-24.625,2.487-28.414c.206-4.118,1.346-42.131,1.452-45.677l.008,0c1.038-17.857.443-22.1.443-22.1" transform="translate(-51.786 -70.622)" fill="#455a64"/>
          <path id="Trazado_666816" data-name="Trazado 666816" d="M113.6,109.17c-.577-8.488-.56-15.46-3.348-19.583l3.558-.854s3.08,7.789,3.08,20.724Z" transform="translate(-65.89 -47.951)" fill="#455a64"/>
          <path id="Trazado_666817" data-name="Trazado 666817" d="M155.02,108.461c0-9.239-1.783-17.164-4.606-20.624l4.067.694s3.808,7,3.808,19.931Z" transform="translate(-89.893 -47.467)" fill="#455a64"/>
          <path id="Trazado_666818" data-name="Trazado 666818" d="M129.687,136.555a49.159,49.159,0,0,0,12.029-.73l.248,6.355-5.48,3.926-6.8-2.536Z" transform="translate(-77.506 -73.399)" fill="#37474f"/>
          <path id="Trazado_666819" data-name="Trazado 666819" d="M102.834,177.557c3.147,1.493,10.8,2.392,16.937,2.317s9.364-1.76,9.364-1.76l-.1,4.275s-10.9,5.219-26.663-.914Z" transform="translate(-61.182 -95.951)" fill="#0b5999"/>
          <path id="Trazado_666821" data-name="Trazado 666821" d="M133.428,216.213l2.919-13.485a10.649,10.649,0,0,0,7.238-2.992s-.386,3.442-5.6,5.283l-2.705,10.711-1.531,20.429Z" transform="translate(-79.742 -107.936)" fill="#37474f"/>
          <path id="Trazado_666822" data-name="Trazado 666822" d="M104.862,87.483l.024.9a37.487,37.487,0,0,1,1.364,6.285c.846,5.825.991,13.458.991,22.081s0,23.7,0,23.7-9.437.689-12.433-7.537l1.218-17.246s-1.731-8.913-2.2-14.012S92.512,92.989,96.688,89.1Z" transform="translate(-55.833 -47.275)" fill="#12263f"/>
          <path id="Trazado_666823" data-name="Trazado 666823" d="M97.717,138.329c.472,2.731.877,4.819.877,4.819l-.046.677a18.21,18.21,0,0,0,11.26,3.366v-2.966c0-.624,0-1.24,0-1.853a17.89,17.89,0,0,1-12.088-4.044" transform="translate(-58.4 -74.752)" fill="#f0f0f0"/>
          <path id="Trazado_666824" data-name="Trazado 666824" d="M110.134,168.523V163.7a18.112,18.112,0,0,1-11.564-3.6l-.308,4.566a17.988,17.988,0,0,0,11.872,3.855" transform="translate(-58.725 -86.519)" fill="#f0f0f0"/>
          <path id="Trazado_666825" data-name="Trazado 666825" d="M144.589,87.245A13.164,13.164,0,0,1,149.9,95.4c1.269,5.711,1.46,10.213,1.635,17.546s-.086,27.783-.086,27.783,2.832-1.412,3.439-2.942c0,0,.795-25.973-.085-35.176S151,88.211,151,88.211a16.389,16.389,0,0,0-6.411-.966" transform="translate(-86.412 -47.147)" fill="#12263f"/>
          <path id="Trazado_666826" data-name="Trazado 666826" d="M161.959,149.353a17.883,17.883,0,0,0,3.639-.493c0-1.608,0-3.229-.018-4.813a17.869,17.869,0,0,1-3.672.488c.025,1.386.041,3.038.05,4.819" transform="translate(-96.763 -77.842)" fill="#f0f0f0"/>
          <path id="Trazado_666827" data-name="Trazado 666827" d="M165.564,169.7c.027-1.479.052-3.115.071-4.836a17.909,17.909,0,0,1-3.6.484c0,1.629-.006,3.264-.012,4.818a17.888,17.888,0,0,0,3.54-.466" transform="translate(-96.832 -89.093)" fill="#f0f0f0"/>
          <path id="Trazado_666828" data-name="Trazado 666828" d="M60.536,86.836c-2.417,0-5.223-.117-6.81,3.863-.516,1.3-2.107,8.915-3.873,15.943A99.469,99.469,0,0,1,43.642,96.5c-.938-2.24-.95-3.752-1.908-6.063a21.251,21.251,0,0,1-1.269-3.971c-.227-.927-.942-.243-1.193.171a4.769,4.769,0,0,0-.68,2.38c-.009.6-.006,1.208-.041,1.8-.031.527-.212.563-.633.3a13.788,13.788,0,0,1-2.308-2.264c-.771-.821-1.658-1.48-2.415-2.309a29.413,29.413,0,0,1-1.754-2.476c-.462-.622-1.252-1.424-1.858-.536-.364.535-.028,1.163.133,1.7a3.221,3.221,0,0,1-.1,1.663,3.525,3.525,0,0,0,.051,2,3.128,3.128,0,0,1,.471,1.81,8.212,8.212,0,0,0-.18,1.877,4.633,4.633,0,0,0,.636,1.4,10.081,10.081,0,0,0,1.518,2.219,19.315,19.315,0,0,0,2.264,2.219c1.937,1.721,2.656,2.258,3.3,2.829.97.856,1.973,3.049,2.538,4.257,1.1,2.348,3.453,8.957,6.629,13.687,1.83,2.725,4.321,3.6,6.517.513a25.1,25.1,0,0,0,2.765-6.12c2.442-7.432,4.211-13.557,4.211-13.557s1.971-6.934.2-13.185" transform="translate(-17.583 -44.924)" fill="#ffa8a7"/>
          <path id="Trazado_666829" data-name="Trazado 666829" d="M44.813,98.666c-.626-1.086-1.048-1.871-1.171-2.166-.938-2.24-.95-3.752-1.908-6.063a21.25,21.25,0,0,1-1.269-3.971c-.227-.927-.942-.243-1.193.171a4.769,4.769,0,0,0-.68,2.38c-.009.6-.007,1.207-.041,1.8-.031.527-.213.563-.633.3a13.773,13.773,0,0,1-2.308-2.264c-.771-.821-1.658-1.479-2.415-2.308a29.493,29.493,0,0,1-1.754-2.477c-.462-.621-1.252-1.424-1.858-.536-.364.535-.028,1.163.133,1.7a3.219,3.219,0,0,1-.1,1.663,3.525,3.525,0,0,0,.051,2,3.129,3.129,0,0,1,.471,1.81,8.218,8.218,0,0,0-.18,1.877,4.637,4.637,0,0,0,.636,1.4,10.064,10.064,0,0,0,1.518,2.218,19.32,19.32,0,0,0,2.264,2.219c1.937,1.72,2.655,2.258,3.3,2.829a14.747,14.747,0,0,1,2.449,4.067,16.489,16.489,0,0,0,4.687-6.642" transform="translate(-17.583 -44.924)" fill="#455a64"/>
          <path id="Trazado_666830" data-name="Trazado 666830" d="M58.277,113.728l-.3-.514s.122-.6.611.257a14.534,14.534,0,0,1,1.14,2.277,7.6,7.6,0,0,1-1.954,4.534,5.592,5.592,0,0,1-3.3,1.757c-.425-.06-.547-.5-.791-1.083s-.855-1.3-.672-1.86l.346.558a6.751,6.751,0,0,0,3.521-2.511,7.194,7.194,0,0,0,1.4-3.415" transform="translate(-31.66 -61.069)" fill="#12263f"/>
          <path id="Trazado_666832" data-name="Trazado 666832" d="M80.2,132.827a23.158,23.158,0,0,1,2.058,8.067c.4-4.188-.712-8.017-1.743-9.307Z" transform="translate(-47.933 -71.109)" fill="#f28f8f"/>
          <path id="Trazado_666833" data-name="Trazado 666833" d="M91.914,89.919a17.8,17.8,0,0,0-4.262,1.038c-1.47.575-2.524,1.152-3.878,6.206-1.3,4.87-2.52,10.413-2.52,10.413s1.289,3.852,7.631,4.594l3.368-10.727s1.053-6.456-.339-11.523" transform="translate(-48.561 -48.592)" fill="#ebebeb"/>
          <path id="Trazado_666834" data-name="Trazado 666834" d="M47.721,101.255A1.445,1.445,0,0,1,46.6,102.9a1.338,1.338,0,0,1-1.436-1.285,1.445,1.445,0,0,1,1.124-1.64,1.338,1.338,0,0,1,1.436,1.284" transform="translate(-26.984 -54.018)" fill="#263238"/>
          <path id="Trazado_666835" data-name="Trazado 666835" d="M122.839,108.193h-1.425a1.491,1.491,0,0,0-1.383,1.579v17.2c0,4.306-3.056,7.8-6.826,7.8H54.433c-3.77,0-6.826-3.491-6.826-7.8V104.578a.3.3,0,1,1,.6,0v22.231c0,4.015,2.85,7.27,6.365,7.27h58.488c3.515,0,6.365-3.255,6.365-7.27V109.773a2.142,2.142,0,0,1,1.986-2.269h2.45a7.266,7.266,0,0,1-1.025.689" transform="translate(-28.452 -56.327)" fill="#37474f"/>
          <path id="Trazado_666836" data-name="Trazado 666836" d="M43.454,100.677a1.128,1.128,0,0,1-.216-2.025,3.061,3.061,0,0,1,3.07-.427,1.129,1.129,0,0,1,.216,2.025,3.06,3.06,0,0,1-3.07.427" transform="translate(-25.522 -52.952)" fill="#37474f"/>
          <path id="Trazado_666837" data-name="Trazado 666837" d="M43.163,99.445a1.163,1.163,0,0,1-.223-2.087,3.155,3.155,0,0,1,3.165-.44A1.163,1.163,0,0,1,46.328,99a3.155,3.155,0,0,1-3.165.44" transform="translate(-25.335 -52.241)" fill="#263238"/>
          <path id="Trazado_666838" data-name="Trazado 666838" d="M42.863,98.176a1.2,1.2,0,0,1-.229-2.151,3.25,3.25,0,0,1,3.262-.454,1.2,1.2,0,0,1,.229,2.151,3.25,3.25,0,0,1-3.262.454" transform="translate(-25.141 -51.51)" fill="#37474f"/>
          <path id="Trazado_666839" data-name="Trazado 666839" d="M42.554,96.867a1.236,1.236,0,0,1-.237-2.217,3.351,3.351,0,0,1,3.362-.468,1.236,1.236,0,0,1,.237,2.217,3.351,3.351,0,0,1-3.362.468" transform="translate(-24.942 -50.755)" fill="#263238"/>
          <path id="Trazado_666840" data-name="Trazado 666840" d="M42.287,95.526a1.261,1.261,0,0,1-.241-2.262,3.42,3.42,0,0,1,3.431-.478,1.261,1.261,0,0,1,.241,2.263,3.419,3.419,0,0,1-3.431.477" transform="translate(-24.772 -49.998)" fill="#37474f"/>
          <path id="Trazado_666841" data-name="Trazado 666841" d="M35.256,61.422c-3.368.469-5.766,3.967-5.355,7.815.589,5.53,4.682,5.892,4.92,8.121a1.163,1.163,0,0,0,.721.9,2.966,2.966,0,0,0,2.975-.414,1.259,1.259,0,0,0,.512-1.067c-.238-2.229,3.659-3.7,3.069-9.233-.41-3.847-3.473-6.586-6.841-6.117" transform="translate(-17.843 -33.164)" fill="#feca2e"/>
          <path id="Trazado_666843" data-name="Trazado 666843" d="M44.014,95.031a.822.822,0,0,1-.157-1.476,2.23,2.23,0,0,1,2.238-.311.822.822,0,0,1,.157,1.476,2.23,2.23,0,0,1-2.238.311" transform="translate(-25.978 -50.295)" fill="#fd9927"/>
          <path id="Trazado_666844" data-name="Trazado 666844" d="M42.584,84.816a.215.215,0,0,1-.231-.2,19.454,19.454,0,0,1,0-4.04,9.738,9.738,0,0,1,.185-1.149,2.56,2.56,0,0,1-.56-.222,3.587,3.587,0,0,1-.892-.665,3.944,3.944,0,0,1-.726.89,2.769,2.769,0,0,1-.5.369,9.274,9.274,0,0,1,.422,1.065,19.1,19.1,0,0,1,.852,3.921.236.236,0,0,1-.187.261.218.218,0,0,1-.228-.213,18.964,18.964,0,0,0-.827-3.8,8.462,8.462,0,0,0-.426-1.06,1.175,1.175,0,0,1-1.195-.226.833.833,0,0,1-.193-.963.543.543,0,0,1,.534-.348c.334.028.692.367,1.032.953a2.322,2.322,0,0,0,.452-.33,3.509,3.509,0,0,0,.691-.866,1.912,1.912,0,0,1-.443-1.286.591.591,0,0,1,.506-.547.546.546,0,0,1,.606.393,1.986,1.986,0,0,1-.16,1.37,3.188,3.188,0,0,0,.853.652,2.154,2.154,0,0,0,.508.2c.206-.661.483-1.089.8-1.208a.515.515,0,0,1,.592.191.845.845,0,0,1,.015.988,1.241,1.241,0,0,1-1.112.547,8.793,8.793,0,0,0-.191,1.146,19.212,19.212,0,0,0,0,3.915.236.236,0,0,1-.177.27h0m-4.026-5.908c-.035.005-.072.028-.109.1a.328.328,0,0,0,.1.367.753.753,0,0,0,.689.16c-.27-.432-.507-.62-.647-.632a.13.13,0,0,0-.03,0M43.1,79a.8.8,0,0,0,.635-.344.337.337,0,0,0,.018-.383c-.068-.083-.117-.079-.157-.064-.134.05-.324.3-.5.791m-2.193-2.173a.148.148,0,0,0-.144.149,1.252,1.252,0,0,0,.241.752,1.3,1.3,0,0,0,.076-.8.138.138,0,0,0-.172-.1" transform="translate(-22.714 -41.26)" fill="#fff"/>
          <path id="Trazado_666845" data-name="Trazado 666845" d="M52.675,52.95a.489.489,0,0,1-.223-.6l.8-2.246a.391.391,0,0,1,.53-.256h0a.489.489,0,0,1,.223.6l-.8,2.245a.391.391,0,0,1-.53.256h0" transform="translate(-31.33 -26.917)" fill="#e0e0e0"/>
          <path id="Trazado_666846" data-name="Trazado 666846" d="M40.685,51.336a.46.46,0,0,1-.249-.366l-.293-2.4a.458.458,0,0,1,.346-.524.42.42,0,0,1,.459.4l.293,2.4a.458.458,0,0,1-.347.524.357.357,0,0,1-.21-.03" transform="translate(-23.989 -25.962)" fill="#e0e0e0"/>
          <path id="Trazado_666847" data-name="Trazado 666847" d="M28.458,56.447a.414.414,0,0,1-.166-.144l-1.3-1.911a.511.511,0,0,1,.071-.652.374.374,0,0,1,.571.081l1.3,1.911a.51.51,0,0,1-.071.652.366.366,0,0,1-.405.063" transform="translate(-16.078 -28.988)" fill="#e0e0e0"/>
          <path id="Trazado_666848" data-name="Trazado 666848" d="M18.491,66a.489.489,0,0,1-.223-.6.391.391,0,0,1,.53-.256l1.966.91h0a.489.489,0,0,1,.222.6.391.391,0,0,1-.53.256L18.492,66h0" transform="translate(-10.9 -35.185)" fill="#e0e0e0"/>
          <path id="Trazado_666849" data-name="Trazado 666849" d="M16.723,79.876a.484.484,0,0,1,.1-.89l2.1-.335a.42.42,0,0,1,.459.4.458.458,0,0,1-.346.524l-2.1.334a.357.357,0,0,1-.21-.03" transform="translate(-9.843 -42.5)" fill="#e0e0e0"/>
          <path id="Trazado_666850" data-name="Trazado 666850" d="M66.5,72.941a.484.484,0,0,1,.1-.89l2.1-.335a.42.42,0,0,1,.459.4.458.458,0,0,1-.346.524l-2.1.334a.357.357,0,0,1-.21-.03" transform="translate(-39.594 -38.752)" fill="#e0e0e0"/>
          <path id="Trazado_666851" data-name="Trazado 666851" d="M61.966,60.858a.41.41,0,0,1-.166-.144.511.511,0,0,1,.071-.652l1.673-1.49a.374.374,0,0,1,.571.081.51.51,0,0,1-.071.652l-1.673,1.49a.366.366,0,0,1-.405.063" transform="translate(-36.883 -31.599)" fill="#e0e0e0"/>
          <path id="Trazado_666852" data-name="Trazado 666852" d="M92.826,178.834,90.7,180.173a1.214,1.214,0,0,0-.483.9c-.054,2.173-.228,10.721.076,14.807a1.322,1.322,0,0,0,.515.907,38.664,38.664,0,0,0,5.982,3.3,1.677,1.677,0,0,0,1.02-.128l1.512-.693a.983.983,0,0,0,.493-.837,129.153,129.153,0,0,1,1.322-14.922.913.913,0,0,0-.4-.867l-6.968-3.84a1.028,1.028,0,0,0-.948.03" transform="translate(-53.861 -96.57)" fill="#455a64"/>
          <path id="Trazado_666853" data-name="Trazado 666853" d="M90.3,198.211c-.3-4.085-.13-12.632-.076-14.806.008-.337.23-.489.494-.339l6.484,3.681a1,1,0,0,1,.433.879c-.137,1.928-.549,9.168-.34,14.283.014.336-.213.6-.5.509a38.676,38.676,0,0,1-5.981-3.3,1.324,1.324,0,0,1-.515-.908" transform="translate(-53.86 -98.897)" fill="#37474f"/>
          <path id="Trazado_666854" data-name="Trazado 666854" d="M106.9,205.2a1.721,1.721,0,0,0,.941-.144l1.513-.695a1.018,1.018,0,0,0,.489-.835c.3-4.455.692-10.2,1.325-14.921a.859.859,0,0,0-.077-.473l-3.51,1.828a.941.941,0,0,1,.076.43c-.139,1.932-.55,9.173-.339,14.288.014.3-.172.549-.418.521" transform="translate(-63.888 -101.668)" fill="#263238"/>
          <path id="Trazado_666855" data-name="Trazado 666855" d="M92.387,186.909l5.681,3.026-.275,5.518-5.561-2.729s.055-3.941.155-5.816" transform="translate(-55.122 -101.005)" fill="#263238"/>
          <path id="Trazado_666856" data-name="Trazado 666856" d="M98.206,195.277l-5.315-2.605s.051-3.606.138-5.466l5.433,2.89Z" transform="translate(-55.515 -101.165)" fill="#feca2e"/>
          <path id="Trazado_666858" data-name="Trazado 666858" d="M98.422,191.513l-1.192,1.969.75.3-.583,1.735,1.332-2.05-.75-.321Z" transform="translate(-58.109 -103.493)" fill="#fafafa"/>
          <path id="Trazado_666859" data-name="Trazado 666859" d="M103.093,207.235l-.033.546c-.01.168-.129.252-.266.188l-.861-.4a.464.464,0,0,1-.231-.42l.029-.56c.008-.168.126-.252.262-.187l.873.415a.463.463,0,0,1,.228.421" transform="translate(-60.781 -111.525)" fill="#263238"/>
          <path id="Trazado_666860" data-name="Trazado 666860" d="M103.112,211.132l-.026.546c-.008.168-.126.255-.263.193l-.866-.388a.463.463,0,0,1-.237-.416l.021-.559c.006-.168.122-.254.26-.192l.878.4a.46.46,0,0,1,.233.417" transform="translate(-60.792 -113.643)" fill="#263238"/>
          <path id="Trazado_666861" data-name="Trazado 666861" d="M103.13,215.027l-.019.547c-.006.168-.122.256-.26.2l-.871-.373a.46.46,0,0,1-.243-.411l.014-.56c0-.169.119-.256.257-.2l.883.384a.457.457,0,0,1,.239.413" transform="translate(-60.803 -115.759)" fill="#263238"/>
          <path id="Trazado_666862" data-name="Trazado 666862" d="M103.15,218.924l-.011.547c0,.168-.119.259-.258.2l-.876-.358a.458.458,0,0,1-.248-.407l.006-.56c0-.168.115-.258.254-.2l.888.368a.455.455,0,0,1,.245.409" transform="translate(-60.814 -117.876)" fill="#263238"/>
          <path id="Trazado_666863" data-name="Trazado 666863" d="M98.323,205.048l-.026.569c-.007.168-.124.252-.26.188l-.855-.4a.478.478,0,0,1-.236-.421l.021-.583c.006-.168.121-.252.257-.187l.867.415a.475.475,0,0,1,.232.422" transform="translate(-57.939 -110.342)" fill="#263238"/>
          <path id="Trazado_666864" data-name="Trazado 666864" d="M98.307,208.9l-.023.569c-.007.168-.123.253-.259.189l-.857-.4a.477.477,0,0,1-.237-.42l.018-.583c.005-.168.12-.252.256-.188l.869.411a.473.473,0,0,1,.234.421" transform="translate(-57.929 -112.427)" fill="#263238"/>
          <path id="Trazado_666865" data-name="Trazado 666865" d="M98.29,212.752l-.021.57c-.006.168-.122.253-.259.19l-.858-.4a.476.476,0,0,1-.239-.419l.016-.583c0-.168.119-.253.256-.189l.87.406a.472.472,0,0,1,.236.42" transform="translate(-57.919 -114.512)" fill="#263238"/>
          <path id="Trazado_666866" data-name="Trazado 666866" d="M98.273,216.6l-.019.57c-.006.168-.121.254-.258.192l-.86-.391a.475.475,0,0,1-.241-.417l.014-.583c0-.168.117-.253.254-.19l.872.4a.471.471,0,0,1,.237.418" transform="translate(-57.908 -116.597)" fill="#263238"/>
          <path id="Trazado_666867" data-name="Trazado 666867" d="M93.553,202.86l-.017.593c0,.168-.119.252-.255.187l-.85-.405a.487.487,0,0,1-.24-.422l.012-.607c0-.168.116-.251.251-.186l.861.417a.485.485,0,0,1,.237.423" transform="translate(-55.097 -109.158)" fill="#263238"/>
          <path id="Trazado_666868" data-name="Trazado 666868" d="M93.567,206.6l-.017.593c0,.168-.119.252-.255.187l-.85-.405a.487.487,0,0,1-.24-.422l.012-.607c0-.168.116-.251.252-.186l.861.417a.486.486,0,0,1,.237.423" transform="translate(-55.105 -111.179)" fill="#263238"/>
          <path id="Trazado_666869" data-name="Trazado 666869" d="M93.581,210.339l-.017.593c0,.168-.119.252-.255.187l-.85-.405a.487.487,0,0,1-.24-.422l.012-.607c0-.168.116-.251.251-.186l.862.417a.486.486,0,0,1,.237.423" transform="translate(-55.114 -113.2)" fill="#263238"/>
          <path id="Trazado_666870" data-name="Trazado 666870" d="M93.594,214.078l-.017.593c0,.168-.119.252-.255.187l-.85-.405a.487.487,0,0,1-.24-.422l.012-.607c0-.168.116-.251.252-.186l.861.417a.486.486,0,0,1,.237.423" transform="translate(-55.121 -115.221)" fill="#263238"/>
        </g>
      </g>
      <g id="Grupo_908993" data-name="Grupo 908993">
        <g id="Grupo_908992" data-name="Grupo 908992" clip-path="url(#clip-path)">
          <path id="Trazado_666871" data-name="Trazado 666871" d="M331.471,343.9l-3.711-1.442c-.317-4.062.14-13.906,5.923-19.684,5.87-5.865,9.7-2.1,9.59.44-.123,2.8-5.388,5.424-8.056,9.2-2.9,4.108-3.808,6.913-3.746,11.483" transform="translate(-195.838 -172.744)" fill="#ba68c8"/>
          <g id="Grupo_908973" data-name="Grupo 908973" transform="translate(131.847 146.919)" opacity="0.5">
            <g id="Grupo_908972" data-name="Grupo 908972">
              <g id="Grupo_908971" data-name="Grupo 908971" clip-path="url(#clip-path-27)">
                <path id="Trazado_666872" data-name="Trazado 666872" d="M331.471,343.9l-3.711-1.442c-.317-4.062.14-13.906,5.923-19.684,5.87-5.865,9.7-2.1,9.59.44-.123,2.8-5.388,5.424-8.056,9.2-2.9,4.108-3.808,6.913-3.746,11.483" transform="translate(-327.685 -319.663)" fill="#4dd0e1"/>
              </g>
            </g>
          </g>
          <path id="Trazado_666873" data-name="Trazado 666873" d="M330.583,345.679h0a.218.218,0,0,1-.2-.231c.052-10.931,7.161-20.494,10.7-21.113a.206.206,0,0,1,.229.192.227.227,0,0,1-.168.262c-3.47.608-10.309,10.338-10.358,20.662a.217.217,0,0,1-.2.229" transform="translate(-197.45 -175.268)" fill="#fff"/>
          <path id="Trazado_666874" data-name="Trazado 666874" d="M341.831,350.834c-3.206-1.21-10.22,2.813-11.578,8.738l2.753,1.059a14.481,14.481,0,0,1,7.761-3.788c4.535-.527,4.269-4.8,1.063-6.008" transform="translate(-197.373 -189.472)" fill="#ba68c8"/>
          <g id="Grupo_908976" data-name="Grupo 908976" transform="translate(132.881 161.146)" opacity="0.65">
            <g id="Grupo_908975" data-name="Grupo 908975">
              <g id="Grupo_908974" data-name="Grupo 908974" clip-path="url(#clip-path-28)">
                <path id="Trazado_666875" data-name="Trazado 666875" d="M341.831,350.834c-3.206-1.21-10.22,2.813-11.578,8.738l2.753,1.059a14.481,14.481,0,0,1,7.761-3.788c4.535-.527,4.269-4.8,1.063-6.008" transform="translate(-330.254 -350.619)" fill="#0b5999"/>
              </g>
            </g>
          </g>
          <path id="Trazado_666876" data-name="Trazado 666876" d="M333.077,362.861a.178.178,0,0,1-.092-.026.246.246,0,0,1-.086-.31c2.755-6.082,8.74-7.877,11.175-7.134a.235.235,0,0,1,.143.281.2.2,0,0,1-.247.163c-2.327-.712-8.055,1.035-10.714,6.9a.2.2,0,0,1-.179.125" transform="translate(-198.94 -191.966)" fill="#fff"/>
          <path id="Trazado_666877" data-name="Trazado 666877" d="M325.653,224.186v67.966a1.289,1.289,0,0,0,.659,1.05,3.131,3.131,0,0,0,3.183,0,1.288,1.288,0,0,0,.659-1.05V224.186Z" transform="translate(-194.623 -121.149)" fill="#455a64"/>
          <path id="Trazado_666878" data-name="Trazado 666878" d="M325.653,236.926l4.5-2.969v-9.771h-4.5Z" transform="translate(-194.624 -121.149)" fill="#37474f"/>
          <path id="Trazado_666879" data-name="Trazado 666879" d="M310.024,150.8l31.053-20.48V66.838l-31.054,20.48Z" transform="translate(-185.282 -36.119)" fill="#feca2e"/>
          <path id="Trazado_666880" data-name="Trazado 666880" d="M320.321,56l-13.974-9.216-31.053,20.48,13.974,9.216Z" transform="translate(-164.526 -25.283)" fill="#f3c128"/>
          <path id="Trazado_666882" data-name="Trazado 666882" d="M275.293,91.345v63.487l13.974,9.216V100.561Z" transform="translate(-164.526 -49.363)" fill="#dcb028"/>
          <path id="Trazado_666884" data-name="Trazado 666884" d="M342.128,102.751l-11.516,34.216,7.243-6.69-5.63,24.192L345.1,117.68l-7.243,6.453Z" transform="translate(-197.587 -55.526)" fill="#fafafa"/>
          <path id="Trazado_666885" data-name="Trazado 666885" d="M314.659,112.369c.429-.283.777-.053.777.512a2.029,2.029,0,0,1-.777,1.536c-.429.283-.777.053-.777-.512a2.029,2.029,0,0,1,.777-1.536" transform="translate(-187.589 -60.658)" fill="#37474f"/>
          <path id="Trazado_666886" data-name="Trazado 666886" d="M314.659,237.141c.429-.283.777-.054.777.512a2.029,2.029,0,0,1-.777,1.536c-.429.283-.777.053-.777-.512a2.029,2.029,0,0,1,.777-1.536" transform="translate(-187.589 -128.084)" fill="#37474f"/>
          <path id="Trazado_666887" data-name="Trazado 666887" d="M380.266,74.491c.429-.283.776-.053.776.512a2.029,2.029,0,0,1-.776,1.536c-.429.283-.777.053-.777-.512a2.029,2.029,0,0,1,.777-1.536" transform="translate(-226.798 -40.189)" fill="#37474f"/>
          <path id="Trazado_666888" data-name="Trazado 666888" d="M380.266,199.262c.429-.283.776-.053.776.512a2.029,2.029,0,0,1-.776,1.536c-.429.283-.777.053-.777-.512a2.029,2.029,0,0,1,.777-1.536" transform="translate(-226.798 -107.615)" fill="#37474f"/>
          <path id="Trazado_666889" data-name="Trazado 666889" d="M366.445,31.923V76.978l17.079-11.264V2.228L352.47,22.707Z" transform="translate(-210.651 -1.204)" fill="#feca2e"/>
          <path id="Trazado_666890" data-name="Trazado 666890" d="M381.218,1.024,350.165,21.5l-1.553-1.024L379.666,0Z" transform="translate(-208.345 0)" fill="#f3c128"/>
          <path id="Trazado_666892" data-name="Trazado 666892" d="M348.612,46.606V44.558l1.553,1.024Z" transform="translate(-208.344 -24.079)" fill="#dcb028"/>
          <g id="Grupo_908991" data-name="Grupo 908991" transform="translate(141.82 21.504)" opacity="0.2">
            <g id="Grupo_908990" data-name="Grupo 908990">
              <g id="Grupo_908989" data-name="Grupo 908989" clip-path="url(#clip-path-29)">
                <path id="Trazado_666894" data-name="Trazado 666894" d="M352.471,46.787l20,6.267V97.085l-6.023,3.972V56Z" transform="translate(-352.471 -46.787)" fill="#f3c128"/>
              </g>
            </g>
          </g>
        </g>
      </g>
    </g>
  </g>
</svg>
