<svg xmlns="http://www.w3.org/2000/svg" width="187.707" height="221.144" viewBox="0 0 187.707 221.144">
  <g id="Grupo_908351" data-name="Grupo 908351" transform="translate(11056 9152)">
    <path id="Trazado_665058" data-name="Trazado 665058" d="M139.251,247.135l-.034,12.109-10.287,5.978.034-12.109Z" transform="translate(-11101.402 -9239.028)" fill="#fbc70e"/>
    <path id="Trazado_665059" data-name="Trazado 665059" d="M116.8,249.343l-.034,12.109L94.4,248.536l.034-12.109Z" transform="translate(-11089.243 -9235.258)" fill="#ffb700"/>
    <path id="Trazado_665060" data-name="Trazado 665060" d="M127.111,240.115l-10.287,5.978-22.37-12.916,10.287-5.978Z" transform="translate(-11089.262 -9232.008)" fill="#ffd438"/>
    <path id="Trazado_665061" data-name="Trazado 665061" d="M139.687,242.85l-.035,3.456-10.515,6.111.035-3.456Z" transform="translate(-11101.476 -9237.52)" fill="#353541"/>
    <path id="Trazado_665062" data-name="Trazado 665062" d="M116.742,245.107l-.035,3.456-22.867-13.2.035-3.456Z" transform="translate(-11089.046 -9233.665)" fill="#2e2e37"/>
    <path id="Trazado_665063" data-name="Trazado 665063" d="M127.277,235.674l-10.515,6.111-22.867-13.2,10.515-6.111Z" transform="translate(-11089.064 -9230.344)" fill="#494952"/>
    <path id="Trazado_665064" data-name="Trazado 665064" d="M131.359,236.191l-1.2.694-7.686,4.468-12.348-7.13V223.935Z" transform="translate(-11094.78 -9230.858)" fill="#222229"/>
    <path id="Trazado_665065" data-name="Trazado 665065" d="M96.419,229.1l8.881-5.162v10.289l-7.687-4.438Z" transform="translate(-11089.954 -9230.858)" fill="#353541"/>
    <path id="Trazado_665066" data-name="Trazado 665066" d="M125.984,237.636,118.3,242.1,98.263,230.537l7.686-4.468Z" transform="translate(-11090.604 -9231.61)" fill="#2e2e37"/>
    <path id="Trazado_665067" data-name="Trazado 665067" d="M104.329,242.113l-.013,1.785.533-.31.014-1.785Z" transform="translate(-11092.735 -9237.15)" fill="#222229"/>
    <path id="Trazado_665068" data-name="Trazado 665068" d="M99.01,239.028l.533-.31,3.45,2-.533.309Z" transform="translate(-11090.866 -9236.064)" fill="#494952"/>
    <path id="Trazado_665069" data-name="Trazado 665069" d="M102.454,241.2l-.013,1.784-3.45-2L99,239.2Z" transform="translate(-11090.859 -9236.232)" fill="#2e2e37"/>
    <path id="Trazado_665070" data-name="Trazado 665070" d="M123.069,253.012l-.013,1.784.533-.31.014-1.784Z" transform="translate(-11099.334 -9240.989)" fill="#222229"/>
    <path id="Trazado_665071" data-name="Trazado 665071" d="M117.75,249.926l.533-.31,3.45,2-.533.31Z" transform="translate(-11097.465 -9239.902)" fill="#494952"/>
    <path id="Trazado_665072" data-name="Trazado 665072" d="M121.194,252.093l-.013,1.784-3.45-2,.013-1.784Z" transform="translate(-11097.459 -9240.07)" fill="#2e2e37"/>
    <path id="Trazado_665073" data-name="Trazado 665073" d="M124.881,243.425l2.08-1.2v-.217l-2.08,1.2Z" transform="translate(-11099.978 -9237.223)" fill="#3b3b45"/>
    <path id="Trazado_665074" data-name="Trazado 665074" d="M123.357,243.2l.988.57v-.217l-.988-.57Z" transform="translate(-11099.439 -9237.565)" fill="#222229"/>
    <path id="Trazado_665075" data-name="Trazado 665075" d="M124.344,242.9l2.08-1.2-.987-.571-.063.037-2.017,1.164Z" transform="translate(-11099.439 -9236.911)" fill="#494952"/>
    <path id="Trazado_665076" data-name="Trazado 665076" d="M112.969,236.5l2.08-1.2v-.217l-2.08,1.2Z" transform="translate(-11095.782 -9234.784)" fill="#3b3b45"/>
    <path id="Trazado_665077" data-name="Trazado 665077" d="M111.444,236.277l.988.57v-.217l-.988-.57Z" transform="translate(-11095.245 -9235.128)" fill="#222229"/>
    <path id="Trazado_665078" data-name="Trazado 665078" d="M112.432,235.977l2.08-1.2-.987-.57-.063.037-2.017,1.164Z" transform="translate(-11095.245 -9234.476)" fill="#494952"/>
    <path id="Trazado_665079" data-name="Trazado 665079" d="M113.071,230.562l1.566-.91-.01,3.584-1.566.91Z" transform="translate(-11095.814 -9232.871)" fill="#ffa200"/>
    <path id="Trazado_665080" data-name="Trazado 665080" d="M125.017,236.411l1.566-.91-.012,4.262-1.566.91Z" transform="translate(-11100.02 -9234.932)" fill="#fbc70e"/>
    <path id="Trazado_665081" data-name="Trazado 665081" d="M112.168,228.988l1.566-.91,8.328,4.809-1.566.91Z" transform="translate(-11095.5 -9232.317)" fill="#ffd438"/>
    <path id="Trazado_665082" data-name="Trazado 665082" d="M120.49,234.291l-.012,4.262-.591-.341.01-3.584L112.75,230.5l-.01,3.585-.59-.341.012-4.262Z" transform="translate(-11095.493 -9232.813)" fill="#ffb700"/>
    <path id="Trazado_665083" data-name="Trazado 665083" d="M91.973,0,.045,53.074l3.764,2.114L95.765,2.1Z" transform="translate(-11056.017 -9152)" fill="#f2f2f2"/>
    <path id="Trazado_665084" data-name="Trazado 665084" d="M0,81.941V194.71l3.793,2.19V84.037L.029,81.924Z" transform="translate(-11056 -9180.849)" fill="#bfbfbf"/>
    <path id="Trazado_665085" data-name="Trazado 665085" d="M0,253.576l95.75,55.282v-6.68L3.793,249.086Z" transform="translate(-11056 -9239.715)" fill="#bfbfbf"/>
    <path id="Trazado_665086" data-name="Trazado 665086" d="M147.8,302.179v6.679l91.957-53.091v-6.68Z" transform="translate(-11108.046 -9239.715)" fill="#cacaca"/>
    <path id="Trazado_665087" data-name="Trazado 665087" d="M5.854,220.228,97.812,273.32l91.957-53.092L97.812,167.137Z" transform="translate(-11058.062 -9210.857)" fill="#afafaf"/>
    <path id="Trazado_665088" data-name="Trazado 665088" d="M97.824,3.23V109.414L5.867,162.506V56.322L27.631,43.757l.328-.19.857-.5.328-.187.857-.5.328-.19Z" transform="translate(-11058.066 -9153.137)" fill="#cacaca"/>
    <path id="Trazado_665089" data-name="Trazado 665089" d="M103.954,180.235l-15.973,9.222v4.665l15.973-9.222Z" transform="translate(-11086.982 -9215.47)" fill="#494952"/>
    <path id="Trazado_665090" data-name="Trazado 665090" d="M137.091,246.35c.082.045.163.094.238.145l-.238-.145" transform="translate(-11104.276 -9238.752)" fill="#3c3c45"/>
    <path id="Trazado_665091" data-name="Trazado 665091" d="M210.979,218.259l-21.222,12.253a5.308,5.308,0,0,1-4.88,0l-28.5-16.457-.657-.378-.794-.459-.657-.378-.792-.456L152.82,212l-.792-.457-.656-.378-.792-.459-.657-.378-.792-.457-.66-.381-39.391-22.746-4.043-2.332.657-.378,4.04,2.332,39.393,22.746.657.378.792.456.657.382.794.456.657.381.792.457.657.381.792.457.656.377.795.46.654.378,28.175,16.267a4.679,4.679,0,0,0,4.223,0l20.894-12.063Z" transform="translate(-11092.989 -9216.809)" fill="#636363"/>
    <path id="Trazado_665092" data-name="Trazado 665092" d="M212.086,219.82l-22.69,13.1a5.334,5.334,0,0,1-4.88,0l-30.408-17.557-.657-.378-.794-.46-.658-.377-.791-.457-.657-.381-.792-.457-.657-.381-.791-.457-.657-.381-.792-.456-.66-.378-39.393-22.746-4.037-2.332.654-.381,4.039,2.332,39.394,22.746.66.381.792.456.656.378.792.46.657.378.792.457.66.381.788.456.656.382.795.456.657.378,30.08,17.37a4.689,4.689,0,0,0,4.223,0l22.365-12.914Z" transform="translate(-11092.191 -9217.27)" fill="#636363"/>
    <path id="Trazado_665093" data-name="Trazado 665093" d="M213.277,221.5,189,235.524a5.334,5.334,0,0,1-4.88,0l-32.464-18.743L151,216.4l-.795-.46-.656-.377-.792-.457-.657-.381-.792-.456-.657-.382-.794-.456-.657-.382-.792-.456-.657-.381-39.394-22.743-4.039-2.332.658-.382,4.039,2.332,39.393,22.746.657.381.792.457.66.377.792.46.657.378.792.457.657.381.791.457.657.381.8.456.656.378,32.132,18.556a4.689,4.689,0,0,0,4.223,0l23.952-13.83Z" transform="translate(-11091.327 -9217.768)" fill="#636363"/>
    <path id="Trazado_665094" data-name="Trazado 665094" d="M214.5,223.137l-25.755,14.868a5.334,5.334,0,0,1-4.88,0L149.381,218.1l-.657-.378-.795-.46-.657-.378-.788-.457-.66-.381-.791-.456-.657-.381-.792-.457-.657-.381-.791-.457-.661-.378-39.39-22.746-4.043-2.332.656-.378,4.037,2.332,39.4,22.743.657.381.792.457.657.381.791.457.657.38.795.457.657.381.792.457.657.378.791.46.657.378,34.155,19.718a4.69,4.69,0,0,0,4.224,0l25.426-14.68Z" transform="translate(-11090.526 -9218.232)" fill="#636363"/>
    <path id="Trazado_665095" data-name="Trazado 665095" d="M148.136,234.223a1.911,1.911,0,0,1-1.107,1.6l-52.2,30.139-.657-.378L146.7,235.254a1.07,1.07,0,0,0,0-2.06l-10.319-5.958-.657-.378-.792-.459-.656-.378-.792-.457-.66-.381-.792-.457-.657-.38-.791-.457-.657-.378-.792-.46-.657-.378L89.087,199.929l-1.107-.637v-.755l1.757,1.015,39.4,22.743.66.381.792.457.656.381.792.456.657.378.792.459.657.378.791.457.657.381.795.456.657.381,9.991,5.767a1.907,1.907,0,0,1,1.107,1.6" transform="translate(-11086.981 -9221.915)" fill="#636363"/>
    <path id="Trazado_665096" data-name="Trazado 665096" d="M151.887,233.419a1.913,1.913,0,0,1-1.11,1.6L96.92,266.12l-.66-.381,54.189-31.291a1.067,1.067,0,0,0,0-2.056l-12.4-7.159-.657-.381-.795-.457-.657-.381-.792-.456-.656-.378-.792-.46-.657-.378-.792-.459-.657-.378-.791-.456-.66-.381L92.151,198.732l-1.4-.808-2.772-1.6v-.759l3.425,1.977,1.074.621,38.32,22.122.66.381.791.456.657.381.792.457.657.381.791.457.66.381.792.457.657.377.792.46.657.378,12.073,6.969a1.913,1.913,0,0,1,1.11,1.6" transform="translate(-11086.981 -9220.868)" fill="#636363"/>
    <path id="Trazado_665097" data-name="Trazado 665097" d="M155.61,232.96a1.9,1.9,0,0,1-1.107,1.6l-55.444,32.01-.657-.377,55.772-32.2a1.07,1.07,0,0,0,0-2.059l-14.375-8.3-.656-.381-.795-.457-.657-.381-.792-.456-.657-.382-.795-.456-.653-.378-.795-.46-.657-.378-.792-.456-.657-.381L93.936,197.15l-1.432-.831-4.043-2.332.657-.378,4.037,2.332,1.11.641,38.287,22.106.657.378.792.459.657.378.791.457.657.381.792.457.66.381.792.456.657.378.791.46.657.378,14.05,8.112a1.909,1.909,0,0,1,1.107,1.6" transform="translate(-11087.151 -9220.179)" fill="#636363"/>
    <path id="Trazado_665098" data-name="Trazado 665098" d="M192.333,244.864l-.657.378-44.658-25.785-.657-.377-.795-.46-.656-.378-.788-.457-.66-.381-.791-.456-.658-.381-.791-.457-.657-.381-.792-.457-.66-.378L99.723,192.15l-4.043-2.332.657-.381,4.04,2.335,39.393,22.743.657.381.792.457.657.381.795.456.653.378.795.459.657.378.791.457.658.381.794.457.657.381Z" transform="translate(-11089.694 -9218.71)" fill="#fd9927"/>
    <path id="Trazado_665099" data-name="Trazado 665099" d="M189.943,246.248l-.657.378-44.658-25.784-.657-.381-.791-.456-.657-.381-.792-.457-.66-.381-.792-.456-.657-.378-.791-.46-.657-.378-.792-.457-.66-.381-39.39-22.743-4.04-2.335.654-.378,4.04,2.332L137.379,215.9l.657.378.795.46.657.378.791.456.657.382.792.456.657.381.791.457.658.378.794.46.657.377Z" transform="translate(-11088.853 -9219.197)" fill="#636363"/>
    <path id="Trazado_665100" data-name="Trazado 665100" d="M187.528,247.642l-.657.378-44.658-25.787-.656-.378-.792-.456-.66-.381-.788-.457-.66-.381-.791-.457-.657-.377-.792-.46-.657-.378-.792-.457-.66-.381L94.917,194.925l-4.043-2.332.657-.378,4.039,2.332,39.393,22.746.657.378.792.46.657.378.795.456.656.382.792.456.657.381.792.457.657.378.794.459.657.378Z" transform="translate(-11088.002 -9219.688)" fill="#636363"/>
    <path id="Trazado_665101" data-name="Trazado 665101" d="M92.692,73.112h-.328V52.742L60,71.377l-.164-.284L92.692,52.173Z" transform="translate(-11077.072 -9170.373)" fill="#0b5999"/>
    <path id="Trazado_665102" data-name="Trazado 665102" d="M72.24,56.038v17.7l-3.215,1.859V61.608l-9.872,5.671v48.678l-.082.046L31.29,132.044v8.368h-.328v-8.558l.082-.05,27.781-16.036V67.089L69.353,61.04V75.024l2.558-1.482V56.606L56.263,65.611v48.678l-.082.046L5.867,143.384V143l50.067-28.9V65.424l.082-.049Z" transform="translate(-11058.066 -9171.733)" fill="#0b5999"/>
    <path id="Trazado_665103" data-name="Trazado 665103" d="M34.736,144.972h-.328v-9.591L67.43,116.293V67.616l.082-.047L80.847,59.9V75.832h-.329V60.466l-12.761,7.34v48.676L34.736,135.57Z" transform="translate(-11068.116 -9173.094)" fill="#0b5999"/>
    <path id="Trazado_665104" data-name="Trazado 665104" d="M43.121,63.568l.328-.19v68.36a.165.165,0,0,1-.164.165.167.167,0,0,1-.165-.165Z" transform="translate(-11071.186 -9174.318)" fill="#0b5999"/>
    <path id="Trazado_665105" data-name="Trazado 665105" d="M41.619,64.437v68.291a.164.164,0,0,1-.328,0v-68.1Z" transform="translate(-11070.541 -9174.691)" fill="#0b5999"/>
    <path id="Trazado_665106" data-name="Trazado 665106" d="M39.789,65.492v68.295a.164.164,0,0,1-.328,0v-68.1Z" transform="translate(-11069.896 -9175.063)" fill="#0b5999"/>
    <path id="Trazado_665107" data-name="Trazado 665107" d="M135.855,24.506v.381L114.193,37.393V58.813h-.328V37.2l.082-.046Z" transform="translate(-11096.097 -9160.63)" fill="#0b5999"/>
    <path id="Trazado_665108" data-name="Trazado 665108" d="M116.175,39.022V57.44l3.323-1.918V40.957l17.17-9.912v-.38L119.253,40.72l-.082.049V55.331L118,56.009l-.328.187-1.169.676V39.213L136.669,27.57v-.378L116.258,38.976Z" transform="translate(-11096.912 -9161.576)" fill="#0b5999"/>
    <path id="Trazado_665109" data-name="Trazado 665109" d="M118.569,40.795l18.913-10.92v.378L118.815,41.031v16.2h-.328V40.841Z" transform="translate(-11097.726 -9162.521)" fill="#0b5999"/>
    <path id="Trazado_665110" data-name="Trazado 665110" d="M101.841,81.947l-4.127-2.4L97.8,110.19l4.127,2.4Z" transform="translate(-11090.41 -9180.014)" fill="#c2c6d7"/>
    <path id="Trazado_665111" data-name="Trazado 665111" d="M120.8,65.089l-4.127-2.4L97.714,73.623l4.127,2.4Z" transform="translate(-11090.41 -9174.077)" fill="#f7f7f7"/>
    <path id="Trazado_665112" data-name="Trazado 665112" d="M104.084,78.058l.079,27.853,16.58-9.573-.078-27.853Z" transform="translate(-11092.653 -9176.117)" fill="#938fa3"/>
    <path id="Trazado_665113" data-name="Trazado 665113" d="M104.216,123.823l18.981-10.97-2.4-1.388-16.577,9.582Z" transform="translate(-11092.7 -9191.252)" fill="#f7f7f7"/>
    <path id="Trazado_665114" data-name="Trazado 665114" d="M132.163,96.98l-.111-30.589-2.375,1.356.081,27.845Z" transform="translate(-11101.666 -9175.38)" fill="#c2c6d7"/>
    <path id="Trazado_665115" data-name="Trazado 665115" d="M111.033,93.138a.918.918,0,0,0,.456-.139l8.016-4.628a2.147,2.147,0,0,0,.97-1.679v-2.7h-.163v2.7a1.967,1.967,0,0,1-.888,1.538l-8.017,4.628a.487.487,0,0,1-.806-.465V90.146h-.163v2.247a.73.73,0,0,0,.313.672.562.562,0,0,0,.282.073" transform="translate(-11094.891 -9181.578)" fill="#3b3b45"/>
    <path id="Trazado_665116" data-name="Trazado 665116" d="M118.565,90.3a.762.762,0,0,0,.374-.113l4.08-2.356a1.745,1.745,0,0,0,.788-1.364V82.313h-.163v4.152a1.563,1.563,0,0,1-.706,1.223l-4.08,2.356a.376.376,0,0,1-.625-.36V86.026h-.163v3.658a.6.6,0,0,0,.26.554.463.463,0,0,0,.235.061" transform="translate(-11097.579 -9180.986)" fill="#0b5999"/>
    <path id="Trazado_665117" data-name="Trazado 665117" d="M117.3,112.187a.783.783,0,0,0,.386-.117l3.112-1.8a1.8,1.8,0,0,0,.814-1.41v-3.144h-.163v3.144a1.621,1.621,0,0,1-.733,1.269l-3.112,1.8a.392.392,0,0,1-.65-.376V108.61h-.163v2.943a.62.62,0,0,0,.267.571.479.479,0,0,0,.242.063" transform="translate(-11097.128 -9189.229)" fill="#3b3b45"/>
    <path id="Trazado_665118" data-name="Trazado 665118" d="M121.873,104.607l.588-.339a2.676,2.676,0,0,0,1.208-2.093v-10.5a.681.681,0,0,0-1.109-.64L116.738,94.4a.524.524,0,0,1-.865-.5V90.6h-.163v3.3a.682.682,0,0,0,1.108.641l5.823-3.362a.523.523,0,0,1,.864.5v10.5a2.494,2.494,0,0,1-1.127,1.952l-.588.339Z" transform="translate(-11096.748 -9183.902)" fill="#fd9927"/>
    <path id="Trazado_665119" data-name="Trazado 665119" d="M113.743,115.026a1.983,1.983,0,0,0,.989-1.712v-4.43h-.163v4.43a1.819,1.819,0,0,1-.907,1.571Z" transform="translate(-11096.026 -9190.343)" fill="#3b3b45"/>
    <path id="Trazado_665120" data-name="Trazado 665120" d="M122.564,111.218a.965.965,0,0,0,.479-.145l1.022-.59-.082-.141-1.022.59a.523.523,0,0,1-.864-.5v-3.151h-.163v3.151a.768.768,0,0,0,.331.707.588.588,0,0,0,.3.077" transform="translate(-11098.938 -9189.778)" fill="#fe4340"/>
    <path id="Trazado_665121" data-name="Trazado 665121" d="M116.093,112.607l1.784-1.03a1.2,1.2,0,0,0,.6-1.033V107.26h-.163v3.285a1.032,1.032,0,0,1-.514.891l-1.784,1.03Z" transform="translate(-11096.854 -9189.771)" fill="#fe4340"/>
    <path id="Trazado_665122" data-name="Trazado 665122" d="M121.971,112.151l.817-.472a1.2,1.2,0,0,0,.6-1.033v-3.285h-.163v3.285a1.032,1.032,0,0,1-.514.891l-.817.472Z" transform="translate(-11098.923 -9189.807)" fill="#1a7acd"/>
    <path id="Trazado_665123" data-name="Trazado 665123" d="M121.422,110.343a1.465,1.465,0,0,0,.719-.219l1.195-.69-.082-.141-1.195.69a.846.846,0,0,1-1.4-.806v-2.538H120.5v2.538a1.143,1.143,0,0,0,.486,1.053.861.861,0,0,0,.436.113" transform="translate(-11098.434 -9189.553)" fill="#3b3b45"/>
    <path id="Trazado_665124" data-name="Trazado 665124" d="M106.523,110.149a.518.518,0,0,0,.26-.071l5.785-3.34-.081-.141-5.785,3.34a.359.359,0,0,1-.537-.31V100.6a1.032,1.032,0,0,1,.5-.88l3.379-2.043a1.2,1.2,0,0,0,.575-1.02V90.6h-.163v6.057a1.035,1.035,0,0,1-.5.88l-3.379,2.043A1.2,1.2,0,0,0,106,100.6v9.031a.523.523,0,0,0,.522.522" transform="translate(-11093.328 -9183.902)" fill="#fd9927"/>
    <path id="Trazado_665125" data-name="Trazado 665125" d="M110.907,109.475a.519.519,0,0,0,.261-.071l6.752-3.9-.082-.141-6.752,3.9a.359.359,0,0,1-.538-.31V98.493a1.035,1.035,0,0,1,.5-.88l3.379-2.043a1.2,1.2,0,0,0,.575-1.02V88.492h-.163v6.057a1.034,1.034,0,0,1-.5.88l-3.379,2.043a1.2,1.2,0,0,0-.575,1.02v10.46a.524.524,0,0,0,.522.522" transform="translate(-11094.872 -9183.163)" fill="#0b5999"/>
    <path id="Trazado_665126" data-name="Trazado 665126" d="M120.894,101.985l1.388-.8a3.452,3.452,0,0,0,1.559-2.7V90.605a1,1,0,0,0-1.64-.947l-7.075,4.084a.846.846,0,0,1-1.4-.806V85.487h-.163v7.449a1,1,0,0,0,1.64.947l7.075-4.084a.846.846,0,0,1,1.4.806v7.879a3.271,3.271,0,0,1-1.477,2.559l-1.388.8Z" transform="translate(-11095.992 -9182.104)" fill="#3b3b45"/>
    <path id="Trazado_665127" data-name="Trazado 665127" d="M104.084,77.32l.086,30.63L123.151,96.98l-.111-30.589Zm.818.471L122.228,67.8l.1,28.71-17.351,10.028Z" transform="translate(-11092.653 -9175.38)" fill="#e4e6f0"/>
    <path id="Trazado_665128" data-name="Trazado 665128" d="M124.208,105.6l1.15-.664.012,1.628-1.162.671Z" transform="translate(-11099.74 -9188.952)" fill="#222229"/>
    <path id="Trazado_665129" data-name="Trazado 665129" d="M121.309,107.267l1.15-.664.012,1.629-1.162.67Z" transform="translate(-11098.719 -9189.54)" fill="#222229"/>
    <path id="Trazado_665130" data-name="Trazado 665130" d="M118.41,108.934l1.15-.664.012,1.628-1.162.671Z" transform="translate(-11097.698 -9190.127)" fill="#222229"/>
    <path id="Trazado_665131" data-name="Trazado 665131" d="M115.511,110.6l1.15-.664.012,1.628-1.162.671Z" transform="translate(-11096.677 -9190.715)" fill="#222229"/>
    <path id="Trazado_665132" data-name="Trazado 665132" d="M112.612,112.269l1.149-.664.012,1.629-1.162.67Z" transform="translate(-11095.656 -9191.302)" fill="#222229"/>
    <path id="Trazado_665133" data-name="Trazado 665133" d="M102.034,101.136a2.119,2.119,0,0,1-.9-.188A2.478,2.478,0,0,1,99.847,99.1a7.108,7.108,0,0,1,.06-2.258l.227.03a6.95,6.95,0,0,0-.062,2.185,2.254,2.254,0,0,0,1.161,1.681,2.46,2.46,0,0,0,1.83-.03,4.482,4.482,0,0,0,2.853-3.52,8.928,8.928,0,0,0-.029-2l.229-.021a9.111,9.111,0,0,1,.028,2.055,4.719,4.719,0,0,1-3,3.706,3.315,3.315,0,0,1-1.108.21" transform="translate(-11091.138 -9185.512)" fill="#3b3b45"/>
    <path id="Trazado_665134" data-name="Trazado 665134" d="M101.921,105.048a2.891,2.891,0,0,1-1.6-.46l.127-.192a2.954,2.954,0,0,0,2.8.136,5.042,5.042,0,0,0,2.147-1.993,7.619,7.619,0,0,0,1.128-3.253,15.085,15.085,0,0,0,.016-2.171,14.109,14.109,0,0,1,.039-2.39l.228.029a13.9,13.9,0,0,0-.037,2.351,15.374,15.374,0,0,1-.017,2.2,7.865,7.865,0,0,1-1.162,3.352,5.279,5.279,0,0,1-2.249,2.081,3.52,3.52,0,0,1-1.419.305" transform="translate(-11091.327 -9185.356)" fill="#fd9927"/>
    <path id="Trazado_665135" data-name="Trazado 665135" d="M122.412,91.251a1.889,1.889,0,0,1-.927-.209,1.837,1.837,0,0,1-.849-1.421,5.18,5.18,0,0,1,.152-1.633l.225.045a5.045,5.045,0,0,0-.148,1.56,1.611,1.611,0,0,0,.733,1.247,2.066,2.066,0,0,0,1.239.153,8.3,8.3,0,0,0,4.192-1.886,2.905,2.905,0,0,0,1.189-1.7l-.049-.031.124-.194.168.107-.006.069a3.025,3.025,0,0,1-1.281,1.923,8.523,8.523,0,0,1-4.31,1.935,3.856,3.856,0,0,1-.45.029" transform="translate(-11098.476 -9182.703)" fill="#feca2e"/>
    <path id="Trazado_665136" data-name="Trazado 665136" d="M128.733,86.642a1.238,1.238,0,0,1-1.064-.815,3.306,3.306,0,0,1-.133-1.395l.23.012a3.116,3.116,0,0,0,.117,1.3.975.975,0,0,0,.914.667,1.4,1.4,0,0,0,.695-.358,11.9,11.9,0,0,0,1.246-1.151c.214-.228.292-.407.237-.546l.214-.084c.133.343-.181.678-.284.787a12.022,12.022,0,0,1-1.271,1.173,1.6,1.6,0,0,1-.816.408.757.757,0,0,1-.086,0" transform="translate(-11100.905 -9181.675)" fill="#fd9927"/>
    <path id="Trazado_665137" data-name="Trazado 665137" d="M101.773,118.807c-.333,0-.69-.019-1.079-.058s-.777-.1-1.161-.165l.042-.227c.377.069.761.124,1.142.162a7.99,7.99,0,0,0,2.17-.03A5.621,5.621,0,0,0,107.4,114.3l.224.055a5.85,5.85,0,0,1-4.7,4.364,6.851,6.851,0,0,1-1.152.091" transform="translate(-11091.05 -9192.249)" fill="#feca2e"/>
    <path id="Trazado_665138" data-name="Trazado 665138" d="M105.472,124.313a.7.7,0,0,1-.115-.009l.038-.227a.98.98,0,0,0,.728-.328,12.715,12.715,0,0,0,2.883-4.217,7.757,7.757,0,0,0,1-4.332l.227-.034a7.95,7.95,0,0,1-1.02,4.464,12.92,12.92,0,0,1-2.939,4.292,1.3,1.3,0,0,1-.8.391" transform="translate(-11093.102 -9192.556)" fill="#fd9927"/>
    <path id="Trazado_665139" data-name="Trazado 665139" d="M112.091,123.845l-.2-.117a8.977,8.977,0,0,0,1.075-4.4c.023-.8-.01-1.616-.041-2.4-.029-.731-.059-1.487-.046-2.232l.23,0c-.013.739.017,1.491.045,2.22.032.792.064,1.612.041,2.42a9.2,9.2,0,0,1-1.107,4.514" transform="translate(-11095.403 -9192.387)" fill="#1a7acd"/>
    <path id="Trazado_665140" data-name="Trazado 665140" d="M100.826,104.311l-.082-.214a6.85,6.85,0,0,0,3.705-3.826,17.812,17.812,0,0,0,.849-2.928l.439-1.921.224.051-.439,1.921a17.961,17.961,0,0,1-.862,2.965,7.083,7.083,0,0,1-3.835,3.951" transform="translate(-11091.477 -9185.603)" fill="#feca2e"/>
    <path id="Trazado_665141" data-name="Trazado 665141" d="M123.761,76.214l-1.544-.9.02,7.038,1.544.9Z" transform="translate(-11099.039 -9178.523)" fill="#c2c6d7"/>
    <path id="Trazado_665142" data-name="Trazado 665142" d="M126.759,73.543l-1.544-.9-3,1.73,1.544.9Z" transform="translate(-11099.039 -9177.582)" fill="#eff6fe"/>
    <path id="Trazado_665143" data-name="Trazado 665143" d="M124.6,75.761l0,1.528v.518l.014,4.447V82.8l3-1.732v-.547l-.014-4.446v-.52l0-1.526Z" transform="translate(-11099.878 -9178.069)" fill="#e4e6f0"/>
    <path id="Trazado_665144" data-name="Trazado 665144" d="M107.431,85.642l-1.544-.9.02,7.038,1.544.9Z" transform="translate(-11093.288 -9181.843)" fill="#c2c6d7"/>
    <path id="Trazado_665145" data-name="Trazado 665145" d="M116.353,77.692l-1.544-.9-8.921,5.15,1.544.9Z" transform="translate(-11093.288 -9179.043)" fill="#eff6fe"/>
    <path id="Trazado_665146" data-name="Trazado 665146" d="M108.27,83.33l0,1.528,0,.519.008,2.976v.229l.005,1.789,8.921-5.151,0-1.794V83.2l-.008-2.97,0-.519,0-1.526Z" transform="translate(-11094.127 -9179.53)" fill="#e4e6f0"/>
    <path id="Trazado_665147" data-name="Trazado 665147" d="M126.648,80.013l-.295-.171,0,1.679.295.171Z" transform="translate(-11100.495 -9180.116)" fill="#222228"/>
    <path id="Trazado_665148" data-name="Trazado 665148" d="M127.458,79.291l-.3-.171-.81.467.3.172Z" transform="translate(-11100.495 -9179.862)" fill="#434851"/>
    <path id="Trazado_665149" data-name="Trazado 665149" d="M126.808,79.851l0,1.679.81-.467-.005-1.68Z" transform="translate(-11100.655 -9179.955)" fill="#2f2f37"/>
    <path id="Trazado_665150" data-name="Trazado 665150" d="M126.808,83.623l0,.527.81-.468-.005-.527Z" transform="translate(-11100.655 -9181.283)" fill="#fd9927"/>
    <rect id="Rectángulo_302663" data-name="Rectángulo 302663" width="0.78" height="0.419" transform="translate(-10973.834 -9099.488) rotate(-29.993)" fill="#222228"/>
    <path id="Trazado_665151" data-name="Trazado 665151" d="M128.082,79.937l-.676.39-.579.334.676-.39Z" transform="translate(-11100.661 -9180.149)" fill="#1e1e23"/>
    <rect id="Rectángulo_302664" data-name="Rectángulo 302664" width="0.669" height="0.418" transform="matrix(0.866, -0.5, 0.5, 0.866, -10973.159, -9099.878)" fill="#3b3b45"/>
    <path id="Trazado_665152" data-name="Trazado 665152" d="M127.754,80.066l-.2.117a.4.4,0,0,0,.389.674l.2-.117a.4.4,0,0,1-.389-.674" transform="translate(-11100.865 -9180.195)" fill="#27272e"/>
    <path id="Trazado_665153" data-name="Trazado 665153" d="M127.552,80.183a.4.4,0,0,0,.389.676l.2-.117a.4.4,0,0,1-.389-.675Z" transform="translate(-11100.865 -9180.195)" fill="none"/>
    <path id="Trazado_665154" data-name="Trazado 665154" d="M127.865,79.888a.4.4,0,0,0,.389.674l.5-.29a.4.4,0,0,0-.39-.674Z" transform="translate(-11100.976 -9180.017)" fill="#434851"/>
    <path id="Trazado_665155" data-name="Trazado 665155" d="M124.608,78.118v.518l3-1.73v-.519Z" transform="translate(-11099.88 -9178.899)" fill="#fd9927"/>
    <path id="Trazado_665156" data-name="Trazado 665156" d="M124.628,85.782v.229l3-1.732V84.05Z" transform="translate(-11099.889 -9181.598)" fill="#c2c6d7"/>
    <path id="Trazado_665157" data-name="Trazado 665157" d="M126.353,76.473c0,.249.175.35.39.225a.862.862,0,0,0,.39-.676c0-.249-.174-.35-.39-.225a.863.863,0,0,0-.39.676" transform="translate(-11100.495 -9178.673)" fill="#848aa8"/>
    <path id="Trazado_665158" data-name="Trazado 665158" d="M119.6,84.077l-.295-.172,0,1.679.295.172Z" transform="translate(-11098.013 -9181.547)" fill="#0b5999"/>
    <path id="Trazado_665159" data-name="Trazado 665159" d="M120.408,83.356l-.3-.172-.81.468.3.172Z" transform="translate(-11098.013 -9181.293)" fill="#2b82c9"/>
    <path id="Trazado_665160" data-name="Trazado 665160" d="M119.759,83.917l0,1.679.81-.468-.005-1.679Z" transform="translate(-11098.173 -9181.387)" fill="#1974bf"/>
    <rect id="Rectángulo_302666" data-name="Rectángulo 302666" width="0.78" height="0.419" transform="translate(-10978.402 -9096.854) rotate(-29.993)" fill="#35353f"/>
    <path id="Trazado_665161" data-name="Trazado 665161" d="M121.032,84l-.676.39-.579.334.676-.39Z" transform="translate(-11098.18 -9181.581)" fill="#1e1e23"/>
    <rect id="Rectángulo_302667" data-name="Rectángulo 302667" width="0.668" height="0.418" transform="matrix(0.866, -0.5, 0.5, 0.866, -10977.727, -9097.244)" fill="#3b3b45"/>
    <path id="Trazado_665162" data-name="Trazado 665162" d="M120.705,84.131l-.2.117a.4.4,0,0,0,.389.674l.2-.117a.4.4,0,0,1-.389-.674" transform="translate(-11098.384 -9181.626)" fill="#0b5999"/>
    <path id="Trazado_665163" data-name="Trazado 665163" d="M120.5,84.248a.4.4,0,0,0,.389.674l.2-.117a.4.4,0,0,1-.389-.674Z" transform="translate(-11098.384 -9181.626)" fill="none"/>
    <path id="Trazado_665164" data-name="Trazado 665164" d="M120.816,83.953a.4.4,0,0,0,.389.674l.5-.29a.4.4,0,0,0-.389-.674Z" transform="translate(-11098.494 -9181.449)" fill="#1974bf"/>
    <path id="Trazado_665165" data-name="Trazado 665165" d="M116.069,86.1l-.3-.172.005,1.679.295.172Z" transform="translate(-11096.77 -9182.259)" fill="#222228"/>
    <path id="Trazado_665166" data-name="Trazado 665166" d="M116.879,85.376l-.3-.171-.81.467.3.172Z" transform="translate(-11096.77 -9182.005)" fill="#434851"/>
    <path id="Trazado_665167" data-name="Trazado 665167" d="M116.229,85.937l0,1.679.81-.468-.005-1.679Z" transform="translate(-11096.93 -9182.098)" fill="#2f2f37"/>
    <rect id="Rectángulo_302669" data-name="Rectángulo 302669" width="0.78" height="0.418" transform="translate(-10980.688 -9095.546) rotate(-29.993)" fill="#222228"/>
    <path id="Trazado_665168" data-name="Trazado 665168" d="M117.5,86.023l-.676.39-.579.334.676-.39Z" transform="translate(-11096.937 -9182.292)" fill="#1e1e23"/>
    <rect id="Rectángulo_302670" data-name="Rectángulo 302670" width="0.668" height="0.418" transform="matrix(0.866, -0.5, 0.5, 0.866, -10980.013, -9095.936)" fill="#3b3b45"/>
    <path id="Trazado_665169" data-name="Trazado 665169" d="M117.175,86.151l-.2.117a.4.4,0,0,0,.389.674l.2-.117a.4.4,0,0,1-.389-.674" transform="translate(-11097.14 -9182.338)" fill="#27272e"/>
    <path id="Trazado_665170" data-name="Trazado 665170" d="M116.973,86.268a.4.4,0,0,0,.389.674l.2-.117a.4.4,0,0,1-.389-.674Z" transform="translate(-11097.14 -9182.338)" fill="none"/>
    <path id="Trazado_665171" data-name="Trazado 665171" d="M117.286,85.973a.4.4,0,0,0,.389.674l.5-.29a.4.4,0,0,0-.389-.674Z" transform="translate(-11097.25 -9182.16)" fill="#434851"/>
    <path id="Trazado_665172" data-name="Trazado 665172" d="M113.958,87.341l-.3-.172.005,1.68.295.171Z" transform="translate(-11096.026 -9182.696)" fill="#222228"/>
    <path id="Trazado_665173" data-name="Trazado 665173" d="M114.769,86.619l-.3-.171-.81.467.3.172Z" transform="translate(-11096.027 -9182.442)" fill="#434851"/>
    <path id="Trazado_665174" data-name="Trazado 665174" d="M114.119,87.18l0,1.679.81-.468-.005-1.679Z" transform="translate(-11096.188 -9182.535)" fill="#2f2f37"/>
    <rect id="Rectángulo_302672" data-name="Rectángulo 302672" width="0.78" height="0.419" transform="translate(-10982.056 -9094.74) rotate(-29.993)" fill="#222228"/>
    <path id="Trazado_665175" data-name="Trazado 665175" d="M115.392,87.265l-.676.39-.579.334.676-.39Z" transform="translate(-11096.193 -9182.731)" fill="#1e1e23"/>
    <rect id="Rectángulo_302673" data-name="Rectángulo 302673" width="0.669" height="0.418" transform="matrix(0.866, -0.5, 0.5, 0.866, -10981.381, -9095.13)" fill="#3b3b45"/>
    <path id="Trazado_665176" data-name="Trazado 665176" d="M115.065,87.394l-.2.117a.4.4,0,0,0,.389.674l.2-.117a.4.4,0,0,1-.389-.674" transform="translate(-11096.397 -9182.775)" fill="#27272e"/>
    <path id="Trazado_665177" data-name="Trazado 665177" d="M114.863,87.511a.4.4,0,0,0,.389.674l.2-.117a.4.4,0,0,1-.389-.674Z" transform="translate(-11096.397 -9182.775)" fill="none"/>
    <path id="Trazado_665178" data-name="Trazado 665178" d="M115.176,87.216a.4.4,0,0,0,.389.674l.5-.29a.4.4,0,0,0-.389-.674Z" transform="translate(-11096.508 -9182.599)" fill="#434851"/>
    <path id="Trazado_665179" data-name="Trazado 665179" d="M111.849,88.584l-.3-.172.005,1.679.295.172Z" transform="translate(-11095.283 -9183.135)" fill="#222228"/>
    <path id="Trazado_665180" data-name="Trazado 665180" d="M112.659,87.862l-.3-.172-.81.468.3.172Z" transform="translate(-11095.283 -9182.88)" fill="#434851"/>
    <path id="Trazado_665181" data-name="Trazado 665181" d="M112.009,88.423l0,1.679.81-.468,0-1.679Z" transform="translate(-11095.444 -9182.974)" fill="#2f2f37"/>
    <rect id="Rectángulo_302675" data-name="Rectángulo 302675" width="0.781" height="0.418" transform="matrix(0.866, -0.501, 0.501, 0.866, -10983.423, -9093.935)" fill="#222228"/>
    <path id="Trazado_665182" data-name="Trazado 665182" d="M113.282,88.508l-.676.391-.579.334.676-.391Z" transform="translate(-11095.45 -9183.169)" fill="#1e1e23"/>
    <rect id="Rectángulo_302676" data-name="Rectángulo 302676" width="0.668" height="0.418" transform="matrix(0.866, -0.5, 0.5, 0.866, -10982.747, -9094.325)" fill="#3b3b45"/>
    <path id="Trazado_665183" data-name="Trazado 665183" d="M112.955,88.638l-.2.117a.4.4,0,0,0,.389.674l.2-.117a.4.4,0,0,1-.389-.674" transform="translate(-11095.654 -9183.214)" fill="#27272e"/>
    <path id="Trazado_665184" data-name="Trazado 665184" d="M112.753,88.755a.4.4,0,0,0,.389.674l.2-.117a.4.4,0,0,1-.389-.674Z" transform="translate(-11095.654 -9183.214)" fill="none"/>
    <path id="Trazado_665185" data-name="Trazado 665185" d="M113.066,88.46a.4.4,0,0,0,.389.674l.5-.291a.4.4,0,0,0-.389-.674Z" transform="translate(-11095.765 -9183.035)" fill="#434851"/>
    <path id="Trazado_665186" data-name="Trazado 665186" d="M109.738,89.836l-.3-.172.005,1.679.295.172Z" transform="translate(-11094.54 -9183.575)" fill="#222228"/>
    <path id="Trazado_665187" data-name="Trazado 665187" d="M110.549,89.115l-.3-.171-.81.467.3.172Z" transform="translate(-11094.54 -9183.321)" fill="#434851"/>
    <path id="Trazado_665188" data-name="Trazado 665188" d="M109.9,89.675l0,1.679.81-.468-.005-1.679Z" transform="translate(-11094.701 -9183.414)" fill="#2f2f37"/>
    <rect id="Rectángulo_302678" data-name="Rectángulo 302678" width="0.781" height="0.418" transform="translate(-10984.791 -9093.124) rotate(-29.993)" fill="#222228"/>
    <path id="Trazado_665189" data-name="Trazado 665189" d="M111.172,89.761l-.676.39-.579.334.676-.39Z" transform="translate(-11094.708 -9183.609)" fill="#1e1e23"/>
    <rect id="Rectángulo_302679" data-name="Rectángulo 302679" width="0.669" height="0.418" transform="matrix(0.866, -0.5, 0.5, 0.866, -10984.113, -9093.514)" fill="#3b3b45"/>
    <path id="Trazado_665190" data-name="Trazado 665190" d="M110.845,89.89l-.2.117a.4.4,0,0,0,.389.674l.2-.117a.4.4,0,0,1-.389-.674" transform="translate(-11094.911 -9183.654)" fill="#27272e"/>
    <path id="Trazado_665191" data-name="Trazado 665191" d="M110.643,90.007a.4.4,0,0,0,.389.674l.2-.117a.4.4,0,0,1-.389-.674Z" transform="translate(-11094.911 -9183.654)" fill="none"/>
    <path id="Trazado_665192" data-name="Trazado 665192" d="M110.956,89.712a.4.4,0,0,0,.389.674l.5-.29a.4.4,0,0,0-.389-.674Z" transform="translate(-11095.021 -9183.477)" fill="#434851"/>
    <path id="Trazado_665193" data-name="Trazado 665193" d="M108.277,85.687l0,.519,8.921-5.151v-.519Z" transform="translate(-11094.129 -9180.36)" fill="#fd9927"/>
    <path id="Trazado_665194" data-name="Trazado 665194" d="M120.457,80.158c0,.22.154.309.345.2a.762.762,0,0,0,.345-.6c0-.22-.154-.31-.345-.2a.762.762,0,0,0-.345.6" transform="translate(-11098.419 -9180)" fill="#848aa8"/>
    <path id="Trazado_665195" data-name="Trazado 665195" d="M118.553,81.242c0,.22.154.309.345.2a.761.761,0,0,0,.345-.6c0-.22-.154-.309-.345-.2a.76.76,0,0,0-.345.6" transform="translate(-11097.749 -9180.383)" fill="#848aa8"/>
    <path id="Trazado_665196" data-name="Trazado 665196" d="M116.654,82.326c0,.22.154.31.345.2a.761.761,0,0,0,.345-.6c0-.22-.154-.309-.345-.2a.76.76,0,0,0-.345.6" transform="translate(-11097.079 -9180.764)" fill="#848aa8"/>
    <path id="Trazado_665197" data-name="Trazado 665197" d="M114.756,83.4c0,.22.154.309.345.2a.763.763,0,0,0,.345-.6c0-.22-.154-.309-.345-.2a.762.762,0,0,0-.345.6" transform="translate(-11096.411 -9181.144)" fill="#848aa8"/>
    <path id="Trazado_665198" data-name="Trazado 665198" d="M112.855,84.486c0,.22.155.309.345.2a.762.762,0,0,0,.345-.6c0-.22-.154-.31-.345-.2a.764.764,0,0,0-.345.6" transform="translate(-11095.742 -9181.525)" fill="#848aa8"/>
    <path id="Trazado_665199" data-name="Trazado 665199" d="M110.951,85.57c0,.22.154.309.345.2a.761.761,0,0,0,.345-.6c0-.22-.154-.309-.345-.2a.762.762,0,0,0-.345.6" transform="translate(-11095.071 -9181.906)" fill="#848aa8"/>
    <path id="Trazado_665200" data-name="Trazado 665200" d="M109.053,86.653c0,.22.155.31.345.2a.763.763,0,0,0,.345-.6c0-.22-.154-.309-.345-.2a.762.762,0,0,0-.345.6" transform="translate(-11094.402 -9182.287)" fill="#848aa8"/>
    <path id="Trazado_665201" data-name="Trazado 665201" d="M108.27,91.087v.23l.016-.01,8.922-5.156v-.229l-8.922,5.156Z" transform="translate(-11094.127 -9182.257)" fill="#c2c6d7"/>
    <path id="Trazado_665202" data-name="Trazado 665202" d="M110.452,102.325l-.71-.412.025,8.789,1.417.823-.025-3.461Z" transform="translate(-11094.645 -9187.889)" fill="#222229"/>
    <path id="Trazado_665203" data-name="Trazado 665203" d="M119.986,93.829l-.71-.412-9.534,5.5.71.412Z" transform="translate(-11094.645 -9184.896)" fill="#5c616d"/>
    <path id="Trazado_665204" data-name="Trazado 665204" d="M110.838,99.557l.707,5.739.025,3.461,9.534-5.5-.01-3.461-.722-5.74Z" transform="translate(-11095.031 -9185.12)" fill="#3b3b45"/>
    <path id="Trazado_665205" data-name="Trazado 665205" d="M111.929,108.416l.025,3.461,9.534-5.5-.025-3.461Z" transform="translate(-11095.416 -9188.24)" fill="#2e2e37"/>
    <path id="Trazado_665206" data-name="Trazado 665206" d="M131.129,121.263v.378L114.922,131V114.931l-3.737,2.155v20.762l-.082.046-10.493,6.059-.165-.286,10.411-6.01V116.9l4.394-2.536v16.07Z" transform="translate(-11091.371 -9192.271)" fill="#fd9927"/>
    <path id="Trazado_665207" data-name="Trazado 665207" d="M120.445,117.077l-2.358,1.363v18.792l19.255-11.117v-.378l-18.927,10.927V118.631l.686-.4.329-.19.686-.4v16.069l17.226-9.945v-.378l-16.9,9.754Z" transform="translate(-11097.584 -9193.229)" fill="#fd9927"/>
    <path id="Trazado_665208" data-name="Trazado 665208" d="M119.981,135.377l17.912-10.342v.381l-18.24,10.532V118.421h.328Z" transform="translate(-11098.136 -9193.702)" fill="#fd9927"/>
    <path id="Trazado_665209" data-name="Trazado 665209" d="M142.416,202.623,119.41,215.9l-.654.381-.814.469-.656.378-.933.539-.657.378-.818.473-.653.378-.877.505-.653.378-.894.516-.657.381-.91.522-.653.381-.91.522-.657.381-.923.533-.656.381-1.009.581-.657.378L87.1,234.558a9.374,9.374,0,0,1-8.456,0L55.76,221.343a8.621,8.621,0,0,0-7.8,0L19.441,237.806l-.658-.381,28.845-16.654a9.367,9.367,0,0,1,8.461,0l22.887,13.216a8.633,8.633,0,0,0,7.8,0L104.11,223.98l.656-.381,1.008-.581.658-.381.926-.533.657-.378.906-.525.657-.378.906-.525.657-.378.893-.516.656-.381.874-.5.657-.381.818-.473.657-.378.93-.535.658-.38.814-.47.657-.378,23.005-13.284Z" transform="translate(-11062.613 -9223.219)" fill="#0b5999"/>
    <path id="Trazado_665210" data-name="Trazado 665210" d="M144.654,203.916,121.648,217.2l-.654.378-.814.469-.656.381-.93.536-.66.381-.818.473-.654.378-.877.505-.654.378-.893.515-.657.378-.91.526-.654.377-.91.525-.657.378-.923.536-.657.378-1.008.584-.657.378L87.985,236.633a9.366,9.366,0,0,1-8.46,0L56.638,223.418a8.635,8.635,0,0,0-7.8,0L21.678,239.1l-.654-.381,27.485-15.869a9.355,9.355,0,0,1,8.457,0l22.887,13.216a8.641,8.641,0,0,0,7.8,0l18.694-10.792.656-.381,1.009-.581.656-.381.923-.533.657-.378.91-.525.654-.378.91-.525.657-.378.89-.518.656-.378.877-.505.654-.378.818-.473.657-.378.933-.539.657-.378.814-.469.654-.382L144,203.535Z" transform="translate(-11063.403 -9223.674)" fill="#fd9927"/>
    <path id="Trazado_665211" data-name="Trazado 665211" d="M146.89,205.2l-23,13.284-.657.378-.814.469-.656.381-.93.536-.657.381-.821.473-.653.378-.874.5-.656.381-.893.516-.657.378-.906.525-.657.378-.91.525-.657.378-.92.536-.66.378-1.008.581-.657.381L88.861,238.71a9.355,9.355,0,0,1-8.457,0L57.517,225.494a8.641,8.641,0,0,0-7.8,0l-25.8,14.894-.657-.378,26.126-15.085a9.365,9.365,0,0,1,8.46,0l22.887,13.216a8.635,8.635,0,0,0,7.8,0l20.053-11.58.657-.378,1.008-.581.657-.382.926-.532.654-.381.91-.522.657-.381.906-.522.657-.381.893-.516.657-.378.873-.505.654-.378.821-.473.657-.378.929-.539.658-.378.814-.47.656-.381,23.006-13.281Z" transform="translate(-11064.191 -9224.13)" fill="#0b5999"/>
    <path id="Trazado_665212" data-name="Trazado 665212" d="M149.128,206.5l-23.006,13.284-.657.378-.811.47-.66.381-.93.535-.657.381-.818.473-.654.378-.877.5-.654.381-.9.516-.654.378-.91.525-.654.378-.91.526-.657.377-.923.536-.66.378-1,.581-.657.381L89.74,240.788a9.354,9.354,0,0,1-8.456,0L58.393,227.572a8.635,8.635,0,0,0-7.8,0L26.155,241.681l-.66-.378L50.264,227a9.354,9.354,0,0,1,8.456,0l22.891,13.216a8.633,8.633,0,0,0,7.8,0l21.41-12.362.657-.378,1.008-.581.657-.381.923-.536.657-.378.91-.525.657-.378.906-.525.657-.378.893-.516.656-.377.874-.506.657-.378.818-.473.657-.381.929-.535.658-.382.814-.47.656-.377,23-13.282Z" transform="translate(-11064.978 -9224.584)" fill="#636363"/>
    <path id="Trazado_665213" data-name="Trazado 665213" d="M151.364,207.789,128.358,221.07l-.654.378-.818.473-.656.378-.93.539-.657.377-.818.474-.657.378-.873.505-.658.378-.893.516-.654.381-.91.522-.654.381-.91.522-.657.381-.923.532-.66.381-1.008.582-.654.378-23.1,13.337a9.355,9.355,0,0,1-8.457,0L59.272,229.645a8.641,8.641,0,0,0-7.8,0L28.388,242.972l-.657-.381L51.14,229.077a9.366,9.366,0,0,1,8.46,0l22.887,13.216a8.631,8.631,0,0,0,7.8,0l22.772-13.146.654-.381,1.008-.582.66-.377.923-.536.657-.378.906-.525.657-.378.91-.525.654-.378.893-.516.656-.381.874-.5.654-.378.821-.473.657-.382.929-.535.658-.381.814-.47.656-.378,23.006-13.284Z" transform="translate(-11065.766 -9225.038)" fill="#636363"/>
    <path id="Trazado_665214" data-name="Trazado 665214" d="M153.6,209.082l-23.006,13.282-.654.377-.814.47-.656.381-.93.536-.66.381-.818.473-.654.378-.873.505-.657.378-.893.516-.657.381-.906.522-.657.378-.91.525-.654.381-.926.533-.657.38-1.008.582-.657.378L91.5,244.939a9.359,9.359,0,0,1-8.457,0L60.149,231.723a8.633,8.633,0,0,0-7.8,0L30.629,244.265l-.658-.381,22.05-12.73a9.355,9.355,0,0,1,8.457,0L83.369,244.37a8.635,8.635,0,0,0,7.8,0L115.3,230.439l.657-.381,1.008-.581.657-.378.926-.536.654-.378.91-.525.657-.378.906-.525.657-.378.893-.516.657-.381.873-.5.654-.378.818-.473.661-.382.929-.535.657-.381.814-.469.653-.378L152.944,208.7Z" transform="translate(-11066.555 -9225.493)" fill="#fd9927"/>
    <path id="Trazado_665215" data-name="Trazado 665215" d="M191.217,271.473l-.654.381-23-13.3a7.306,7.306,0,0,0-6.6,0l-54.143,31.259-.654-.378,54.468-31.449a8.031,8.031,0,0,1,7.259,0Z" transform="translate(-11093.385 -9242.543)" fill="#0b5999"/>
    <path id="Trazado_665216" data-name="Trazado 665216" d="M190.733,272.895l-.657.378-21.767-12.585a7.3,7.3,0,0,0-6.6,0l-52.983,30.592-.657-.381,53.312-30.779a8.027,8.027,0,0,1,7.259,0Z" transform="translate(-11094.057 -9243.295)" fill="#fd9927"/>
    <path id="Trazado_665217" data-name="Trazado 665217" d="M190.246,274.313l-.657.381L169.06,262.822a7.3,7.3,0,0,0-6.6,0l-51.824,29.922-.653-.381,52.149-30.109a8.027,8.027,0,0,1,7.259,0Z" transform="translate(-11094.729 -9244.046)" fill="#0b5999"/>
    <path id="Trazado_665218" data-name="Trazado 665218" d="M126.807,91.4a8.425,8.425,0,0,0-1.307-.746,4.228,4.228,0,0,0-1.743-.472c-.629,0-1.566.335-1.7,1.03a4.329,4.329,0,0,0,.9,2.607c.214.367.477.772.9.847a3.617,3.617,0,0,0,.718-.036,1.289,1.289,0,0,1,1.156.744,1.562,1.562,0,0,0,1.145.845,3.917,3.917,0,0,1,.905.151c.4.171.64.593,1.03.783.673.325,1.356-.117,1.952-.388.817-.373.338-1.3-.2-1.722-.453-.356-1.009-.564-1.448-.937a13.924,13.924,0,0,1-1.475-1.966,4.353,4.353,0,0,0-.821-.742" transform="translate(-11098.972 -9183.76)" fill="#f3a984"/>
    <path id="Trazado_665219" data-name="Trazado 665219" d="M143.184,101.176c-1.6-.978-3.2-1.946-4.828-2.867a37.062,37.062,0,0,0-3.962-2.039c-.926-.387-1.887-.947-2.785-.179a3.174,3.174,0,0,0-1.086,2.641,4.017,4.017,0,0,0,1.516,2.058c1.469,1.267,3.036,2.429,4.627,3.557,3.726,2.645,7.381,5.347,11.577,7.259,1.113.507,2.446.945,3.512.345a2.807,2.807,0,0,0,1.09-3.11c-.7-2.838-3.613-3.965-5.843-5.321-1.276-.775-2.545-1.563-3.818-2.343" transform="translate(-11101.952 -9185.703)" fill="#f6f6f6"/>
    <path id="Trazado_665220" data-name="Trazado 665220" d="M151.236,112.683a4.374,4.374,0,0,0-.91-.668c-3.224-1.82-6.309.4-9.332,1.486a18.506,18.506,0,0,0-3.375,1.583c-.948.577-1.763,1.519-2.911,1.658a69.468,69.468,0,0,1-7.451-1.4,11.523,11.523,0,0,0-4.636-.646,3.161,3.161,0,0,0-2.1,1.116,2.748,2.748,0,0,0-.269,2.42c.647,2.153,2.545,3.074,4.69,3.728,2.06.628,6.632,2.532,8.743,2.931.03.315.06.63.08.945q.217,3.389.433,6.777c.243,3.809.487,7.623,1.04,11.4.181,1.235.51,2.633,1.609,3.224a4.064,4.064,0,0,0,3.187-.153,8.123,8.123,0,0,1,1.9-.492c.626-.054,1.186.165,1.8.146a8.989,8.989,0,0,0,4.03-1.058,5.415,5.415,0,0,0,2.9-5.135c-.183-1.986-.678-4.038-.4-6.042.264-1.921.089-3.913.332-5.852q.106-.841.251-1.677c.469-2.67,1.269-5.278,1.6-7.972.26-2.092.45-4.7-1.211-6.318" transform="translate(-11098.292 -9191.202)" fill="#f6f6f6"/>
    <path id="Trazado_665221" data-name="Trazado 665221" d="M161.948,215.725c-.186-.361-.439-.211-.75-.246a2.809,2.809,0,0,1-1.105-.451c-.421-.262-.8-.584-1.2-.878a8.893,8.893,0,0,0-4.067-1.778,3.864,3.864,0,0,0-1.806.082,2.01,2.01,0,0,0-1.188,2.28,3.043,3.043,0,0,0,.223.9,3.754,3.754,0,0,0,1.25,1.368,6.4,6.4,0,0,0,1.871,1.064,15.783,15.783,0,0,1,1.7.468,3.554,3.554,0,0,1,.966.674,2.848,2.848,0,0,0,.711.631,4.057,4.057,0,0,0,1.96.38,2.125,2.125,0,0,0,2.063-2.422,6.777,6.777,0,0,0-.389-1.394,7.138,7.138,0,0,0-.241-.677" transform="translate(-11109.46 -9226.763)" fill="#222229"/>
    <path id="Trazado_665222" data-name="Trazado 665222" d="M152.143,157.622a7.531,7.531,0,0,1,.433-1.878,15.064,15.064,0,0,1,2.316-3.873,8.84,8.84,0,0,1,2.44-2.405c.994-.579,4.009-5.486,4.009-5.486a35.825,35.825,0,0,1,1.966,12.334c-.05,1.618-.222,3.845-.417,5.443-.274,2.25-.4,4.516-.447,6.78-.09,4.093.626,8.175.739,12.27q.11,3.995-.122,7.99a14.693,14.693,0,0,1-.5,4.309,1.785,1.785,0,0,1-.92,1.052,2.438,2.438,0,0,1-1.57-.038,6.172,6.172,0,0,1-2.061-.9c-1.98-1.445-1.4-4.471-1.489-6.583q-.122-3-.534-5.984c-.347-2.508-.613-4.942-1.124-7.424-.465-2.256-.935-4.512-1.395-6.769-.187-.917-.166-1.836-.323-2.768a33.951,33.951,0,0,0-.838-4.124,5.146,5.146,0,0,1-.165-1.942" transform="translate(-11109.567 -9202.702)" fill="#28405e"/>
    <path id="Trazado_665223" data-name="Trazado 665223" d="M152.143,160.167a7.531,7.531,0,0,1,.433-1.878,15.064,15.064,0,0,1,2.316-3.873,8.84,8.84,0,0,1,2.44-2.405,3.857,3.857,0,0,0,.808-.8c1.848,2.622,3.082,5.807,1.974,8.5a151.744,151.744,0,0,0-5.22,16.218c-.01-.051-.019-.1-.03-.153-.465-2.256-.935-4.512-1.395-6.769-.187-.917-.166-1.836-.323-2.768a33.951,33.951,0,0,0-.838-4.124,5.146,5.146,0,0,1-.165-1.942" transform="translate(-11109.567 -9205.247)" fill="#12263f"/>
    <path id="Trazado_665224" data-name="Trazado 665224" d="M150.835,109.385c-.117-.8-.72-.614-.415-1.338a3.917,3.917,0,0,1,1.18-1.589,2.832,2.832,0,0,1,1.862-.614c.229.013.383.144.611.144a13.514,13.514,0,0,1,1.889-.027c.625.091,1.2.136,1.2.841a7.474,7.474,0,0,0,.1,2.118,8.882,8.882,0,0,1,.419,1.6,1.376,1.376,0,0,1-.557,1.2,4.422,4.422,0,0,1-1.051.643,7.786,7.786,0,0,1-2.675.819,4.089,4.089,0,0,1-1.827-.246,1.784,1.784,0,0,1-.777-.45c-.152-.241-.042-.693-.011-.954a8.061,8.061,0,0,0,.054-2.148" transform="translate(-11108.94 -9189.271)" fill="#ffc7ad"/>
    <path id="Trazado_665225" data-name="Trazado 665225" d="M146.529,94.49a3.264,3.264,0,0,0-.766,1.589c-.2,1.356.343,2.75.049,4.1-.285,1.3.274,4.265,2.845,5.023a9.134,9.134,0,0,0,4.694-.461,6.623,6.623,0,0,0,2.5-2.645c5.371-8.528-5.675-12.036-9.317-7.6" transform="translate(-11107.313 -9184.597)" fill="#ffc7ad"/>
    <path id="Trazado_665226" data-name="Trazado 665226" d="M157.111,91.454a3.249,3.249,0,0,0-.97-.68.9.9,0,0,1-.327-.206,1.127,1.127,0,0,1-.136-.256,2.087,2.087,0,0,0-.927-.882,7.637,7.637,0,0,0-4.793-.6,6.353,6.353,0,0,0-1.607.406,5.59,5.59,0,0,0-1.558,1.062,6.274,6.274,0,0,0-1.621,2.153,5.286,5.286,0,0,0-.232.9,2.341,2.341,0,0,0-.067.938,1.011,1.011,0,0,0,.291.557c.18.165.425.241.62.388a1.373,1.373,0,0,1,.434.617,4.675,4.675,0,0,1,.221,1.057c.049.367.07.737.083,1.107a2.171,2.171,0,0,0,.08.631,1.117,1.117,0,0,0,.757.646,1.356,1.356,0,0,1,.82.658c.179.315.279.668.432,1a3.813,3.813,0,0,0,2.979,2.065,4.572,4.572,0,0,0,4.006-1.5,8.566,8.566,0,0,0,.974-1.219,5.926,5.926,0,0,0,1.418-3.387c.249-1.8.437-4.1-.878-5.456" transform="translate(-11107.008 -9183.236)" fill="#312726"/>
    <path id="Trazado_665227" data-name="Trazado 665227" d="M148.805,101.675c.878-.191,1.266.877.783,1.817a4.476,4.476,0,0,1-.626.774c-1.389,1.588-2,.183-1.568-.352,1.014-1.244.306-2,1.41-2.238" transform="translate(-11107.855 -9187.797)" fill="#ffc7ad"/>
    <path id="Trazado_665228" data-name="Trazado 665228" d="M149.351,103.689c.088-.109,1.011-.855.262-1.159-.207-.084-.395.114-.394.32,0,.107.049.209.049.317a.466.466,0,0,1-.043.183c-.067.159-.353.345-.262.55.082.181.338-.149.388-.211" transform="translate(-11108.45 -9188.099)" fill="#f3a984"/>
    <path id="Trazado_665229" data-name="Trazado 665229" d="M159.563,127.943c1.338-5.432,3.09-10.133,2.606-16.577a5.376,5.376,0,0,1,.789.144c.255,6.263-1.485,11.661-2.617,16.528Z" transform="translate(-11112.19 -9191.218)" fill="#28405e"/>
    <path id="Trazado_665230" data-name="Trazado 665230" d="M143.977,218.468c0-.109,0-.218.008-.328a7.092,7.092,0,0,0-.768-3.11,2.409,2.409,0,0,0-.645-1.053,1.725,1.725,0,0,0-2.389.751c-.219.382-.339.811-.534,1.205a2.778,2.778,0,0,1-2.023,1.68c-1.212.054-2.575-.363-3.8-.437a3.246,3.246,0,0,0-1.418.134c-1.047.423-1.349,2.113-.976,3.056a2.544,2.544,0,0,0,1.322,1.274,6.14,6.14,0,0,0,2.9.567,5.61,5.61,0,0,1,2.888.461c1.582.746,3.421,1.82,5.02.365a2.354,2.354,0,0,0,.685-1.547,29.994,29.994,0,0,0-.272-3.016" transform="translate(-11102.229 -9227.262)" fill="#222229"/>
    <path id="Trazado_665231" data-name="Trazado 665231" d="M142.8,192.724c0,.069,0,.137.005.2.056,3.16-.167,7.658-.243,10.815-.023.945.023,1.9-.022,2.834-.038.779-.334,1.729.062,2.442a3.618,3.618,0,0,0,1.715,1.461,4.185,4.185,0,0,0,2.208.454,2.427,2.427,0,0,0,1.288-.544c.4-.337.982-3.5,1.163-4.732.49-3.328.746-8.036.927-11.394q.06-1.116.1-2.232c.035-.841-.056-.532-.006-1.373a7.662,7.662,0,0,0,.12-2.282c-.365-1.248-2.016-.54-2.824-.262-1.175.4-2.644.6-3.652,1.383s-.882,2.076-.847,3.226" transform="translate(-11106.145 -9218.084)" fill="#28405e"/>
    <path id="Trazado_665232" data-name="Trazado 665232" d="M148.006,157.231c1.136.067,2.276.078,3.414.068a7.842,7.842,0,0,0,1.642-.029c.424-.1.759-.435,1.2-.54.349-.083,4.064-5.374,4.064-5.374.338,4.919-3.522,9.98-5.525,14.068-2.122,4.333-2.359,9.034-2.841,13.73a2.472,2.472,0,0,1-.156.737,2.276,2.276,0,0,1-.893.93,7.98,7.98,0,0,1-4.685,1.3c-.435-.018-.991-.224-1.388,0-.248-1.7-.067-3.446-.42-5.113a31.648,31.648,0,0,1-.352-5.445c-.132-3.949.415-16.8.415-16.8s4.291,2.405,5.522,2.477" transform="translate(-11106.021 -9205.3)" fill="#28405e"/>
    <path id="Trazado_665233" data-name="Trazado 665233" d="M142.6,151.292c.148.1.3.189.452.275a18.977,18.977,0,0,0,2.3.915l2.652,1.069,5.3,2.138a1.07,1.07,0,0,0,1.6-.513,20.176,20.176,0,0,0,3.2-5.975q.136-.5.222-1.005a18.651,18.651,0,0,0-.037-5.421c-.17-1.385-.556-2.793-.861-4.158-.281-1.26-.6-3.084-.6-3.084s-2.627.707-3.254.921a37.186,37.186,0,0,1-.665,4.072,15.805,15.805,0,0,1-.5,2.606c-2.454,7.018-7.365,6.426-7.989,6.383-.166-.011-1.767-.183-1.761-.335q-.041,1.055-.076,2.111" transform="translate(-11106.217 -9199.729)" fill="#28405e"/>
    <path id="Trazado_665234" data-name="Trazado 665234" d="M147.046,116.935a70.837,70.837,0,0,1,11.085,12.048l-.6.414c-6.149-7.315-7-9.021-11.273-11.965a7.284,7.284,0,0,1,.79-.5" transform="translate(-11107.504 -9193.179)" fill="#28405e"/>
    <path id="Trazado_665235" data-name="Trazado 665235" d="M107.583,98.671a2.313,2.313,0,0,1,.047-.345c.019-.091.079-.2.17-.183.062.013.093.082.113.141a4.133,4.133,0,0,1,.214.637,3.3,3.3,0,0,0,.183.626c.021.056.056.12.116.125.1-.115,0-.419-.019-.555-.036-.219-.082-.437-.12-.656a3.367,3.367,0,0,1-.043-1.257.221.221,0,0,1,.058-.128c.233-.207.472.492.5.622q.071.309.141.617a1.453,1.453,0,0,0,.121.5,5.063,5.063,0,0,0-.06-1.337,2.692,2.692,0,0,1,.129-1.326c.025-.059.063-.123.126-.134.079-.013.142.063.179.134a1.726,1.726,0,0,1,.183.872,3.72,3.72,0,0,0,.15,1.057.227.227,0,0,0,.067.126c.194.152.189-.3.2-.386a3.98,3.98,0,0,1,.431-1.412c.082-.152.221-.32.389-.282a.293.293,0,0,1,.2.277.986.986,0,0,1-.074.355,4.248,4.248,0,0,0-.152,1.972,1.42,1.42,0,0,0,.176.588c.213.3.4.008.431-.233a3.537,3.537,0,0,0-.261-1.592.4.4,0,0,1,.023-.393.318.318,0,0,1,.338-.045c.373.135.5.626.629.959a8.73,8.73,0,0,1,.453,1.436,11.055,11.055,0,0,0,.187,1.839,3.822,3.822,0,0,0,.668.885,2.684,2.684,0,0,1,.4,2.6c-.172.384-.794.4-1.147.437a1.437,1.437,0,0,1-1.2-.389,7.283,7.283,0,0,1-.79-.993,8.432,8.432,0,0,0-.626-.648c-.076-.074-.151-.148-.229-.221-.262-.243-.512-.5-.759-.759a7.439,7.439,0,0,1-.852-1.084,3.746,3.746,0,0,1-.312-.691,6.387,6.387,0,0,1-.275-.825,3.125,3.125,0,0,1-.1-.929" transform="translate(-11093.884 -9185.813)" fill="#ffc7ad"/>
    <path id="Trazado_665236" data-name="Trazado 665236" d="M123.19,114.391a6.389,6.389,0,0,0-1.356-2.23q-.946-1.285-1.96-2.521a37.207,37.207,0,0,0-2.961-3.33c-.726-.694-1.418-1.563-2.533-1.171a3.173,3.173,0,0,0-1.966,2.072,4.016,4.016,0,0,0,.672,2.466c.913,1.711,1.957,3.36,3.033,4.986.819,1.237,1.911,3.115,3.325,3.747a2.083,2.083,0,0,0,2.114-.41,3.568,3.568,0,0,0,1.631-3.609" transform="translate(-11095.575 -9188.99)" fill="#f6f6f6"/>
    <path id="Trazado_665237" data-name="Trazado 665237" d="M145.85,89.141c-3.923-1.414-7.5-1.688-7.887-.251-.312,1.154,2.668,3.385,6.991,5.1.227.09.454.176.678.259Z" transform="translate(-11104.575 -9182.967)" fill="#12263f"/>
    <path id="Trazado_665238" data-name="Trazado 665238" d="M157.614,95.515a11.118,11.118,0,0,0,.065-1.139c.224-10.458-12.57-10.09-14.482-3.22a3.192,3.192,0,0,0-.092.507c3.569,3.836,10.073,6.618,14.509,3.852" transform="translate(-11106.395 -9182.363)" fill="#28405e"/>
    <path id="Trazado_665239" data-name="Trazado 665239" d="M149.257,86.759a.321.321,0,0,0,.157.325c3.051,1.678,8.085.763,8.848,5.187.19.952.956,1,1.585.728.824-6.214-8.245-8.67-10.59-6.239" transform="translate(-11108.56 -9182.227)" fill="#10335f"/>
    <path id="Trazado_665240" data-name="Trazado 665240" d="M153.057,97.135c.2-.431-1.167-1.493-3.056-2.374s-3.582-1.245-3.783-.814,1.167,1.494,3.055,2.374,3.583,1.245,3.783.814" transform="translate(-11107.483 -9185.02)" fill="#12263f"/>
    <path id="Trazado_665241" data-name="Trazado 665241" d="M116.258,88.92l-.827-.424a.133.133,0,0,0-.135.013l.794.428a.167.167,0,0,1,.169-.017" transform="translate(-11096.601 -9183.158)" fill="#938fa3"/>
    <path id="Trazado_665242" data-name="Trazado 665242" d="M116.284,88.92l-.827-.424a.113.113,0,0,0-.086-.008l.807.422a.138.138,0,0,1,.107.01" transform="translate(-11096.628 -9183.158)" fill="#938fa3"/>
    <path id="Trazado_665243" data-name="Trazado 665243" d="M116.151,88.913l-.807-.422a.2.2,0,0,0-.049.021l.794.428a.253.253,0,0,1,.062-.027" transform="translate(-11096.601 -9183.163)" fill="#938fa3"/>
    <path id="Trazado_665244" data-name="Trazado 665244" d="M116.258,88.92l-.008,0Zm-.963-.411.793.428a.175.175,0,0,1,.161-.021l-.82-.419a.1.1,0,0,0-.05-.013.172.172,0,0,0-.085.026" transform="translate(-11096.601 -9183.158)" fill="none"/>
    <path id="Trazado_665245" data-name="Trazado 665245" d="M115.057,88.973l.761.54a.165.165,0,0,1-.069-.152.522.522,0,0,1,.236-.41l-.794-.428a.419.419,0,0,0-.19.328.134.134,0,0,0,.056.122" transform="translate(-11096.497 -9183.173)" fill="#938fa3"/>
    <path id="Trazado_665246" data-name="Trazado 665246" d="M116.08,88.951l-.794-.428-.016.01.79.43.019-.012" transform="translate(-11096.593 -9183.173)" fill="#938fa3"/>
    <path id="Trazado_665247" data-name="Trazado 665247" d="M115.97,88.968l-.79-.43a.431.431,0,0,0-.168.256l.748.494a.537.537,0,0,1,.209-.32" transform="translate(-11096.501 -9183.178)" fill="#dddefc"/>
    <path id="Trazado_665248" data-name="Trazado 665248" d="M115.757,89.427l-.748-.493A.3.3,0,0,0,115,89v.016l.746.512v-.019a.367.367,0,0,1,.008-.078" transform="translate(-11096.497 -9183.317)" fill="#938fa3"/>
    <path id="Trazado_665249" data-name="Trazado 665249" d="M115.749,89.568,115,89.055a.127.127,0,0,0,.054.106l.761.54a.157.157,0,0,1-.069-.133" transform="translate(-11096.498 -9183.36)" fill="#938fa3"/>
    <path id="Trazado_665250" data-name="Trazado 665250" d="M115.818,89.514,115.8,89.5l.016.012M115,88.851a.131.131,0,0,0,.056.122l.744.529a.178.178,0,0,1-.053-.141.522.522,0,0,1,.236-.41l-.793-.428a.418.418,0,0,0-.19.328" transform="translate(-11096.497 -9183.173)" fill="none"/>
    <path id="Trazado_665251" data-name="Trazado 665251" d="M116.391,89.165a.522.522,0,0,0-.237.41c0,.151.108.212.239.136a.523.523,0,0,0,.236-.41c0-.151-.107-.212-.238-.136" transform="translate(-11096.902 -9183.389)" fill="#50496b"/>
    <path id="Trazado_665252" data-name="Trazado 665252" d="M121.8,92.2l-5.117-2.972a.144.144,0,0,0-.146.014l5.117,2.972a.144.144,0,0,1,.146-.014" transform="translate(-11097.038 -9183.416)" fill="#938fa3"/>
    <path id="Trazado_665253" data-name="Trazado 665253" d="M120.777,91.6h.038l-4.1-2.376a.122.122,0,0,0-.093-.008l4.156,2.408Z" transform="translate(-11097.068 -9183.416)" fill="#938fa3"/>
    <path id="Trazado_665254" data-name="Trazado 665254" d="M120.748,91.631l-4.156-2.408a.245.245,0,0,0-.054.023l4.21,2.44Z" transform="translate(-11097.038 -9183.42)" fill="#938fa3"/>
    <path id="Trazado_665255" data-name="Trazado 665255" d="M116.537,89.243l5.118,2.972a.144.144,0,0,1,.146-.014l-5.117-2.972a.115.115,0,0,0-.054-.014.189.189,0,0,0-.093.029" transform="translate(-11097.038 -9183.416)" fill="none"/>
    <path id="Trazado_665256" data-name="Trazado 665256" d="M116.281,89.745l5.117,2.972a.145.145,0,0,1-.06-.132.454.454,0,0,1,.205-.355l-5.117-2.972a.455.455,0,0,0-.205.356.145.145,0,0,0,.06.132" transform="translate(-11096.927 -9183.432)" fill="#938fa3"/>
    <path id="Trazado_665257" data-name="Trazado 665257" d="M120.739,91.7l-4.21-2.439-.016.01,4.226,2.45Z" transform="translate(-11097.03 -9183.433)" fill="#938fa3"/>
    <path id="Trazado_665258" data-name="Trazado 665258" d="M120.64,91.723l-4.226-2.45a.465.465,0,0,0-.181.278l4.407,2.555Z" transform="translate(-11096.931 -9183.438)" fill="#dddefc"/>
    <path id="Trazado_665259" data-name="Trazado 665259" d="M120.636,92.258,116.229,89.7a.308.308,0,0,0-.008.068v.017l4.414,2.56Z" transform="translate(-11096.927 -9183.588)" fill="#938fa3"/>
    <path id="Trazado_665260" data-name="Trazado 665260" d="M120.636,92.393l-4.414-2.56a.138.138,0,0,0,.06.115l4.355,2.525Z" transform="translate(-11096.927 -9183.634)" fill="#938fa3"/>
    <path id="Trazado_665261" data-name="Trazado 665261" d="M116.221,89.613a.144.144,0,0,0,.06.132l5.118,2.972a.145.145,0,0,1-.06-.133.451.451,0,0,1,.205-.355l-5.118-2.972a.453.453,0,0,0-.2.355" transform="translate(-11096.927 -9183.433)" fill="none"/>
    <path id="Trazado_665262" data-name="Trazado 665262" d="M122.941,92.5l-.694-.268a.227.227,0,0,0-.229.023l.637.274a.283.283,0,0,1,.286-.029" transform="translate(-11098.968 -9184.473)" fill="#938fa3"/>
    <path id="Trazado_665263" data-name="Trazado 665263" d="M122.986,92.5l-.694-.268a.191.191,0,0,0-.145-.014l.658.265a.236.236,0,0,1,.181.017" transform="translate(-11099.015 -9184.473)" fill="#938fa3"/>
    <path id="Trazado_665264" data-name="Trazado 665264" d="M122.76,92.491l-.658-.265a.377.377,0,0,0-.084.036l.637.274a.447.447,0,0,1,.1-.045" transform="translate(-11098.968 -9184.478)" fill="#938fa3"/>
    <path id="Trazado_665265" data-name="Trazado 665265" d="M122.94,92.5a.193.193,0,0,0-.056-.022Zm-.922-.246.636.274a.326.326,0,0,1,.229-.051l-.637-.246a.163.163,0,0,0-.084-.021.284.284,0,0,0-.144.044" transform="translate(-11098.968 -9184.473)" fill="none"/>
    <path id="Trazado_665266" data-name="Trazado 665266" d="M121.617,93.043l.58.464a.279.279,0,0,1-.117-.257.88.88,0,0,1,.4-.693l-.637-.274a.705.705,0,0,0-.321.555.226.226,0,0,0,.094.206" transform="translate(-11098.795 -9184.496)" fill="#938fa3"/>
    <path id="Trazado_665267" data-name="Trazado 665267" d="M122.641,92.556,122,92.282l-.026.016.63.278.032-.02" transform="translate(-11098.955 -9184.496)" fill="#938fa3"/>
    <path id="Trazado_665268" data-name="Trazado 665268" d="M122.454,92.584l-.63-.278a.731.731,0,0,0-.283.433l.56.386a.911.911,0,0,1,.354-.541" transform="translate(-11098.801 -9184.506)" fill="#dddefc"/>
    <path id="Trazado_665269" data-name="Trazado 665269" d="M122.094,93.361l-.56-.386a.5.5,0,0,0-.012.106c0,.009,0,.018,0,.027l.557.419c0-.01,0-.021,0-.033a.67.67,0,0,1,.014-.132" transform="translate(-11098.795 -9184.74)" fill="#938fa3"/>
    <path id="Trazado_665270" data-name="Trazado 665270" d="M122.081,93.6l-.557-.419a.212.212,0,0,0,.093.179l.58.464a.266.266,0,0,1-.116-.224" transform="translate(-11098.795 -9184.813)" fill="#938fa3"/>
    <path id="Trazado_665271" data-name="Trazado 665271" d="M122.2,93.506l-.045-.036a.2.2,0,0,0,.045.036m-.674-.67a.224.224,0,0,0,.093.206l.536.428a.318.318,0,0,1-.072-.222.881.881,0,0,1,.4-.693l-.636-.274a.707.707,0,0,0-.321.555" transform="translate(-11098.795 -9184.496)" fill="none"/>
    <path id="Trazado_665272" data-name="Trazado 665272" d="M122.783,92.675a.885.885,0,0,0-.4.693c0,.255.181.358.4.229a.883.883,0,0,0,.4-.693c0-.255-.181-.358-.4-.229" transform="translate(-11099.097 -9184.616)" fill="#938fa3"/>
    <path id="Trazado_665273" data-name="Trazado 665273" d="M124.044,92.781l-.965-.373a.317.317,0,0,0-.317.031l.885.381a.394.394,0,0,1,.4-.039" transform="translate(-11099.23 -9184.531)" fill="#35353f"/>
    <path id="Trazado_665274" data-name="Trazado 665274" d="M124.107,92.781l-.965-.373a.259.259,0,0,0-.2-.018l.914.368a.322.322,0,0,1,.251.023" transform="translate(-11099.294 -9184.531)" fill="#35353f"/>
    <path id="Trazado_665275" data-name="Trazado 665275" d="M123.793,92.764l-.914-.368a.5.5,0,0,0-.117.049l.885.381a.6.6,0,0,1,.146-.062" transform="translate(-11099.23 -9184.537)" fill="#35353f"/>
    <path id="Trazado_665276" data-name="Trazado 665276" d="M124.044,92.781a.28.28,0,0,0-.08-.031Zm-1.282-.342.885.381a.452.452,0,0,1,.317-.07l-.884-.342a.232.232,0,0,0-.117-.03.406.406,0,0,0-.2.061" transform="translate(-11099.23 -9184.531)" fill="none"/>
    <path id="Trazado_665277" data-name="Trazado 665277" d="M122.2,93.529l.807.645a.387.387,0,0,1-.163-.358,1.224,1.224,0,0,1,.556-.963l-.885-.381a.981.981,0,0,0-.445.771.313.313,0,0,0,.13.286" transform="translate(-11098.988 -9184.564)" fill="#35353f"/>
    <path id="Trazado_665278" data-name="Trazado 665278" d="M123.627,92.853l-.885-.381-.036.023.877.386.045-.028" transform="translate(-11099.211 -9184.564)" fill="#35353f"/>
    <path id="Trazado_665279" data-name="Trazado 665279" d="M123.368,92.893l-.876-.386a1.013,1.013,0,0,0-.393.6l.777.537a1.267,1.267,0,0,1,.492-.752" transform="translate(-11098.997 -9184.576)" fill="#40404d"/>
    <path id="Trazado_665280" data-name="Trazado 665280" d="M122.868,93.972l-.777-.536a.725.725,0,0,0-.016.146c0,.013,0,.025,0,.037l.774.583c0-.015,0-.03,0-.047a.861.861,0,0,1,.019-.183" transform="translate(-11098.988 -9184.903)" fill="#35353f"/>
    <path id="Trazado_665281" data-name="Trazado 665281" d="M122.851,94.3l-.774-.582a.3.3,0,0,0,.129.249l.807.645a.368.368,0,0,1-.161-.312" transform="translate(-11098.988 -9185.002)" fill="#35353f"/>
    <path id="Trazado_665282" data-name="Trazado 665282" d="M123.011,94.175l-.062-.05a.242.242,0,0,0,.062.05m-.937-.932a.313.313,0,0,0,.131.286l.744.6a.441.441,0,0,1-.1-.309,1.226,1.226,0,0,1,.557-.963l-.885-.381a.981.981,0,0,0-.446.771" transform="translate(-11098.988 -9184.564)" fill="none"/>
    <path id="Trazado_665283" data-name="Trazado 665283" d="M123.826,93.018a1.227,1.227,0,0,0-.557.963c0,.354.252.5.56.319a1.225,1.225,0,0,0,.556-.964c0-.354-.251-.5-.56-.319" transform="translate(-11099.409 -9184.729)" fill="#35353f"/>
    <path id="Trazado_665284" data-name="Trazado 665284" d="M125.794,93.239l-1.387-.536a.454.454,0,0,0-.457.044l1.272.547a.568.568,0,0,1,.571-.056" transform="translate(-11099.648 -9184.63)" fill="#938fa3"/>
    <path id="Trazado_665285" data-name="Trazado 665285" d="M125.885,93.239,124.5,92.7a.374.374,0,0,0-.289-.027l1.314.529a.468.468,0,0,1,.362.034" transform="translate(-11099.74 -9184.63)" fill="#938fa3"/>
    <path id="Trazado_665286" data-name="Trazado 665286" d="M125.432,93.214l-1.315-.529a.711.711,0,0,0-.167.071l1.272.547a.879.879,0,0,1,.21-.089" transform="translate(-11099.648 -9184.639)" fill="#938fa3"/>
    <path id="Trazado_665287" data-name="Trazado 665287" d="M125.794,93.239a.4.4,0,0,0-.113-.044Zm-1.844-.492,1.272.547a.652.652,0,0,1,.458-.1l-1.274-.492a.327.327,0,0,0-.169-.044.585.585,0,0,0-.288.088" transform="translate(-11099.648 -9184.63)" fill="none"/>
    <path id="Trazado_665288" data-name="Trazado 665288" d="M123.148,94.316l1.16.928a.562.562,0,0,1-.234-.515,1.764,1.764,0,0,1,.8-1.386L123.6,92.8a1.41,1.41,0,0,0-.64,1.108.449.449,0,0,0,.187.412" transform="translate(-11099.301 -9184.678)" fill="#938fa3"/>
    <path id="Trazado_665289" data-name="Trazado 665289" d="M125.194,93.342l-1.273-.547-.051.032,1.259.555.065-.04" transform="translate(-11099.621 -9184.678)" fill="#938fa3"/>
    <path id="Trazado_665290" data-name="Trazado 665290" d="M124.822,93.4l-1.26-.555a1.458,1.458,0,0,0-.566.865l1.119.772a1.823,1.823,0,0,1,.707-1.081" transform="translate(-11099.313 -9184.696)" fill="#dddefc"/>
    <path id="Trazado_665291" data-name="Trazado 665291" d="M124.1,94.952l-1.119-.772a1.041,1.041,0,0,0-.023.211l0,.053,1.114.838c0-.021,0-.043,0-.066a1.293,1.293,0,0,1,.029-.264" transform="translate(-11099.301 -9185.165)" fill="#938fa3"/>
    <path id="Trazado_665292" data-name="Trazado 665292" d="M124.078,95.426l-1.114-.838a.425.425,0,0,0,.186.358l1.16.928a.531.531,0,0,1-.232-.448" transform="translate(-11099.302 -9185.31)" fill="#938fa3"/>
    <path id="Trazado_665293" data-name="Trazado 665293" d="M124.309,95.243l-.089-.071a.376.376,0,0,0,.089.071M122.962,93.9a.446.446,0,0,0,.187.411l1.07.856a.641.641,0,0,1-.145-.444,1.764,1.764,0,0,1,.8-1.385l-1.272-.547a1.409,1.409,0,0,0-.64,1.108" transform="translate(-11099.301 -9184.678)" fill="none"/>
    <path id="Trazado_665294" data-name="Trazado 665294" d="M125.479,93.58a1.764,1.764,0,0,0-.8,1.386c0,.509.362.715.805.459a1.764,1.764,0,0,0,.8-1.386c0-.509-.362-.715-.805-.459" transform="translate(-11099.905 -9184.916)" fill="#938fa3"/>
    <path id="Trazado_665295" data-name="Trazado 665295" d="M128.474,94.614l-1.875-1.09a.465.465,0,0,0-.361-.032l1.875,1.089a.471.471,0,0,1,.361.033" transform="translate(-11100.455 -9184.916)" fill="#2b2b33"/>
    <path id="Trazado_665296" data-name="Trazado 665296" d="M128,94.592l-1.875-1.09a.879.879,0,0,0-.21.089l1.875,1.09a.88.88,0,0,1,.21-.089" transform="translate(-11100.34 -9184.927)" fill="#353540"/>
    <path id="Trazado_665297" data-name="Trazado 665297" d="M125.914,93.58l1.875,1.09a.565.565,0,0,1,.571-.056l-1.875-1.09a.417.417,0,0,0-.211-.054.731.731,0,0,0-.36.11" transform="translate(-11100.34 -9184.916)" fill="none"/>
    <path id="Trazado_665298" data-name="Trazado 665298" d="M127.754,94.73l-1.875-1.09-.065.04,1.876,1.09c.021-.014.042-.028.064-.04" transform="translate(-11100.305 -9184.976)" fill="#353540"/>
    <path id="Trazado_665299" data-name="Trazado 665299" d="M127.3,94.792,125.43,93.7a1.823,1.823,0,0,0-.707,1.081l1.875,1.09a1.823,1.823,0,0,1,.707-1.081" transform="translate(-11099.921 -9184.997)" fill="#40404d"/>
    <path id="Trazado_665300" data-name="Trazado 665300" d="M126.582,96.461l-1.875-1.09a1.3,1.3,0,0,0-.029.264c0,.023,0,.045,0,.066l1.875,1.09c0-.021,0-.043,0-.066a1.293,1.293,0,0,1,.029-.264" transform="translate(-11099.905 -9185.585)" fill="#353540"/>
    <path id="Trazado_665301" data-name="Trazado 665301" d="M126.558,96.971l-1.875-1.09a.529.529,0,0,0,.232.448l1.875,1.09a.53.53,0,0,1-.232-.448" transform="translate(-11099.906 -9185.765)" fill="#2b2b33"/>
    <path id="Trazado_665302" data-name="Trazado 665302" d="M124.679,95.025a.562.562,0,0,0,.235.515l1.874,1.09a.562.562,0,0,1-.234-.514,1.762,1.762,0,0,1,.8-1.386l-1.875-1.09a1.764,1.764,0,0,0-.8,1.385" transform="translate(-11099.905 -9184.976)" fill="none"/>
    <path id="Trazado_665303" data-name="Trazado 665303" d="M128.373,95.262a1.763,1.763,0,0,0-.8,1.385c0,.51.362.715.805.459a1.764,1.764,0,0,0,.8-1.386c0-.509-.362-.715-.805-.459" transform="translate(-11100.924 -9185.507)" fill="#222229"/>
    <path id="Trazado_665304" data-name="Trazado 665304" d="M127.318,93.472a16.359,16.359,0,0,0-2.649.081,1.716,1.716,0,0,0-.559.13.512.512,0,0,0-.317.406.527.527,0,0,0,.321.448,2.238,2.238,0,0,0,1.1.121,1.363,1.363,0,0,1,1.04.284,3.3,3.3,0,0,1,.267.417,1.337,1.337,0,0,0,1.74.242,1.409,1.409,0,0,0,.507-1.5c-.176-.568-.874-.6-1.451-.626" transform="translate(-11099.594 -9184.909)" fill="#ffc7ad"/>
    <path id="Trazado_665305" data-name="Trazado 665305" d="M56.22,86.961l-.762-.442a.827.827,0,0,1-.346-.757l.762.442a.827.827,0,0,0,.346.757" transform="translate(-11075.408 -9182.201)" fill="#938fa3"/>
    <path id="Trazado_665306" data-name="Trazado 665306" d="M56.22,86.961l-.762-.442a.827.827,0,0,1-.346-.757l.762.442a.827.827,0,0,0,.346.757" transform="translate(-11075.408 -9182.201)" fill="#938fa3"/>
    <path id="Trazado_665307" data-name="Trazado 665307" d="M55.458,86.519l.762.442a.826.826,0,0,1-.345-.757l-.763-.443a.828.828,0,0,0,.346.757" transform="translate(-11075.408 -9182.201)" fill="none"/>
    <path id="Trazado_665308" data-name="Trazado 665308" d="M61.761,75.534l.761.442a.831.831,0,0,0-.84.081l-.762-.443a.834.834,0,0,1,.84-.08" transform="translate(-11077.453 -9178.571)" fill="#f7f7f7"/>
    <path id="Trazado_665309" data-name="Trazado 665309" d="M61.683,76.058l-.762-.442a.832.832,0,0,1,.84-.081l.762.442a.832.832,0,0,0-.84.081" transform="translate(-11077.453 -9178.571)" fill="#fff"/>
    <path id="Trazado_665310" data-name="Trazado 665310" d="M60.921,75.615l.762.442a.834.834,0,0,1,.84-.08l-.762-.442a.611.611,0,0,0-.312-.08,1.075,1.075,0,0,0-.528.161" transform="translate(-11077.453 -9178.571)" fill="none"/>
    <path id="Trazado_665311" data-name="Trazado 665311" d="M55.87,84.586l-.762-.442L55.1,81.164l.762.442Z" transform="translate(-11075.403 -9180.581)" fill="#938fa3"/>
    <path id="Trazado_665312" data-name="Trazado 665312" d="M57.681,77.642l-.762-.442,2.593-1.5.762.442Z" transform="translate(-11076.044 -9178.658)" fill="#fff"/>
    <path id="Trazado_665313" data-name="Trazado 665313" d="M55.862,80.5l-.762-.442a2.608,2.608,0,0,1,1.178-2.041l.762.443A2.606,2.606,0,0,0,55.862,80.5" transform="translate(-11075.403 -9179.472)" fill="#f7f7f7"/>
    <path id="Trazado_665314" data-name="Trazado 665314" d="M55.862,80.5l-.762-.442a2.608,2.608,0,0,1,1.178-2.041l.762.443A2.606,2.606,0,0,0,55.862,80.5" transform="translate(-11075.403 -9179.472)" fill="#fff"/>
    <path id="Trazado_665315" data-name="Trazado 665315" d="M55.1,80.054l.761.443a2.608,2.608,0,0,1,1.179-2.041l-.762-.443A2.606,2.606,0,0,0,55.1,80.054" transform="translate(-11075.403 -9179.472)" fill="none"/>
    <path id="Trazado_665316" data-name="Trazado 665316" d="M60.047,76.3c.65-.376,1.184-.071,1.186.676l.008,2.979A2.61,2.61,0,0,1,60.063,82l-2.593,1.5c-.651.376-1.184.071-1.187-.676l-.008-2.979A2.606,2.606,0,0,1,57.454,77.8Z" transform="translate(-11075.817 -9178.812)" fill="#f2f2f2"/>
    <path id="Trazado_665317" data-name="Trazado 665317" d="M60.8,80.97l.049.029a.435.435,0,0,0-.439.043l-.049-.029a.436.436,0,0,1,.439-.043" transform="translate(-11077.256 -9180.498)" fill="#fafafa"/>
    <path id="Trazado_665318" data-name="Trazado 665318" d="M60.408,81.042l-.049-.029a.435.435,0,0,1,.439-.043l.049.029a.435.435,0,0,0-.439.043" transform="translate(-11077.256 -9180.498)" fill="#fafafa"/>
    <path id="Trazado_665319" data-name="Trazado 665319" d="M60.359,81.013l.049.029a.436.436,0,0,1,.44-.043L60.8,80.97a.325.325,0,0,0-.162-.041.569.569,0,0,0-.277.084" transform="translate(-11077.256 -9180.498)" fill="none"/>
    <path id="Trazado_665320" data-name="Trazado 665320" d="M59.638,82.55l-.049-.029a.432.432,0,0,1-.18-.4,1.355,1.355,0,0,1,.615-1.066l.049.029a1.354,1.354,0,0,0-.615,1.066.433.433,0,0,0,.18.4" transform="translate(-11076.921 -9180.545)" fill="#fafafa"/>
    <path id="Trazado_665321" data-name="Trazado 665321" d="M59.638,82.55l-.049-.029a.432.432,0,0,1-.18-.4,1.355,1.355,0,0,1,.615-1.066l.049.029a1.354,1.354,0,0,0-.615,1.066.433.433,0,0,0,.18.4" transform="translate(-11076.921 -9180.545)" fill="#fafafa"/>
    <path id="Trazado_665322" data-name="Trazado 665322" d="M59.409,82.125a.431.431,0,0,0,.18.4l.049.029a.433.433,0,0,1-.18-.4,1.357,1.357,0,0,1,.615-1.066l-.049-.029a1.357,1.357,0,0,0-.615,1.066" transform="translate(-11076.921 -9180.545)" fill="none"/>
    <path id="Trazado_665323" data-name="Trazado 665323" d="M60.1,81.057c.341-.2.619-.039.619.353a1.355,1.355,0,0,1-.615,1.066c-.341.2-.619.039-.619-.353a1.355,1.355,0,0,1,.615-1.066" transform="translate(-11076.947 -9180.515)" fill="#938fa3"/>
    <path id="Trazado_665324" data-name="Trazado 665324" d="M58.593,83.578l-.237.137V80.863l.238-.137Z" transform="translate(-11076.549 -9180.428)" fill="#938fa3"/>
    <path id="Trazado_665325" data-name="Trazado 665325" d="M62.39,81.386l-.238.137V78.671l.238-.137Z" transform="translate(-11077.887 -9179.655)" fill="#938fa3"/>
    <path id="Trazado_665326" data-name="Trazado 665326" d="M42.312,193.49l.3.174a.252.252,0,0,1-.106-.231l-.3-.174a.252.252,0,0,0,.106.231" transform="translate(-11070.863 -9220.057)" fill="#938fa3"/>
    <path id="Trazado_665327" data-name="Trazado 665327" d="M42.5,193.433l-.3-.174v.014l.3.174v-.014" transform="translate(-11070.863 -9220.057)" fill="#938fa3"/>
    <path id="Trazado_665328" data-name="Trazado 665328" d="M42.5,193.453l-.3-.174a.373.373,0,0,0,.016.1l.3.174a.377.377,0,0,1-.016-.1" transform="translate(-11070.863 -9220.063)" fill="#938fa3"/>
    <path id="Trazado_665329" data-name="Trazado 665329" d="M42.529,193.606l-.3-.174a.207.207,0,0,0,.089.119l.3.174a.2.2,0,0,1-.089-.119" transform="translate(-11070.871 -9220.116)" fill="#938fa3"/>
    <path id="Trazado_665330" data-name="Trazado 665330" d="M42.311,193.49l.3.174a.252.252,0,0,1-.106-.231l-.3-.174a.253.253,0,0,0,.1.231" transform="translate(-11070.863 -9220.057)" fill="none"/>
    <path id="Trazado_665331" data-name="Trazado 665331" d="M48.748,183.012l-.3-.174a.254.254,0,0,0-.257.025l.3.174a.255.255,0,0,1,.257-.025" transform="translate(-11072.971 -9216.378)" fill="#f7f7f7"/>
    <path id="Trazado_665332" data-name="Trazado 665332" d="M48.79,183.012l-.3-.174a.216.216,0,0,0-.179-.01l.3.174a.217.217,0,0,1,.179.01" transform="translate(-11073.014 -9216.378)" fill="#f7f7f7"/>
    <path id="Trazado_665333" data-name="Trazado 665333" d="M48.569,183.01l-.3-.174a.371.371,0,0,0-.078.035l.3.174a.37.37,0,0,1,.078-.035" transform="translate(-11072.971 -9216.386)" fill="#f7f7f7"/>
    <path id="Trazado_665334" data-name="Trazado 665334" d="M48.191,182.863l.3.174a.254.254,0,0,1,.257-.025l-.3-.174a.186.186,0,0,0-.1-.025.326.326,0,0,0-.162.049" transform="translate(-11072.971 -9216.378)" fill="none"/>
    <path id="Trazado_665335" data-name="Trazado 665335" d="M42.487,187.172l-.3-.174.012,4.056.3.174Z" transform="translate(-11070.856 -9217.852)" fill="#938fa3"/>
    <path id="Trazado_665336" data-name="Trazado 665336" d="M46.572,183.064l-.3-.174-3.529,2.038.3.174Z" transform="translate(-11071.053 -9216.404)" fill="#f7f7f7"/>
    <path id="Trazado_665337" data-name="Trazado 665337" d="M42.847,186.21l-.3-.174a.8.8,0,0,0-.36.623l.3.174a.8.8,0,0,1,.36-.623" transform="translate(-11070.856 -9217.513)" fill="#f7f7f7"/>
    <path id="Trazado_665338" data-name="Trazado 665338" d="M43.033,186.21l-.3-.174-.017.01.3.174.017-.01" transform="translate(-11071.042 -9217.513)" fill="#f7f7f7"/>
    <path id="Trazado_665339" data-name="Trazado 665339" d="M42.964,186.226l-.3-.174a.581.581,0,0,0-.094.074l.3.174a.619.619,0,0,1,.094-.074" transform="translate(-11070.991 -9217.518)" fill="#f7f7f7"/>
    <path id="Trazado_665340" data-name="Trazado 665340" d="M42.74,186.34l-.3-.174a.845.845,0,0,0-.239.437l.3.174a.843.843,0,0,1,.239-.437" transform="translate(-11070.861 -9217.559)" fill="#f7f7f7"/>
    <path id="Trazado_665341" data-name="Trazado 665341" d="M42.5,187.015l-.3-.174a.551.551,0,0,0-.01.1l.3.174a.551.551,0,0,1,.01-.1" transform="translate(-11070.856 -9217.796)" fill="#f7f7f7"/>
    <path id="Trazado_665342" data-name="Trazado 665342" d="M42.188,186.659l.3.174a.8.8,0,0,1,.36-.623l-.3-.174a.8.8,0,0,0-.36.623" transform="translate(-11070.856 -9217.513)" fill="none"/>
    <path id="Trazado_665343" data-name="Trazado 665343" d="M43.009,185.169a.8.8,0,0,0-.36.623l.012,4.056c0,.229.164.321.362.207l3.53-2.038a.8.8,0,0,0,.36-.624l-.012-4.056c0-.229-.164-.321-.363-.207Z" transform="translate(-11071.019 -9216.473)" fill="#d9d9d9"/>
    <path id="Trazado_665344" data-name="Trazado 665344" d="M43.208,186.253l.009,3.368a.315.315,0,0,0,0,.051c.023.152.148.207.3.121l2.931-1.692a.664.664,0,0,0,.3-.518l-.01-3.368c0-.169-.108-.248-.248-.2a.3.3,0,0,0-.053.025l-2.931,1.692a.661.661,0,0,0-.3.518" transform="translate(-11071.216 -9216.796)" fill="#f7f7f7"/>
    <path id="Trazado_665345" data-name="Trazado 665345" d="M43.208,186.261l.009,3.368a.314.314,0,0,0,0,.051.3.3,0,0,0,.053-.025l2.931-1.692a.66.66,0,0,0,.3-.518l-.009-3.368a.422.422,0,0,0,0-.051.3.3,0,0,0-.053.025l-2.931,1.692a.661.661,0,0,0-.3.518" transform="translate(-11071.216 -9216.806)" fill="#cacaca"/>
    <path id="Trazado_665346" data-name="Trazado 665346" d="M45.323,186.757a.686.686,0,0,0-.023.17c0,.264.186.372.415.24a.919.919,0,0,0,.415-.719.417.417,0,0,0-.023-.143Z" transform="translate(-11071.952 -9217.606)" fill="#1b1b1e"/>
    <path id="Trazado_665347" data-name="Trazado 665347" d="M46.2,185.8v.338l-1.129.652v-.339Z" transform="translate(-11071.871 -9217.43)" fill="#1b1b1e"/>
    <path id="Trazado_665348" data-name="Trazado 665348" d="M47.112,188.589l-.293.169v-.893l.293-.169Z" transform="translate(-11072.487 -9218.097)" fill="#1b1b1e"/>
    <path id="Trazado_665349" data-name="Trazado 665349" d="M44.9,189.958l-.293.169v-1.3l.293-.169Z" transform="translate(-11071.709 -9218.435)" fill="#1b1b1e"/>
    <path id="Trazado_665350" data-name="Trazado 665350" d="M31.672,199.637l.3.174a.251.251,0,0,1-.106-.231l-.3-.174a.252.252,0,0,0,.106.231" transform="translate(-11067.116 -9222.22)" fill="#938fa3"/>
    <path id="Trazado_665351" data-name="Trazado 665351" d="M31.865,199.581l-.3-.174v.014l.3.174v-.014" transform="translate(-11067.116 -9222.22)" fill="#938fa3"/>
    <path id="Trazado_665352" data-name="Trazado 665352" d="M31.865,199.6l-.3-.174a.378.378,0,0,0,.016.1l.3.174a.348.348,0,0,1-.016-.1" transform="translate(-11067.116 -9222.229)" fill="#938fa3"/>
    <path id="Trazado_665353" data-name="Trazado 665353" d="M31.89,199.753l-.3-.174a.205.205,0,0,0,.089.119l.3.174a.207.207,0,0,1-.089-.119" transform="translate(-11067.125 -9222.282)" fill="#938fa3"/>
    <path id="Trazado_665354" data-name="Trazado 665354" d="M31.673,199.638l.3.174a.251.251,0,0,1-.106-.231l-.3-.174a.252.252,0,0,0,.106.232" transform="translate(-11067.116 -9222.22)" fill="none"/>
    <path id="Trazado_665355" data-name="Trazado 665355" d="M38.109,189.16l-.3-.174a.254.254,0,0,0-.257.025l.3.174a.254.254,0,0,1,.257-.025" transform="translate(-11069.225 -9218.542)" fill="#f7f7f7"/>
    <path id="Trazado_665356" data-name="Trazado 665356" d="M38.151,189.16l-.3-.174a.216.216,0,0,0-.179-.01l.3.174a.216.216,0,0,1,.179.01" transform="translate(-11069.267 -9218.542)" fill="#f7f7f7"/>
    <path id="Trazado_665357" data-name="Trazado 665357" d="M37.93,189.157l-.3-.174a.386.386,0,0,0-.078.035l.3.174a.406.406,0,0,1,.078-.035" transform="translate(-11069.225 -9218.551)" fill="#f7f7f7"/>
    <path id="Trazado_665358" data-name="Trazado 665358" d="M37.553,189.01l.3.174a.252.252,0,0,1,.257-.025l-.3-.174a.187.187,0,0,0-.1-.025.331.331,0,0,0-.161.049" transform="translate(-11069.225 -9218.542)" fill="none"/>
    <path id="Trazado_665359" data-name="Trazado 665359" d="M31.848,193.32l-.3-.174.012,4.056.3.174Z" transform="translate(-11067.109 -9220.016)" fill="#938fa3"/>
    <path id="Trazado_665360" data-name="Trazado 665360" d="M35.933,189.211l-.3-.174L32.1,191.075l.3.174Z" transform="translate(-11067.306 -9218.569)" fill="#f7f7f7"/>
    <path id="Trazado_665361" data-name="Trazado 665361" d="M32.208,192.357l-.3-.173a.8.8,0,0,0-.36.623l.3.174a.8.8,0,0,1,.36-.623" transform="translate(-11067.11 -9219.678)" fill="#f7f7f7"/>
    <path id="Trazado_665362" data-name="Trazado 665362" d="M32.394,192.357l-.3-.173-.017.01.3.174.017-.01" transform="translate(-11067.297 -9219.678)" fill="#f7f7f7"/>
    <path id="Trazado_665363" data-name="Trazado 665363" d="M32.325,192.374l-.3-.174a.61.61,0,0,0-.094.074l.3.174a.617.617,0,0,1,.094-.074" transform="translate(-11067.245 -9219.683)" fill="#f7f7f7"/>
    <path id="Trazado_665364" data-name="Trazado 665364" d="M32.1,192.488l-.3-.174a.841.841,0,0,0-.239.437l.3.174a.849.849,0,0,1,.24-.437" transform="translate(-11067.115 -9219.723)" fill="#f7f7f7"/>
    <path id="Trazado_665365" data-name="Trazado 665365" d="M31.857,193.163l-.3-.174a.549.549,0,0,0-.009.1l.3.174a.551.551,0,0,1,.01-.1" transform="translate(-11067.11 -9219.961)" fill="#f7f7f7"/>
    <path id="Trazado_665366" data-name="Trazado 665366" d="M31.549,192.807l.3.174a.8.8,0,0,1,.36-.624l-.3-.174a.8.8,0,0,0-.36.624" transform="translate(-11067.11 -9219.677)" fill="none"/>
    <path id="Trazado_665367" data-name="Trazado 665367" d="M32.371,191.316a.8.8,0,0,0-.36.623L32.022,196c0,.229.164.322.362.207l3.53-2.037a.8.8,0,0,0,.36-.624l-.012-4.056c0-.229-.164-.321-.362-.207Z" transform="translate(-11067.273 -9218.637)" fill="#d9d9d9"/>
    <path id="Trazado_665368" data-name="Trazado 665368" d="M32.569,192.4l.01,3.368a.315.315,0,0,0,0,.051c.023.152.148.207.3.121l2.931-1.692a.662.662,0,0,0,.3-.518l-.01-3.368c0-.169-.108-.248-.248-.2a.3.3,0,0,0-.053.025l-2.931,1.692a.661.661,0,0,0-.3.518" transform="translate(-11067.47 -9218.961)" fill="#f7f7f7"/>
    <path id="Trazado_665369" data-name="Trazado 665369" d="M32.569,192.409l.01,3.368a.315.315,0,0,0,0,.051.3.3,0,0,0,.053-.025l2.931-1.692a.659.659,0,0,0,.3-.518l-.01-3.368a.322.322,0,0,0,0-.051.3.3,0,0,0-.053.025l-2.931,1.692a.661.661,0,0,0-.3.518" transform="translate(-11067.47 -9218.969)" fill="#cacaca"/>
    <path id="Trazado_665370" data-name="Trazado 665370" d="M34.684,192.905a.686.686,0,0,0-.023.17c0,.264.186.372.415.24a.918.918,0,0,0,.415-.718.418.418,0,0,0-.023-.144Z" transform="translate(-11068.207 -9219.771)" fill="#1b1b1e"/>
    <path id="Trazado_665371" data-name="Trazado 665371" d="M35.559,191.949v.338l-1.129.652V192.6Z" transform="translate(-11068.125 -9219.594)" fill="#1b1b1e"/>
    <path id="Trazado_665372" data-name="Trazado 665372" d="M36.473,194.737l-.293.169v-.893l.293-.169Z" transform="translate(-11068.741 -9220.262)" fill="#1b1b1e"/>
    <path id="Trazado_665373" data-name="Trazado 665373" d="M34.263,196.106l-.293.169v-1.3l.293-.169Z" transform="translate(-11067.964 -9220.6)" fill="#1b1b1e"/>
    <path id="Trazado_665374" data-name="Trazado 665374" d="M101.827,157.627a4.179,4.179,0,0,1-1.888,3.274c-.706.407-1.324.319-1.649-.157a1.648,1.648,0,0,1-.243-.933,4.18,4.18,0,0,1,1.888-3.277,1.349,1.349,0,0,1,1.294-.154,1.3,1.3,0,0,1,.6,1.248" transform="translate(-11090.527 -9207.033)" fill="#f2f2f2"/>
    <path id="Trazado_665375" data-name="Trazado 665375" d="M101.48,157.315a4.175,4.175,0,0,1-1.892,3.274,1.358,1.358,0,0,1-1.3.155,1.643,1.643,0,0,1-.243-.933,4.177,4.177,0,0,1,1.888-3.277,1.353,1.353,0,0,1,1.294-.155,1.609,1.609,0,0,1,.249.936" transform="translate(-11090.527 -9207.032)" fill="#494952"/>
    <path id="Trazado_665376" data-name="Trazado 665376" d="M123.876,217.415l-.034,12.109L113.555,235.5l.034-12.109Z" transform="translate(-11095.987 -9228.562)" fill="#ffd760"/>
    <path id="Trazado_665377" data-name="Trazado 665377" d="M101.429,219.623l-.034,12.109-22.37-12.916.034-12.109Z" transform="translate(-11083.828 -9224.791)" fill="#feca2e"/>
    <path id="Trazado_665378" data-name="Trazado 665378" d="M111.735,210.395l-10.287,5.978-22.37-12.916,10.287-5.978Z" transform="translate(-11083.848 -9221.542)" fill="#ffd438"/>
    <path id="Trazado_665379" data-name="Trazado 665379" d="M124.311,213.129l-.035,3.456L113.761,222.7l.035-3.456Z" transform="translate(-11096.061 -9227.053)" fill="#353541"/>
    <path id="Trazado_665380" data-name="Trazado 665380" d="M101.366,215.386l-.035,3.456-22.867-13.2.035-3.456Z" transform="translate(-11083.631 -9223.199)" fill="#2e2e37"/>
    <path id="Trazado_665381" data-name="Trazado 665381" d="M111.9,205.953l-10.515,6.111-22.867-13.2,10.515-6.111Z" transform="translate(-11083.65 -9219.877)" fill="#494952"/>
    <path id="Trazado_665382" data-name="Trazado 665382" d="M115.983,206.47l-1.2.694-7.687,4.468L94.751,204.5V194.215Z" transform="translate(-11089.367 -9220.393)" fill="#222229"/>
    <path id="Trazado_665383" data-name="Trazado 665383" d="M81.043,199.377l8.881-5.161V204.5l-7.687-4.438Z" transform="translate(-11084.539 -9220.393)" fill="#353541"/>
    <path id="Trazado_665384" data-name="Trazado 665384" d="M110.608,207.916l-7.687,4.468L82.887,200.817l7.686-4.468Z" transform="translate(-11085.188 -9221.144)" fill="#2e2e37"/>
    <path id="Trazado_665385" data-name="Trazado 665385" d="M88.954,212.393l.533-.31-.013,1.785-.533.309Z" transform="translate(-11087.319 -9226.686)" fill="#222229"/>
    <path id="Trazado_665386" data-name="Trazado 665386" d="M83.634,209.308l.533-.31,3.45,2-.533.309Z" transform="translate(-11085.452 -9225.599)" fill="#494952"/>
    <path id="Trazado_665387" data-name="Trazado 665387" d="M87.078,211.475l-.013,1.784-3.45-2,.013-1.784Z" transform="translate(-11085.445 -9225.766)" fill="#2e2e37"/>
    <path id="Trazado_665388" data-name="Trazado 665388" d="M107.694,223.292l.533-.309-.013,1.784-.533.309Z" transform="translate(-11093.919 -9230.522)" fill="#222229"/>
    <path id="Trazado_665389" data-name="Trazado 665389" d="M102.374,220.206l.533-.31,3.45,2-.533.309Z" transform="translate(-11092.052 -9229.437)" fill="#494952"/>
    <path id="Trazado_665390" data-name="Trazado 665390" d="M105.818,222.373l-.013,1.784-3.45-2,.013-1.784Z" transform="translate(-11092.043 -9229.604)" fill="#2e2e37"/>
    <path id="Trazado_665391" data-name="Trazado 665391" d="M109.506,213.7l2.08-1.2v-.217l-2.08,1.2Z" transform="translate(-11094.562 -9226.756)" fill="#3b3b45"/>
    <path id="Trazado_665392" data-name="Trazado 665392" d="M107.981,213.477l.988.57v-.217l-.988-.57Z" transform="translate(-11094.025 -9227.1)" fill="#222229"/>
    <path id="Trazado_665393" data-name="Trazado 665393" d="M108.968,213.177l2.08-1.2-.987-.57-.063.037-2.017,1.164Z" transform="translate(-11094.025 -9226.447)" fill="#494952"/>
    <path id="Trazado_665394" data-name="Trazado 665394" d="M97.593,206.784l2.08-1.2v-.218l-2.08,1.2Z" transform="translate(-11090.367 -9224.319)" fill="#3b3b45"/>
    <path id="Trazado_665395" data-name="Trazado 665395" d="M96.069,206.556l.987.57v-.217l-.987-.57Z" transform="translate(-11089.831 -9224.661)" fill="#222229"/>
    <path id="Trazado_665396" data-name="Trazado 665396" d="M97.057,206.257l2.08-1.2-.987-.57-.063.036-2.016,1.165Z" transform="translate(-11089.831 -9224.009)" fill="#494952"/>
    <path id="Trazado_665397" data-name="Trazado 665397" d="M97.695,200.842l1.566-.91-.01,3.584-1.566.91Z" transform="translate(-11090.399 -9222.406)" fill="#feca2e"/>
    <path id="Trazado_665398" data-name="Trazado 665398" d="M109.641,206.69l1.566-.91-.012,4.262-1.566.91Z" transform="translate(-11094.606 -9224.465)" fill="#ffd760"/>
    <path id="Trazado_665399" data-name="Trazado 665399" d="M96.792,199.268l1.566-.91,8.328,4.809-1.566.91Z" transform="translate(-11090.085 -9221.852)" fill="#ffd760"/>
    <path id="Trazado_665400" data-name="Trazado 665400" d="M105.114,204.571l-.012,4.262-.59-.341.01-3.584-7.148-4.127-.01,3.585-.59-.341.012-4.263Z" transform="translate(-11090.079 -9222.346)" fill="#e9b415"/>
  </g>
</svg>
